<svg width="160" height="160" viewBox="0 0 160 160" fill="none" xmlns="http://www.w3.org/2000/svg">
<path fill-rule="evenodd" clip-rule="evenodd" d="M114.354 67.3712V66.1432L116.806 64.5058C116.806 64.5058 117.974 64.2303 118.031 65.3245C118.089 66.4182 117.214 67.3712 117.214 67.3712L115.988 68.5992L114.354 67.3712Z" fill="#BF2F41"/>
<path fill-rule="evenodd" clip-rule="evenodd" d="M114.354 67.3711V66.1431C114.354 66.1431 115.433 67.2127 115.988 66.9618C116.569 66.699 117.603 65.9688 118.031 65.3245C118.089 66.4182 117.912 66.9082 117.623 67.3711C117.282 67.9168 115.988 68.5991 115.988 68.5991L115.245 68.9049L114.371 68.0998L114.354 67.3711Z" fill="#AD2738"/>
<path fill-rule="evenodd" clip-rule="evenodd" d="M53.2758 57.9606C46.5791 54.087 36.4339 53.6658 30.6346 57.0203L3.91471 72.4743C-1.88467 75.8288 -1.15629 81.6967 5.54026 85.5698L99.1213 139.695C105.818 143.568 115.963 143.99 121.762 140.635L148.482 125.181C154.282 121.827 153.554 115.959 146.857 112.086L53.2758 57.9606Z" fill="#E4D4D4"/>
<path fill-rule="evenodd" clip-rule="evenodd" d="M84.0788 120.928L82.0742 121.813C82.0742 121.813 79.8019 115.533 82.209 112.523C84.6157 109.513 88.3516 111.23 90.1552 112.523C91.9592 113.816 84.0788 120.928 84.0788 120.928Z" fill="#2D3739"/>
<path fill-rule="evenodd" clip-rule="evenodd" d="M13.4882 79.8101L11.8537 80.6287C11.8537 80.6287 9.74991 75.2267 11.8537 72.442C13.9576 69.6569 17.2234 70.8358 18.8 72.0327C20.3766 73.2292 13.4882 79.8101 13.4882 79.8101Z" fill="#2D3739"/>
<path fill-rule="evenodd" clip-rule="evenodd" d="M95.5044 135.321C98.7373 134.741 101.279 132.046 101.279 132.046C101.279 132.046 103.544 127.51 100.053 119.766C96.5619 112.022 91.4404 112.561 90.4238 112.807C89.4072 113.053 85.3751 113.811 83.3002 116.491C81.2253 119.171 91.6071 136.02 95.5044 135.321Z" fill="#3A434A"/>
<path fill-rule="evenodd" clip-rule="evenodd" d="M90.4237 116.165C95.0319 118.83 98.7731 125.051 98.7731 130.048C98.7731 135.045 95.0319 136.937 90.4237 134.272C85.8154 131.607 82.0742 125.386 82.0742 120.389C82.0742 115.393 85.8154 113.5 90.4237 116.165Z" fill="#85939A"/>
<path fill-rule="evenodd" clip-rule="evenodd" d="M86.5341 114.957L86.5791 114.957L86.624 114.958L86.669 114.959L86.7143 114.961L86.7597 114.963L86.805 114.965L86.8508 114.968L86.8966 114.971L86.9427 114.975L86.9889 114.978L87.0351 114.983L87.0817 114.987L87.1283 114.992L87.1748 114.998L87.2218 115.004L87.2688 115.01L87.3162 115.016L87.3636 115.023L87.411 115.031L87.4584 115.038L87.5062 115.046L87.554 115.055L87.6022 115.064L87.6505 115.073L87.6987 115.083L87.7469 115.093L87.7955 115.103L87.8441 115.114L87.8932 115.125L87.9418 115.137L87.9912 115.149L88.0403 115.161L88.0897 115.174L88.1391 115.187L88.1886 115.201L88.2384 115.215L88.2883 115.229L88.3381 115.244L88.388 115.259L88.4382 115.274L88.4885 115.29L88.5392 115.307L88.5894 115.323L88.6401 115.341L88.6912 115.358L88.7418 115.376L88.7929 115.394L88.844 115.413L88.8951 115.432L88.9465 115.452L88.998 115.472L89.0495 115.492L89.101 115.513L89.1529 115.534L89.2048 115.556L89.2567 115.578L89.3086 115.6L89.3609 115.623L89.4132 115.646L89.4655 115.67L89.5178 115.694L89.5705 115.718L89.6232 115.743L89.6759 115.768L89.7286 115.794L89.7817 115.82L89.8349 115.846L89.888 115.873L89.9411 115.901L89.9942 115.928L90.0477 115.956L90.1013 115.985L90.1548 116.014L90.2083 116.043L90.2618 116.073L90.3158 116.103L90.3697 116.134L90.4237 116.165L90.4776 116.196L90.5315 116.228L90.5855 116.26L90.639 116.292L90.6925 116.325L90.746 116.358L90.7996 116.391L90.8531 116.425L90.9062 116.459L90.9597 116.493L91.0656 116.563L91.1714 116.633L91.2768 116.705L91.3818 116.778L91.4864 116.852L91.5906 116.928L91.6944 117.004L91.7978 117.082L91.9008 117.161L92.0033 117.241L92.1055 117.322L92.2072 117.404L92.3086 117.487L92.4091 117.571L92.5092 117.656L92.6093 117.743L92.7086 117.83L92.807 117.918L92.9055 118.007L93.0032 118.098L93.1004 118.189L93.1973 118.281L93.2933 118.374L93.3889 118.468L93.4841 118.563L93.5785 118.659L93.6725 118.756L93.7656 118.853L93.8584 118.952L93.9507 119.051L94.0423 119.151L94.133 119.252L94.2233 119.354L94.3132 119.456L94.4022 119.559L94.4905 119.663L94.5784 119.768L94.6654 119.873L94.752 119.98L94.8374 120.086L94.9228 120.194L95.007 120.302L95.0907 120.411L95.1737 120.521L95.2558 120.631L95.3371 120.742L95.418 120.853L95.4981 120.965L95.5774 121.078L95.6558 121.191L95.7335 121.304L95.8103 121.419L95.8867 121.533L95.9619 121.649L96.0367 121.764L96.1102 121.88L96.1829 121.997L96.2553 122.114L96.3264 122.232L96.3971 122.35L96.4665 122.468L96.5352 122.587L96.603 122.706L96.67 122.826L96.7362 122.946L96.8012 123.066L96.8657 123.187L96.9291 123.308L96.9916 123.429L97.0529 123.55L97.1133 123.672L97.173 123.794L97.2318 123.917L97.2894 124.039L97.3462 124.162L97.4022 124.285L97.457 124.408L97.5109 124.531L97.5636 124.655L97.6155 124.779L97.6662 124.902L97.716 125.026L97.7647 125.15L97.8125 125.274L97.859 125.399L97.9048 125.523L97.9493 125.647L97.9927 125.772L98.0352 125.896L98.0764 126.021L98.1165 126.145L98.1557 126.27L98.1937 126.394L98.2305 126.518L98.266 126.643L98.3007 126.767L98.3343 126.891L98.3665 127.015L98.3976 127.139L98.4274 127.263L98.456 127.387L98.4838 127.51L98.51 127.634L98.5353 127.757L98.5594 127.88L98.5819 128.003L98.6035 128.126L98.6235 128.248L98.6427 128.37L98.6603 128.492L98.6771 128.614L98.6848 128.675L98.6922 128.735L98.6991 128.796L98.7061 128.856L98.7126 128.917L98.7187 128.977L98.7245 129.037L98.7302 129.097L98.7351 129.158L98.74 129.218L98.7445 129.277L98.749 129.337L98.7527 129.397L98.7563 129.457L98.7596 129.516L98.7625 129.576L98.7649 129.635L98.767 129.694L98.769 129.753L98.7706 129.812L98.7715 129.871L98.7727 129.93L98.7731 129.989V130.048V130.106L98.7727 130.164L98.7715 130.222L98.7706 130.279L98.769 130.337L98.767 130.394L98.7649 130.45L98.7625 130.507L98.7596 130.563L98.7563 130.619L98.7527 130.674L98.749 130.73L98.7445 130.785L98.74 130.839L98.7351 130.894L98.7302 130.948L98.7245 131.002L98.7187 131.055L98.7126 131.108L98.7061 131.161L98.6991 131.214L98.6922 131.266L98.6848 131.318L98.6771 131.37L98.6689 131.421L98.6603 131.472L98.6517 131.523L98.6427 131.574L98.6333 131.624L98.6235 131.674L98.6137 131.724L98.6035 131.773L98.5929 131.822L98.5819 131.871L98.5708 131.919L98.5594 131.967L98.5475 132.015L98.5353 132.063L98.523 132.11L98.51 132.157L98.4973 132.204L98.4838 132.25L98.4703 132.296L98.456 132.342L98.4421 132.387L98.4274 132.432L98.4127 132.477L98.3976 132.521L98.3821 132.565L98.3665 132.609L98.3506 132.653L98.3343 132.696L98.3175 132.739L98.3007 132.782L98.2836 132.824L98.266 132.866L98.2484 132.908L98.2305 132.949L98.2121 132.99L98.1937 133.031L98.1749 133.071L98.1557 133.111L98.1361 133.151L98.1165 133.19L98.0964 133.23L98.0764 133.268L98.056 133.307L98.0352 133.345L98.0139 133.383L97.9927 133.421L97.971 133.458L97.9493 133.495L97.9273 133.531L97.9048 133.568L97.8819 133.603L97.859 133.639L97.8362 133.674L97.8125 133.709L97.7888 133.744L97.7647 133.778L97.7405 133.812L97.716 133.846L97.6915 133.879L97.6662 133.912L97.6408 133.945L97.6155 133.977L97.5898 134.009L97.5636 134.041L97.5375 134.072L97.5109 134.104L97.4839 134.134L97.457 134.165L97.4296 134.195L97.4022 134.224L97.3744 134.254L97.3462 134.283L97.3181 134.312L97.2894 134.34L97.2608 134.368L97.2318 134.396L97.2028 134.423L97.173 134.45L97.1436 134.477L97.1133 134.503L97.0835 134.529L97.0529 134.555L97.0222 134.58L96.9916 134.605L96.9601 134.63L96.9291 134.654L96.8972 134.678L96.8657 134.702L96.8334 134.725L96.8012 134.748L96.7689 134.771L96.7362 134.793L96.7031 134.815L96.67 134.836L96.6365 134.858L96.603 134.878L96.5691 134.899L96.5352 134.919L96.5008 134.939L96.4665 134.959L96.4318 134.978L96.3971 134.997L96.3619 135.015L96.3264 135.033L96.2908 135.051L96.2553 135.068L96.2193 135.085L96.1829 135.102L96.147 135.118L96.1102 135.134L96.0734 135.15L96.0367 135.165L95.9995 135.18L95.9619 135.195L95.9243 135.209L95.8867 135.223L95.8487 135.236L95.8103 135.249L95.7719 135.262L95.7335 135.275L95.6947 135.287L95.6558 135.298L95.6166 135.31L95.5774 135.321L95.5378 135.331L95.4981 135.342L95.4581 135.351L95.418 135.361L95.3776 135.37L95.3371 135.379L95.2967 135.387L95.2558 135.395L95.2146 135.403L95.1737 135.411L95.132 135.418L95.0907 135.424L95.0491 135.43L95.007 135.436L94.9649 135.442L94.9228 135.447L94.8803 135.452L94.8374 135.456L94.7949 135.46L94.752 135.464L94.7087 135.467L94.6654 135.47L94.6221 135.473L94.5784 135.475L94.5346 135.476L94.4905 135.478L94.4464 135.479L94.4022 135.48L94.3577 135.48L94.3132 135.48L94.2682 135.479L94.2233 135.479L94.1783 135.477L94.133 135.476L94.0876 135.474L94.0423 135.471L93.9965 135.469L93.9507 135.466L93.9046 135.462L93.8584 135.458L93.8122 135.454L93.7656 135.449L93.7191 135.444L93.6725 135.439L93.6255 135.433L93.5785 135.427L93.5311 135.42L93.4841 135.414L93.4367 135.406L93.3889 135.399L93.3411 135.39L93.2933 135.382L93.2451 135.373L93.1973 135.364L93.1486 135.354L93.1004 135.344L93.0518 135.334L93.0032 135.323L92.9546 135.312L92.9055 135.3L92.8565 135.288L92.807 135.276L92.758 135.263L92.7086 135.25L92.6587 135.236L92.6093 135.222L92.5594 135.208L92.5092 135.193L92.4593 135.178L92.4091 135.162L92.3588 135.146L92.3086 135.13L92.2579 135.113L92.2072 135.096L92.1565 135.079L92.1055 135.061L92.0544 135.042L92.0033 135.024L91.9522 135.004L91.9008 134.985L91.8493 134.965L91.7978 134.945L91.7463 134.924L91.6944 134.903L91.6425 134.881L91.5906 134.859L91.5387 134.837L91.4864 134.814L91.4341 134.791L91.3818 134.767L91.3295 134.743L91.2768 134.719L91.2241 134.694L91.1714 134.669L91.1187 134.643L91.0656 134.617L91.0129 134.59L90.9597 134.564L90.9062 134.536L90.8531 134.509L90.7996 134.48L90.746 134.452L90.6925 134.423L90.639 134.394L90.5855 134.364L90.5315 134.334L90.4776 134.303L90.4237 134.272L90.3697 134.241L90.3158 134.209L90.2618 134.177L90.2083 134.144L90.1548 134.112L90.1013 134.079L90.0477 134.045L89.9942 134.012L89.9411 133.978L89.888 133.944L89.7817 133.874L89.6759 133.804L89.5705 133.732L89.4655 133.659L89.3609 133.584L89.2567 133.509L89.1529 133.433L89.0495 133.355L88.9465 133.276L88.844 133.196L88.7418 133.115L88.6401 133.033L88.5392 132.95L88.4382 132.866L88.3381 132.78L88.2384 132.694L88.1391 132.607L88.0403 132.519L87.9418 132.429L87.8441 132.339L87.7469 132.248L87.6505 132.156L87.554 132.062L87.4584 131.968L87.3636 131.874L87.2688 131.778L87.1748 131.681L87.0817 131.583L86.9889 131.485L86.8966 131.386L86.805 131.286L86.7143 131.185L86.624 131.083L86.5341 130.981L86.4451 130.877L86.3568 130.773L86.269 130.669L86.1819 130.563L86.0957 130.457L86.0099 130.35L85.9249 130.243L85.8403 130.135L85.757 130.026L85.674 129.916L85.5915 129.806L85.5102 129.695L85.4293 129.584L85.3496 129.472L85.2703 129.359L85.1915 129.246L85.1138 129.132L85.037 129.018L84.961 128.903L84.8854 128.788L84.8111 128.672L84.7371 128.556L84.6644 128.44L84.592 128.322L84.5209 128.205L84.4503 128.087L84.3808 127.968L84.3121 127.85L84.2443 127.73L84.1773 127.611L84.1111 127.491L84.0461 127.371L83.982 127.25L83.9183 127.129L83.8561 127.008L83.7944 126.886L83.734 126.765L83.6743 126.643L83.6155 126.52L83.5579 126.398L83.5011 126.275L83.4451 126.152L83.3903 126.029L83.3364 125.905L83.2837 125.782L83.2318 125.658L83.1811 125.534L83.1313 125.41L83.0827 125.286L83.0348 125.162L82.9883 125.038L82.9425 124.914L82.898 124.789L82.8547 124.665L82.8122 124.541L82.7709 124.416L82.7308 124.292L82.6916 124.167L82.6536 124.043L82.6168 123.918L82.5813 123.794L82.5466 123.67L82.5131 123.546L82.4808 123.421L82.4497 123.297L82.4199 123.174L82.3913 123.05L82.3635 122.926L82.3374 122.803L82.312 122.68L82.2883 122.557L82.2654 122.434L82.2438 122.311L82.2238 122.189L82.2046 122.066L82.187 121.945L82.1706 121.823L82.1629 121.762L82.1551 121.702L82.1482 121.641L82.1412 121.58L82.1347 121.52L82.1286 121.46L82.1228 121.399L82.1175 121.339L82.1122 121.279L82.1073 121.219L82.1028 121.159L82.0987 121.099L82.0946 121.04L82.091 120.98L82.0881 120.921L82.0853 120.861L82.0824 120.802L82.0803 120.742L82.0783 120.683L82.0771 120.624L82.0759 120.565L82.075 120.507L82.0742 120.448V120.389V120.331L82.075 120.273L82.0759 120.215L82.0771 120.157L82.0783 120.1L82.0803 120.043L82.0824 119.986L82.0853 119.93L82.0881 119.874L82.091 119.818L82.0946 119.762L82.0987 119.707L82.1028 119.652L82.1073 119.597L82.1122 119.543L82.1175 119.489L82.1228 119.435L82.1286 119.382L82.1347 119.328L82.1412 119.276L82.1482 119.223L82.1551 119.171L82.1629 119.119L82.1706 119.067L82.1784 119.015L82.187 118.964L82.1956 118.913L82.2046 118.863L82.214 118.813L82.2238 118.763L82.2336 118.713L82.2438 118.664L82.2544 118.615L82.2654 118.566L82.2765 118.517L82.2883 118.469L82.3002 118.421L82.312 118.374L82.3247 118.327L82.3374 118.28L82.3504 118.233L82.3635 118.187L82.3774 118.141L82.3913 118.095L82.4056 118.05L82.4199 118.005L82.4346 117.96L82.4497 117.915L82.4653 117.871L82.4808 117.827L82.4971 117.784L82.5131 117.741L82.5298 117.698L82.5466 117.655L82.5637 117.613L82.5813 117.571L82.5989 117.529L82.6168 117.488L82.6352 117.447L82.6536 117.406L82.6724 117.366L82.6916 117.326L82.7112 117.286L82.7308 117.246L82.7509 117.207L82.7709 117.168L82.7913 117.13L82.8122 117.092L82.8334 117.054L82.8547 117.016L82.8763 116.979L82.898 116.942L82.92 116.905L82.9425 116.869L82.9654 116.833L82.9883 116.798L83.0116 116.762L83.0348 116.727L83.0585 116.693L83.0827 116.658L83.1068 116.624L83.1313 116.591L83.1562 116.557L83.1811 116.524L83.2065 116.492L83.2318 116.459L83.2575 116.427L83.2837 116.396L83.3098 116.364L83.3364 116.333L83.3634 116.302L83.3903 116.272L83.4177 116.242L83.4451 116.212L83.4729 116.183L83.5011 116.154L83.5293 116.125L83.5579 116.097L83.5865 116.069L83.6155 116.041L83.6449 116.014L83.6743 115.987L83.7037 115.96L83.734 115.934L83.7642 115.908L83.7944 115.882L83.8251 115.857L83.8561 115.832L83.8872 115.807L83.9183 115.783L83.9501 115.759L83.982 115.735L84.0139 115.712L84.0461 115.689L84.0784 115.666L84.1111 115.644L84.1442 115.622L84.1773 115.6L84.2108 115.579L84.2443 115.558L84.2782 115.538L84.3121 115.517L84.3465 115.498L84.3808 115.478L84.4155 115.459L84.4503 115.44L84.4854 115.422L84.5209 115.404L84.5565 115.386L84.592 115.369L84.628 115.352L84.6644 115.335L84.7007 115.318L84.7371 115.302L84.7739 115.287L84.8111 115.272L84.8482 115.257L84.8854 115.242L84.923 115.228L84.961 115.214L84.999 115.201L85.037 115.187L85.0754 115.175L85.1138 115.162L85.1526 115.15L85.1915 115.138L85.2307 115.127L85.2703 115.116L85.3096 115.105L85.3496 115.095L85.3892 115.085L85.4293 115.076L85.4697 115.067L85.5102 115.058L85.5506 115.049L85.5915 115.041L85.6328 115.034L85.674 115.026L85.7153 115.019L85.757 115.013L85.7987 115.006L85.8403 115L85.8824 114.995L85.9249 114.99L85.9674 114.985L86.0099 114.981L86.0528 114.977L86.0957 114.973L86.1386 114.97L86.1819 114.967L86.2252 114.964L86.269 114.962L86.3127 114.96L86.3568 114.959L86.4009 114.958L86.4451 114.957L86.4896 114.957L86.5341 114.957ZM86.4768 117.822L86.4567 117.823L86.4371 117.823L86.4179 117.824L86.3991 117.824L86.3799 117.825L86.3611 117.826L86.344 117.828L86.326 117.829L86.308 117.831L86.2909 117.832L86.2737 117.834L86.2573 117.836L86.2402 117.838L86.2242 117.84L86.2087 117.842L86.1928 117.845L86.1773 117.847L86.1626 117.85L86.1474 117.852L86.1327 117.855L86.1188 117.858L86.1045 117.861L86.0902 117.864L86.0772 117.867L86.0637 117.87L86.0502 117.873L86.0379 117.877L86.0253 117.88L86.0122 117.884L85.9999 117.887L85.9885 117.891L85.9762 117.894L85.9644 117.898L85.9533 117.902L85.9419 117.906L85.9309 117.91L85.9198 117.914L85.9092 117.918L85.8986 117.922L85.888 117.926L85.8782 117.93L85.8679 117.934L85.8581 117.939L85.8483 117.943L85.8385 117.948L85.8291 117.952L85.8201 117.957L85.8103 117.962L85.8013 117.966L85.7924 117.971L85.7834 117.976L85.7748 117.98L85.7662 117.985L85.7572 117.99L85.7486 117.996L85.7401 118.001L85.7315 118.006L85.7237 118.011L85.7151 118.017L85.707 118.022L85.6988 118.028L85.691 118.033L85.6828 118.039L85.6743 118.045L85.6661 118.051L85.6583 118.057L85.6506 118.063L85.6428 118.069L85.6346 118.076L85.6265 118.082L85.6191 118.089L85.6109 118.096L85.6032 118.103L85.5954 118.11L85.5872 118.117L85.5795 118.125L85.5717 118.132L85.5635 118.14L85.5558 118.148L85.5476 118.156L85.5398 118.164L85.5321 118.172L85.5239 118.181L85.5157 118.19L85.508 118.199L85.5002 118.208L85.4916 118.218L85.4834 118.227L85.4757 118.237L85.4675 118.247L85.4593 118.257L85.4512 118.268L85.443 118.279L85.4344 118.29L85.4262 118.301L85.4181 118.313L85.4099 118.325L85.4017 118.337L85.3931 118.349L85.385 118.362L85.3764 118.375L85.3682 118.388L85.3596 118.402L85.3515 118.416L85.3429 118.43L85.3347 118.444L85.3261 118.459L85.3176 118.474L85.3094 118.49L85.3008 118.506L85.2926 118.522L85.284 118.538L85.2759 118.555L85.2673 118.572L85.2591 118.59L85.251 118.607L85.2424 118.626L85.2342 118.644L85.226 118.663L85.2179 118.682L85.2097 118.702L85.2015 118.722L85.1937 118.742L85.1856 118.763L85.1774 118.784L85.1696 118.805L85.1619 118.827L85.1541 118.85L85.1463 118.872L85.1386 118.895L85.1312 118.919L85.1239 118.943L85.1165 118.967L85.1092 118.991L85.1018 119.016L85.0949 119.042L85.0879 119.067L85.081 119.094L85.074 119.12L85.0675 119.147L85.061 119.175L85.0544 119.202L85.0483 119.231L85.0422 119.259L85.036 119.288L85.0299 119.318L85.0242 119.348L85.0189 119.378L85.0131 119.408L85.0078 119.439L85.0025 119.471L84.9976 119.503L84.9927 119.535L84.9882 119.568L84.9837 119.601L84.9792 119.634L84.9751 119.668L84.9711 119.702L84.9674 119.737L84.9637 119.772L84.9604 119.808L84.9572 119.844L84.9543 119.88L84.9514 119.917L84.949 119.954L84.9465 119.991L84.9441 120.029L84.9425 120.068L84.9404 120.107L84.9392 120.146L84.9376 120.185L84.9367 120.225L84.9359 120.266L84.9351 120.307L84.9347 120.348V120.389V120.431L84.9351 120.473L84.9359 120.515L84.9367 120.558L84.938 120.601L84.9392 120.644L84.9408 120.687L84.9425 120.73L84.9449 120.774L84.947 120.818L84.9498 120.862L84.9527 120.906L84.9555 120.951L84.9592 120.995L84.9625 121.04L84.9666 121.085L84.9706 121.13L84.9751 121.176L84.9796 121.221L84.9845 121.267L84.9899 121.313L84.9952 121.359L85.0009 121.405L85.0066 121.448L85.0197 121.545L85.0332 121.639L85.0479 121.734L85.0638 121.829L85.0806 121.925L85.0985 122.022L85.1173 122.119L85.1374 122.216L85.1582 122.314L85.1803 122.413L85.2031 122.512L85.2273 122.611L85.2522 122.711L85.2783 122.812L85.3053 122.912L85.3335 123.013L85.3625 123.115L85.3927 123.216L85.4238 123.318L85.4561 123.421L85.4892 123.523L85.5231 123.626L85.5582 123.729L85.5942 123.832L85.6314 123.936L85.6694 124.039L85.7082 124.143L85.7482 124.247L85.7891 124.351L85.8308 124.455L85.8737 124.559L85.9174 124.663L85.9619 124.767L86.0073 124.872L86.0535 124.976L86.1009 125.08L86.1491 125.184L86.1981 125.288L86.2479 125.392L86.2986 125.496L86.3501 125.599L86.4024 125.703L86.4559 125.806L86.5099 125.909L86.5646 126.012L86.6206 126.115L86.677 126.218L86.7342 126.32L86.7922 126.422L86.8511 126.524L86.9107 126.625L86.9712 126.726L87.0321 126.827L87.0938 126.927L87.1563 127.027L87.2196 127.127L87.2838 127.226L87.3483 127.325L87.4137 127.423L87.4795 127.521L87.5461 127.619L87.6135 127.716L87.6813 127.812L87.75 127.908L87.819 128.003L87.8885 128.098L87.9588 128.192L88.0299 128.286L88.1014 128.379L88.1733 128.471L88.246 128.563L88.3188 128.654L88.3923 128.745L88.4667 128.834L88.5414 128.924L88.6162 129.012L88.6918 129.099L88.7678 129.186L88.8442 129.272L88.921 129.358L88.9987 129.442L89.0763 129.526L89.1544 129.608L89.2328 129.69L89.3117 129.772L89.3905 129.852L89.4702 129.931L89.5499 130.01L89.63 130.087L89.7105 130.164L89.7914 130.24L89.8723 130.315L89.9536 130.388L90.0349 130.461L90.1166 130.533L90.1983 130.604L90.2805 130.674L90.3626 130.742L90.4451 130.81L90.5277 130.877L90.6102 130.942L90.6932 131.007L90.7757 131.07L90.8587 131.132L90.942 131.194L91.025 131.254L91.1079 131.313L91.1913 131.37L91.2738 131.427L91.3571 131.482L91.443 131.539L91.4818 131.564L91.523 131.59L91.5647 131.616L91.606 131.642L91.6473 131.667L91.6889 131.693L91.7302 131.718L91.7715 131.742L91.8127 131.767L91.8544 131.791L91.8953 131.814L91.9361 131.837L91.977 131.86L92.0175 131.883L92.0579 131.905L92.0979 131.927L92.138 131.948L92.1776 131.969L92.2173 131.989L92.2565 132.009L92.2957 132.029L92.3345 132.049L92.3733 132.068L92.4118 132.087L92.4498 132.105L92.4878 132.123L92.5262 132.14L92.5634 132.158L92.6009 132.174L92.6377 132.191L92.6745 132.207L92.7109 132.223L92.7476 132.238L92.784 132.253L92.8195 132.268L92.8551 132.282L92.8906 132.296L92.9258 132.31L92.9609 132.323L92.9957 132.336L93.0296 132.349L93.0639 132.361L93.0982 132.373L93.1317 132.385L93.1652 132.396L93.1979 132.407L93.2306 132.417L93.2637 132.428L93.2956 132.438L93.3279 132.447L93.3597 132.457L93.3912 132.466L93.4222 132.475L93.4533 132.483L93.4843 132.491L93.5142 132.499L93.5444 132.507L93.5742 132.514L93.6037 132.521L93.6331 132.528L93.6621 132.534L93.6907 132.54L93.7189 132.546L93.7467 132.552L93.7745 132.557L93.8022 132.562L93.8292 132.567L93.8562 132.572L93.8831 132.576L93.9093 132.58L93.9346 132.584L93.9604 132.587L93.9865 132.591L94.011 132.594L94.0356 132.597L94.0605 132.599L94.0846 132.602L94.1087 132.604L94.132 132.606L94.1553 132.608L94.1786 132.609L94.2006 132.611L94.2231 132.612L94.2456 132.613L94.2668 132.613L94.2881 132.614L94.3093 132.614L94.3302 132.615L94.3506 132.615L94.371 132.614L94.3914 132.614L94.4107 132.614L94.4299 132.613L94.4487 132.612L94.4675 132.611L94.4858 132.61L94.5046 132.609L94.5226 132.608L94.5398 132.606L94.5573 132.605L94.5741 132.603L94.5904 132.601L94.6076 132.599L94.6239 132.597L94.6391 132.595L94.655 132.592L94.6705 132.59L94.6856 132.587L94.7008 132.585L94.7151 132.582L94.729 132.579L94.7433 132.576L94.7576 132.573L94.7706 132.57L94.7841 132.567L94.7976 132.563L94.8099 132.56L94.8229 132.557L94.8356 132.553L94.8479 132.55L94.8593 132.546L94.8712 132.543L94.8834 132.539L94.8953 132.535L94.9063 132.531L94.9169 132.527L94.9279 132.523L94.9386 132.519L94.9492 132.515L94.9598 132.511L94.9696 132.507L94.9798 132.502L94.9896 132.498L94.9995 132.493L95.0093 132.489L95.0187 132.485L95.0281 132.48L95.0375 132.475L95.0464 132.471L95.0554 132.466L95.0648 132.461L95.0734 132.456L95.0816 132.451L95.0906 132.446L95.0992 132.441L95.1077 132.436L95.1159 132.431L95.1245 132.426L95.1331 132.42L95.1408 132.415L95.149 132.409L95.1572 132.404L95.1649 132.398L95.1735 132.392L95.1813 132.386L95.1895 132.38L95.1972 132.374L95.205 132.367L95.2132 132.361L95.2213 132.354L95.2291 132.348L95.2369 132.341L95.2446 132.334L95.2528 132.327L95.2606 132.32L95.2683 132.312L95.2765 132.305L95.2843 132.297L95.292 132.289L95.3002 132.281L95.308 132.273L95.3157 132.264L95.3239 132.256L95.3321 132.247L95.3398 132.238L95.348 132.229L95.3562 132.219L95.3643 132.21L95.3721 132.2L95.3803 132.19L95.3884 132.179L95.3966 132.169L95.4052 132.158L95.4134 132.147L95.4215 132.136L95.4297 132.124L95.4379 132.112L95.4465 132.1L95.4546 132.088L95.4628 132.075L95.4714 132.062L95.48 132.048L95.4881 132.035L95.4967 132.021L95.5049 132.007L95.5131 131.993L95.5217 131.978L95.5302 131.962L95.5388 131.947L95.547 131.931L95.5552 131.915L95.5637 131.899L95.5719 131.882L95.5805 131.864L95.5887 131.847L95.5968 131.83L95.6054 131.811L95.6136 131.793L95.6218 131.774L95.6299 131.755L95.6381 131.735L95.6463 131.715L95.6544 131.695L95.6622 131.674L95.6704 131.653L95.6781 131.631L95.6859 131.609L95.6937 131.587L95.7014 131.565L95.7092 131.541L95.7166 131.518L95.7243 131.494L95.7317 131.47L95.7386 131.446L95.746 131.42L95.7529 131.395L95.7599 131.369L95.7668 131.343L95.7738 131.317L95.7803 131.289L95.7868 131.262L95.7934 131.234L95.7995 131.206L95.806 131.178L95.8118 131.149L95.8179 131.119L95.8236 131.089L95.8293 131.059L95.8346 131.028L95.84 130.997L95.8453 130.966L95.8502 130.934L95.8551 130.902L95.8596 130.869L95.8641 130.836L95.8686 130.802L95.8726 130.769L95.8767 130.734L95.8804 130.7L95.8841 130.664L95.8874 130.629L95.8906 130.593L95.8935 130.557L95.8963 130.52L95.8992 130.483L95.9017 130.445L95.9037 130.407L95.9057 130.369L95.9074 130.33L95.909 130.291L95.9102 130.251L95.9111 130.211L95.9123 130.171L95.9127 130.13L95.9131 130.089V130.048V130.006L95.9127 129.963L95.9119 129.921L95.9111 129.879L95.9102 129.836L95.9086 129.793L95.907 129.75L95.9053 129.706L95.9033 129.663L95.9008 129.619L95.8984 129.575L95.8955 129.531L95.8923 129.486L95.889 129.442L95.8853 129.397L95.8812 129.352L95.8771 129.307L95.8726 129.261L95.8681 129.216L95.8632 129.17L95.8579 129.124L95.8526 129.078L95.8469 129.032L95.8416 128.989L95.8285 128.892L95.8146 128.798L95.7999 128.703L95.784 128.608L95.7672 128.512L95.7497 128.415L95.7304 128.318L95.7108 128.221L95.6896 128.123L95.6679 128.024L95.6446 127.925L95.6205 127.825L95.5956 127.726L95.5695 127.625L95.5425 127.525L95.5143 127.424L95.4853 127.322L95.455 127.22L95.424 127.118L95.3917 127.016L95.3586 126.913L95.3247 126.811L95.2896 126.708L95.2536 126.604L95.2164 126.501L95.1784 126.397L95.1396 126.294L95.0996 126.19L95.0587 126.086L95.017 125.982L94.9741 125.878L94.9308 125.774L94.8863 125.669L94.8405 125.565L94.7943 125.461L94.7469 125.357L94.6991 125.253L94.6501 125.149L94.6002 125.045L94.5492 124.941L94.4977 124.838L94.4454 124.734L94.3923 124.631L94.3379 124.528L94.2832 124.424L94.2272 124.322L94.1708 124.219L94.1136 124.117L94.0556 124.015L93.9967 123.913L93.9371 123.812L93.8766 123.711L93.8157 123.61L93.754 123.509L93.6915 123.409L93.6282 123.31L93.564 123.21L93.4995 123.112L93.4345 123.013L93.3683 122.915L93.3017 122.818L93.2343 122.721L93.1665 122.625L93.0982 122.529L93.0292 122.433L92.9593 122.339L92.889 122.244L92.8179 122.151L92.7464 122.058L92.6745 121.965L92.6022 121.874L92.529 121.783L92.4555 121.692L92.3811 121.602L92.3067 121.513L92.2316 121.425L92.156 121.337L92.08 121.251L92.0036 121.165L91.9267 121.079L91.8495 120.995L91.7719 120.911L91.6938 120.828L91.6154 120.746L91.5365 120.665L91.4573 120.585L91.3776 120.505L91.2979 120.427L91.2178 120.349L91.1373 120.273L91.0568 120.197L90.9755 120.122L90.8946 120.048L90.8129 119.976L90.7312 119.904L90.6494 119.833L90.5673 119.763L90.4852 119.695L90.4026 119.627L90.3201 119.56L90.2376 119.495L90.1546 119.43L90.0721 119.367L89.9891 119.304L89.9062 119.243L89.8232 119.183L89.7399 119.124L89.6569 119.066L89.574 119.01L89.4906 118.954L89.4048 118.898L89.3664 118.873L89.3247 118.847L89.2835 118.821L89.2418 118.795L89.2005 118.769L89.1589 118.744L89.1176 118.719L89.0763 118.695L89.035 118.67L88.9938 118.646L88.9525 118.623L88.9116 118.599L88.8712 118.577L88.8303 118.554L88.7903 118.532L88.7498 118.51L88.7098 118.489L88.6702 118.468L88.6305 118.447L88.5917 118.427L88.5521 118.407L88.5133 118.388L88.4744 118.369L88.436 118.35L88.3976 118.332L88.3596 118.314L88.3224 118.297L88.2848 118.279L88.2473 118.262L88.2101 118.246L88.1733 118.23L88.1365 118.214L88.1002 118.199L88.0642 118.184L88.0282 118.169L87.9927 118.155L87.9571 118.141L87.922 118.127L87.8869 118.114L87.8521 118.101L87.8182 118.088L87.7835 118.076L87.7496 118.064L87.7165 118.052L87.683 118.041L87.6499 118.03L87.6172 118.019L87.5841 118.009L87.5522 117.999L87.5199 117.989L87.4881 117.98L87.4566 117.971L87.426 117.962L87.3949 117.954L87.3634 117.945L87.3336 117.938L87.3038 117.93L87.2731 117.923L87.2441 117.916L87.2151 117.909L87.1857 117.903L87.1575 117.896L87.1293 117.891L87.1007 117.885L87.0733 117.88L87.046 117.875L87.0186 117.87L86.9916 117.865L86.9651 117.861L86.9385 117.857L86.9132 117.853L86.8874 117.849L86.8613 117.846L86.8363 117.843L86.8122 117.84L86.7877 117.837L86.7632 117.835L86.7391 117.833L86.7158 117.831L86.6925 117.829L86.6696 117.828L86.6472 117.826L86.6247 117.825L86.6026 117.824L86.581 117.823L86.5597 117.823L86.5385 117.822L86.5176 117.822L86.4972 117.822L86.4768 117.822Z" fill="#414B4E"/>
<path fill-rule="evenodd" clip-rule="evenodd" d="M90.4237 118.38C93.9042 120.393 96.7301 125.092 96.7301 128.866C96.7301 132.64 93.9042 134.07 90.4237 132.057C86.9432 130.044 84.1172 125.345 84.1172 121.571C84.1172 117.797 86.9432 116.367 90.4237 118.38Z" fill="#85939A"/>
<path fill-rule="evenodd" clip-rule="evenodd" d="M90.4236 121.039C92.5512 122.269 94.2784 125.141 94.2784 127.448C94.2784 129.755 92.5512 130.629 90.4236 129.398C88.296 128.168 86.5688 125.296 86.5688 122.989C86.5688 120.682 88.296 119.808 90.4236 121.039Z" fill="#9BB6BD"/>
<path fill-rule="evenodd" clip-rule="evenodd" d="M90.4235 122.811C91.649 123.519 92.6439 125.174 92.6439 126.503C92.6439 127.831 91.649 128.335 90.4235 127.626C89.1981 126.917 88.2032 125.263 88.2032 123.934C88.2032 122.605 89.1981 122.102 90.4235 122.811Z" fill="#BECED5"/>
<path fill-rule="evenodd" clip-rule="evenodd" d="M24.1047 93.9443C27.8993 92.8649 29.879 90.6697 29.879 90.6697C29.879 90.6697 32.1442 86.1338 28.6532 78.3896C25.1622 70.6458 20.0407 71.1853 19.024 71.4309C18.0073 71.6769 13.9753 72.435 11.9004 75.1149C9.82541 77.7953 20.2961 95.0283 24.1047 93.9443Z" fill="#3A434A"/>
<path fill-rule="evenodd" clip-rule="evenodd" d="M19.0242 74.7886C23.6324 77.4538 27.3736 83.6745 27.3736 88.6712C27.3736 93.6684 23.6324 95.5612 19.0242 92.896C14.416 90.2304 10.6747 84.0097 10.6747 79.013C10.6747 74.0162 14.416 72.1235 19.0242 74.7886Z" fill="#85939A"/>
<path fill-rule="evenodd" clip-rule="evenodd" d="M15.1347 73.5806L15.1795 73.581L15.2244 73.5818L15.2695 73.583L15.3148 73.5847L15.3601 73.5867L15.4057 73.5888L15.4514 73.5916L15.4972 73.5949L15.5433 73.5982L15.5894 73.6023L15.6357 73.6064L15.6821 73.6109L15.7288 73.6162L15.7755 73.6215L15.8224 73.6272L15.8694 73.6334L15.9166 73.6399L15.9639 73.6469L16.0114 73.6542L16.059 73.662L16.1067 73.6702L16.1546 73.6784L16.2026 73.6874L16.2508 73.6968L16.2991 73.7062L16.3475 73.7165L16.396 73.7267L16.4447 73.7378L16.4935 73.7488L16.5425 73.7603L16.5915 73.7725L16.6407 73.7848L16.69 73.7975L16.7395 73.8106L16.7891 73.8245L16.8388 73.8384L16.8886 73.8528L16.9386 73.8675L16.9886 73.8827L17.0388 73.8982L17.0891 73.9142L17.1395 73.9305L17.1901 73.9473L17.2407 73.9645L17.2915 73.9817L17.3423 73.9997L17.3933 74.0181L17.4445 74.037L17.4957 74.0562L17.547 74.0755L17.5984 74.0955L17.6499 74.116L17.7016 74.1369L17.7534 74.1577L17.8052 74.1794L17.8571 74.2015L17.9092 74.2236L17.9614 74.2466L18.0136 74.2699L18.066 74.2932L18.1184 74.3174L18.171 74.3419L18.2237 74.3665L18.2764 74.3919L18.3292 74.4177L18.3822 74.4434L18.4352 74.4701L18.4883 74.4971L18.5415 74.5241L18.5948 74.5519L18.6482 74.5802L18.7016 74.6084L18.7552 74.6375L18.8088 74.6669L18.8625 74.6968L18.9163 74.7267L18.9702 74.7574L19.0242 74.7885L19.0781 74.82L19.132 74.8516L19.1858 74.8835L19.2395 74.9158L19.2932 74.9486L19.3467 74.9817L19.4002 75.0149L19.4536 75.0484L19.5068 75.0824L19.56 75.1168L19.6662 75.1864L19.7719 75.2568L19.8774 75.3288L19.9824 75.4017L20.087 75.4758L20.1912 75.5515L20.295 75.6281L20.3984 75.7054L20.5014 75.7844L20.6039 75.8642L20.706 75.9453L20.8076 76.0276L20.9089 76.1107L21.0096 76.1946L21.1098 76.2801L21.2096 76.3661L21.3089 76.4537L21.4076 76.5417L21.5059 76.6313L21.6037 76.7214L21.7009 76.8127L21.7976 76.9048L21.8938 76.9981L21.9894 77.0918L22.0844 77.1868L22.179 77.2826L22.2729 77.3796L22.3662 77.477L22.459 77.5753L22.5511 77.6747L22.6427 77.7746L22.7336 77.8757L22.8239 77.9772L22.9136 78.0796L23.0027 78.1831L23.0911 78.2871L23.1788 78.3915L23.2659 78.4971L23.3523 78.6031L23.438 78.7104L23.5231 78.8176L23.6074 78.9261L23.6911 79.035L23.774 79.1442L23.8562 79.2544L23.9377 79.3653L24.0185 79.4766L24.0985 79.5888L24.1777 79.7013L24.2562 79.8143L24.3339 79.9281L24.4109 80.0423L24.487 80.1569L24.5624 80.2724L24.637 80.3878L24.7107 80.5041L24.7836 80.6207L24.8557 80.7378L24.927 80.8557L24.9974 80.9736L25.067 81.0919L25.1357 81.211L25.2035 81.3301L25.2705 81.4496L25.3366 81.5696L25.4018 81.6899L25.4661 81.8102L25.5294 81.9314L25.5919 82.0526L25.6534 82.1741L25.714 82.2957L25.7737 82.4181L25.8324 82.5401L25.8901 82.6629L25.9469 82.7857L26.0027 82.9085L26.0575 83.0317L26.1113 83.1549L26.1642 83.2785L26.216 83.4021L26.2668 83.5262L26.3165 83.6498L26.3653 83.7742L26.413 83.8983L26.4597 84.0223L26.5053 84.1467L26.5498 84.2712L26.5932 84.3956L26.6356 84.52L26.6769 84.6445L26.7171 84.7689L26.7562 84.8934L26.7941 85.0178L26.831 85.1422L26.8667 85.2663L26.9013 85.3907L26.9347 85.5147L26.9669 85.6392L26.998 85.7628L27.028 85.8868L27.0567 86.0104L27.0843 86.134L27.1106 86.2577L27.1357 86.3809L27.1597 86.5041L27.1824 86.6269L27.2039 86.7493L27.2241 86.8717L27.2431 86.9941L27.2609 87.116L27.2774 87.2376L27.2851 87.2982L27.2926 87.3588L27.2997 87.4194L27.3065 87.4799L27.313 87.5405L27.3192 87.6007L27.325 87.6609L27.3305 87.721L27.3357 87.7812L27.3405 87.8414L27.3451 87.9011L27.3493 87.9609L27.3532 88.0207L27.3567 88.0804L27.3599 88.1398L27.3628 88.1995L27.3653 88.2589L27.3675 88.3178L27.3694 88.3772L27.3709 88.4361L27.3721 88.4951L27.373 88.554L27.3735 88.6126L27.3736 88.6711L27.3735 88.7296L27.373 88.7878L27.3721 88.8455L27.3709 88.9032L27.3694 88.9605L27.3675 89.0174L27.3653 89.0743L27.3628 89.1304L27.3599 89.1869L27.3567 89.2425L27.3532 89.2982L27.3493 89.3535L27.3451 89.4083L27.3405 89.4628L27.3357 89.5172L27.3305 89.5712L27.325 89.6253L27.3192 89.6789L27.313 89.7321L27.3065 89.7849L27.2997 89.8373L27.2926 89.8897L27.2851 89.9417L27.2774 89.9937L27.2693 90.0448L27.2609 90.096L27.2522 90.1472L27.2431 90.1975L27.2338 90.2479L27.2241 90.2978L27.2142 90.3473L27.2039 90.3969L27.1933 90.4456L27.1824 90.4947L27.1712 90.543L27.1597 90.5913L27.1479 90.6388L27.1357 90.6867L27.1233 90.7337L27.1106 90.7808L27.0976 90.8271L27.0843 90.8737L27.0706 90.9196L27.0567 90.9654L27.0425 91.0109L27.028 91.0559L27.0131 91.1005L26.998 91.1451L26.9826 91.1893L26.9669 91.2331L26.9509 91.2765L26.9347 91.3199L26.9181 91.3629L26.9013 91.4055L26.8841 91.4476L26.8667 91.4898L26.8489 91.5311L26.831 91.5725L26.8127 91.6138L26.7941 91.6543L26.7753 91.6949L26.7562 91.735L26.7367 91.7747L26.7171 91.814L26.6971 91.8533L26.6769 91.8922L26.6564 91.9306L26.6356 91.9687L26.6146 92.0068L26.5932 92.0444L26.5716 92.0817L26.5498 92.1185L26.5277 92.155L26.5053 92.1914L26.4826 92.227L26.4597 92.2626L26.4365 92.2982L26.413 92.333L26.3893 92.3678L26.3653 92.4022L26.3411 92.4362L26.3165 92.4697L26.2918 92.5029L26.2668 92.536L26.2415 92.5688L26.216 92.6011L26.1902 92.6331L26.1642 92.665L26.1379 92.6961L26.1113 92.7272L26.0845 92.7579L26.0575 92.7882L26.0302 92.8185L26.0027 92.848L25.9749 92.8774L25.9469 92.9065L25.9186 92.9351L25.8901 92.9638L25.8614 92.9916L25.8324 93.0195L25.8031 93.0469L25.7737 93.0739L25.744 93.1005L25.714 93.1267L25.6838 93.1529L25.6534 93.1787L25.6228 93.2037L25.5919 93.229L25.5608 93.2536L25.5294 93.2778L25.4979 93.3019L25.4661 93.3257L25.434 93.3486L25.4018 93.3719L25.3693 93.3944L25.3366 93.4165L25.3036 93.4386L25.2705 93.4599L25.2371 93.4812L25.2035 93.5021L25.1697 93.5225L25.1357 93.543L25.1015 93.5627L25.067 93.5823L25.0323 93.6015L24.9974 93.6204L24.9623 93.6388L24.927 93.6568L24.8915 93.6744L24.8557 93.692L24.8198 93.7088L24.7836 93.7256L24.7473 93.7419L24.7107 93.7579L24.6739 93.7735L24.637 93.789L24.5998 93.8038L24.5624 93.8185L24.5248 93.8324L24.487 93.8463L24.449 93.8598L24.4109 93.8729L24.3725 93.886L24.3339 93.8983L24.2952 93.9102L24.2562 93.9221L24.2171 93.9335L24.1777 93.9442L24.1382 93.9548L24.0985 93.965L24.0586 93.9753L24.0185 93.9847L23.9782 93.9937L23.9377 94.0027L23.8971 94.0113L23.8562 94.0191L23.8152 94.0268L23.774 94.0342L23.7326 94.0412L23.6911 94.0477L23.6494 94.0543L23.6074 94.06L23.5654 94.0653L23.5231 94.0706L23.4807 94.0756L23.438 94.0796L23.3953 94.0837L23.3523 94.0874L23.3092 94.0907L23.2659 94.0936L23.2225 94.0964L23.1788 94.0985L23.135 94.1001L23.0911 94.1017L23.047 94.1026L23.0027 94.1034L22.9582 94.1038L22.9136 94.1034L22.8688 94.103L22.8239 94.1022L22.7788 94.1009L22.7336 94.0993L22.6882 94.0977L22.6427 94.0952L22.597 94.0923L22.5511 94.0895L22.5051 94.0858L22.459 94.0821L22.4127 94.0776L22.3662 94.0731L22.3196 94.0682L22.2729 94.0629L22.226 94.0567L22.179 94.0506L22.1318 94.044L22.0844 94.0371L22.037 94.0301L21.9894 94.0223L21.9416 94.0142L21.8938 94.0056L21.8457 93.997L21.7976 93.9875L21.7493 93.9777L21.7009 93.9679L21.6524 93.9573L21.6037 93.9466L21.5549 93.9351L21.5059 93.9237L21.4568 93.9118L21.4076 93.8995L21.3583 93.8864L21.3089 93.8733L21.2593 93.8598L21.2096 93.8459L21.1598 93.8316L21.1098 93.8169L21.0598 93.8017L21.0096 93.7862L20.9593 93.7702L20.9089 93.7538L20.8583 93.737L20.8076 93.7198L20.7569 93.7022L20.706 93.6842L20.655 93.6658L20.6039 93.6474L20.5527 93.6281L20.5014 93.6085L20.4499 93.5884L20.3984 93.5684L20.3468 93.5475L20.295 93.5262L20.2432 93.5045L20.1912 93.4828L20.1391 93.4603L20.087 93.4374L20.0347 93.4145L19.9824 93.3907L19.9299 93.3666L19.8774 93.3424L19.8247 93.3175L19.7719 93.2921L19.7191 93.2667L19.6662 93.2405L19.6132 93.2143L19.56 93.1873L19.5068 93.1599L19.4536 93.132L19.4002 93.1042L19.3467 93.0755L19.2932 93.0465L19.2395 93.0174L19.1858 92.9875L19.132 92.9572L19.0781 92.9265L19.0242 92.8958L18.9702 92.8643L18.9163 92.8324L18.8625 92.8005L18.8088 92.7681L18.7552 92.7354L18.7016 92.7026L18.6482 92.6691L18.5948 92.6355L18.5415 92.6015L18.4883 92.5672L18.3822 92.498L18.2764 92.4272L18.171 92.3555L18.066 92.2823L17.9614 92.2082L17.8571 92.1328L17.7534 92.0563L17.6499 91.9785L17.547 91.8999L17.4445 91.8197L17.3423 91.7387L17.2407 91.6568L17.1395 91.5737L17.0388 91.4894L16.9386 91.4042L16.8388 91.3179L16.7395 91.2307L16.6407 91.1423L16.5425 91.053L16.4447 90.9626L16.3475 90.8713L16.2508 90.7792L16.1546 90.6863L16.059 90.5921L15.9639 90.4971L15.8694 90.4014L15.7755 90.3048L15.6821 90.2073L15.5894 90.1087L15.4972 90.0096L15.4057 89.9093L15.3148 89.8086L15.2244 89.7067L15.1347 89.6044L15.0457 89.5012L14.9573 89.3973L14.8695 89.2925L14.7825 89.1869L14.6961 89.0808L14.6103 88.974L14.5253 88.8664L14.4409 88.7583L14.3573 88.6494L14.2743 88.5397L14.1921 88.4296L14.1106 88.3187L14.0299 88.2073L13.9499 88.0956L13.8706 87.983L13.7921 87.8696L13.7144 87.7562L13.6375 87.642L13.5613 87.527L13.486 87.412L13.4114 87.2961L13.3376 87.1799L13.2647 87.0632L13.1926 86.9462L13.1214 86.8287L13.0509 86.7104L12.9814 86.5921L12.9127 86.4734L12.8448 86.3543L12.7779 86.2347L12.7118 86.1148L12.6466 85.9945L12.5823 85.8737L12.5189 85.753L12.4565 85.6318L12.395 85.5102L12.3344 85.3882L12.2747 85.2663L12.216 85.1439L12.1582 85.0215L12.1015 84.8987L12.0457 84.7755L11.9908 84.6523L11.937 84.529L11.8842 84.4054L11.8324 84.2818L11.7816 84.1582L11.7318 84.0342L11.6831 83.9101L11.6354 83.7861L11.5887 83.6617L11.5431 83.5372L11.4986 83.4132L11.4551 83.2888L11.4127 83.1643L11.3715 83.0399L11.3313 82.9154L11.2922 82.791L11.2542 82.6666L11.2174 82.5421L11.1817 82.4177L11.1471 82.2933L11.1137 82.1692L11.0814 82.0452L11.0504 81.9212L11.0204 81.7971L10.9917 81.6735L10.9641 81.5499L10.9377 81.4267L10.9126 81.3035L10.8887 81.1803L10.866 81.0575L10.8445 80.9347L10.8242 80.8123L10.8052 80.6903L10.7875 80.5683L10.771 80.4467L10.7632 80.3858L10.7557 80.3252L10.7486 80.2646L10.7418 80.204L10.7354 80.1438L10.7292 80.0833L10.7233 80.0231L10.7178 79.9629L10.7126 79.9027L10.7078 79.843L10.7033 79.7828L10.6991 79.723L10.6952 79.6633L10.6916 79.6039L10.6885 79.5442L10.6856 79.4848L10.683 79.4255L10.6808 79.3661L10.679 79.3072L10.6774 79.2478L10.6762 79.1889L10.6754 79.1303L10.6749 79.0714L10.6747 79.0128L10.6749 78.9543L10.6754 78.8962L10.6762 78.8385L10.6774 78.7808L10.679 78.7239L10.6808 78.6666L10.683 78.6101L10.6856 78.5536L10.6885 78.4975L10.6916 78.4414L10.6952 78.3862L10.6991 78.3309L10.7033 78.276L10.7078 78.2212L10.7126 78.1668L10.7178 78.1127L10.7233 78.0591L10.7292 78.0055L10.7354 77.9523L10.7418 77.8995L10.7486 77.8467L10.7557 77.7943L10.7632 77.7423L10.771 77.6907L10.7791 77.6391L10.7875 77.588L10.7962 77.5372L10.8052 77.4864L10.8145 77.4365L10.8242 77.3866L10.8342 77.3366L10.8445 77.2875L10.855 77.2384L10.866 77.1897L10.8771 77.1414L10.8887 77.0931L10.9005 77.0452L10.9126 76.9977L10.925 76.9506L10.9377 76.9035L10.9508 76.8569L10.9641 76.8106L10.9777 76.7644L10.9917 76.7189L11.0059 76.6735L11.0204 76.6285L11.0352 76.5834L11.0504 76.5392L11.0658 76.495L11.0814 76.4512L11.0974 76.4074L11.1137 76.3645L11.1303 76.3215L11.1471 76.2789L11.1643 76.2363L11.1817 76.1946L11.1994 76.1528L11.2174 76.1115L11.2357 76.0705L11.2542 76.0296L11.2731 75.9895L11.2922 75.9494L11.3116 75.9093L11.3313 75.87L11.3513 75.8307L11.3715 75.7922L11.3919 75.7533L11.4127 75.7152L11.4338 75.6776L11.4551 75.6399L11.4767 75.6027L11.4986 75.5658L11.5207 75.529L11.5431 75.493L11.5658 75.457L11.5887 75.4213L11.6119 75.3861L11.6354 75.3509L11.6591 75.3166L11.6831 75.2822L11.7073 75.2482L11.7318 75.2146L11.7565 75.1811L11.7816 75.1479L11.8068 75.1156L11.8324 75.0832L11.8582 75.0509L11.8842 75.0194L11.9105 74.9879L11.937 74.9568L11.9638 74.926L11.9908 74.8958L12.0181 74.8659L12.0457 74.836L12.0735 74.8065L12.1015 74.7775L12.1297 74.7488L12.1582 74.7206L12.187 74.6923L12.216 74.6649L12.2452 74.6375L12.2747 74.6105L12.3044 74.5838L12.3344 74.5572L12.3646 74.5315L12.395 74.5057L12.4256 74.4803L12.4565 74.4553L12.4876 74.4308L12.5189 74.4062L12.5505 74.3825L12.5823 74.3587L12.6143 74.3354L12.6466 74.3125L12.6791 74.2899L12.7118 74.2674L12.7447 74.2457L12.7779 74.224L12.8112 74.2028L12.8448 74.1819L12.8786 74.1614L12.9127 74.1414L12.9469 74.1213L12.9814 74.1021L13.016 74.0828L13.0509 74.064L13.0861 74.0456L13.1214 74.0276L13.1569 74.0095L13.1926 73.9924L13.2286 73.9752L13.2647 73.9584L13.3011 73.942L13.3376 73.926L13.3744 73.9105L13.4114 73.8953L13.4486 73.8802L13.486 73.8659L13.5236 73.8515L13.5613 73.8376L13.5993 73.8241L13.6375 73.811L13.6758 73.7983L13.7144 73.7861L13.7532 73.7738L13.7921 73.7623L13.8313 73.7508L13.8706 73.7398L13.9101 73.7292L13.9499 73.7189L13.9898 73.7091L14.0299 73.6997L14.0702 73.6903L14.1106 73.6817L14.1513 73.6731L14.1921 73.6649L14.2331 73.6571L14.2743 73.6497L14.3157 73.6428L14.3573 73.6362L14.399 73.6301L14.4409 73.6244L14.483 73.6186L14.5253 73.6137L14.5677 73.6088L14.6103 73.6043L14.6531 73.6002L14.6961 73.5965L14.7392 73.5933L14.7825 73.5904L14.8259 73.5879L14.8695 73.5859L14.9133 73.5838L14.9573 73.5826L15.0014 73.5814L15.0457 73.581L15.0902 73.5806H15.1347ZM15.0767 76.4459L15.0569 76.4463L15.0374 76.4467L15.018 76.4476L14.9989 76.4484L14.9804 76.4492L14.9619 76.45L14.9435 76.4512L14.9257 76.4529L14.9082 76.4541L14.8908 76.4557L14.874 76.4578L14.8572 76.4594L14.8407 76.4615L14.8245 76.4635L14.8086 76.466L14.793 76.468L14.7775 76.4709L14.7623 76.4733L14.7476 76.4758L14.7329 76.4787L14.7186 76.4815L14.7045 76.4844L14.6907 76.4873L14.6772 76.4905L14.6636 76.4938L14.6506 76.4971L14.6377 76.5004L14.6249 76.5036L14.6124 76.5073L14.6002 76.5106L14.5879 76.5143L14.5762 76.518L14.5647 76.5216L14.5532 76.5257L14.5421 76.5294L14.531 76.5335L14.5198 76.5376L14.5092 76.5417L14.4989 76.5454L14.4884 76.5499L14.4781 76.554L14.4682 76.5581L14.4582 76.5626L14.4485 76.5671L14.4388 76.5716L14.4293 76.5757L14.4198 76.5806L14.4107 76.5851L14.4016 76.5896L14.3923 76.5945L14.3836 76.5994L14.3747 76.6043L14.3658 76.6092L14.3574 76.6142L14.3489 76.6191L14.3403 76.6244L14.3318 76.6297L14.3234 76.635L14.3153 76.6404L14.3071 76.6457L14.2988 76.6514L14.2906 76.6571L14.2826 76.6629L14.2747 76.6686L14.2666 76.6747L14.2586 76.6805L14.2506 76.687L14.2427 76.6932L14.2348 76.6997L14.2268 76.7063L14.2189 76.7128L14.2111 76.7194L14.2032 76.7263L14.1953 76.7337L14.1874 76.7406L14.1795 76.748L14.1716 76.7558L14.1638 76.7636L14.1559 76.7713L14.1479 76.7791L14.1398 76.7877L14.132 76.7959L14.124 76.8045L14.116 76.8135L14.108 76.8225L14.0999 76.8319L14.0919 76.8409L14.0838 76.8508L14.0757 76.8606L14.0676 76.8708L14.0593 76.881L14.0511 76.8917L14.0429 76.9027L14.0348 76.9134L14.0266 76.9248L14.0183 76.9367L14.0098 76.9486L14.0016 76.9605L13.9933 76.9727L13.9849 76.9858L13.9766 76.9985L13.9682 77.012L13.9598 77.0255L13.9514 77.0395L13.943 77.0538L13.9346 77.0681L13.9262 77.0828L13.9177 77.098L13.9094 77.1135L13.901 77.1291L13.8926 77.1455L13.8842 77.1618L13.8758 77.1786L13.8675 77.1958L13.8592 77.213L13.8508 77.231L13.8425 77.2494L13.8343 77.2679L13.8261 77.2867L13.8179 77.3059L13.8097 77.3256L13.8016 77.3456L13.7935 77.3661L13.7856 77.3866L13.7776 77.4079L13.7697 77.4291L13.7619 77.4512L13.7541 77.4734L13.7464 77.4959L13.7388 77.5192L13.7313 77.5425L13.7239 77.5663L13.7165 77.5904L13.7091 77.615L13.702 77.64L13.6949 77.6653L13.6879 77.6911L13.681 77.7173L13.6742 77.7439L13.6675 77.7709L13.661 77.7984L13.6546 77.8262L13.6483 77.8544L13.6421 77.8831L13.636 77.9118L13.6302 77.9412L13.6244 77.9711L13.6188 78.0014L13.6133 78.0321L13.608 78.0632L13.6028 78.0947L13.5978 78.1262L13.5929 78.1586L13.5883 78.1913L13.5837 78.2245L13.5794 78.258L13.5753 78.2916L13.5713 78.326L13.5675 78.3608L13.5639 78.396L13.5605 78.4316L13.5573 78.4676L13.5543 78.5036L13.5515 78.5405L13.5489 78.5777L13.5465 78.6154L13.5443 78.6531L13.5423 78.6915L13.5406 78.7304L13.5391 78.7693L13.5378 78.809L13.5367 78.8491L13.5359 78.8892L13.5353 78.9302L13.5349 78.9711L13.5348 79.0129L13.5349 79.055L13.5353 79.0968L13.5359 79.1393L13.5368 79.1819L13.5379 79.2245L13.5392 79.2675L13.5408 79.3109L13.5427 79.3542L13.5448 79.3976L13.5471 79.4414L13.5497 79.4856L13.5526 79.5299L13.5558 79.5741L13.5591 79.6187L13.5627 79.6637L13.5666 79.7087L13.5707 79.7538L13.5752 79.7992L13.5798 79.845L13.5847 79.8905L13.5899 79.9363L13.5953 79.9826L13.601 80.0288L13.6065 80.0718L13.6196 80.1688L13.6333 80.263L13.6481 80.3575L13.6638 80.4529L13.6806 80.5487L13.6985 80.6453L13.7174 80.7423L13.7373 80.8397L13.7582 80.938L13.7802 81.0366L13.8032 81.1357L13.8272 81.2351L13.8523 81.335L13.8783 81.4353L13.9054 81.536L13.9335 81.6371L13.9627 81.7382L13.9928 81.8401L14.0239 81.9421L14.0561 82.0444L14.0892 82.1471L14.1233 82.2499L14.1584 82.353L14.1944 82.4562L14.2315 82.5597L14.2695 82.6633L14.3084 82.7669L14.3483 82.8708L14.3891 82.9744L14.4309 83.0788L14.4736 83.1828L14.5173 83.2867L14.5618 83.3911L14.6073 83.4951L14.6536 83.5995L14.7009 83.7034L14.749 83.8074L14.798 83.9114L14.8479 84.0153L14.8986 84.1193L14.9502 84.2229L15.0026 84.3264L15.0559 84.43L15.11 84.5331L15.1648 84.6359L15.2206 84.7386L15.277 84.8414L15.3343 84.9437L15.3924 85.0456L15.4512 85.1472L15.5108 85.2487L15.5712 85.3498L15.6322 85.4505L15.694 85.5512L15.7565 85.651L15.8198 85.7509L15.8837 85.85L15.9483 85.9486L16.0136 86.0473L16.0796 86.1451L16.1461 86.2425L16.2134 86.3395L16.2814 86.4357L16.3498 86.5319L16.419 86.6269L16.4887 86.7219L16.559 86.816L16.6299 86.9097L16.7014 87.0027L16.7734 87.0952L16.8459 87.1869L16.919 87.2781L16.9926 87.3682L17.0667 87.4583L17.1413 87.5471L17.2164 87.6355L17.292 87.7231L17.368 87.8099L17.4444 87.8958L17.5212 87.9814L17.5985 88.0657L17.6762 88.1492L17.7543 88.2323L17.8327 88.3142L17.9116 88.3952L17.9908 88.4759L18.0703 88.5549L18.1501 88.6335L18.2302 88.7112L18.3106 88.7878L18.3913 88.8635L18.4723 88.9384L18.5535 89.0121L18.635 89.085L18.7166 89.1566L18.7985 89.2274L18.8806 89.2974L18.9628 89.3662L19.0451 89.4337L19.1277 89.5004L19.2104 89.5659L19.2931 89.6306L19.376 89.694L19.4589 89.7563L19.5419 89.8173L19.6249 89.8774L19.708 89.9364L19.7911 89.9941L19.8742 90.051L19.9572 90.1062L20.0431 90.1623L20.0817 90.1873L20.1232 90.2139L20.1647 90.2397L20.2061 90.2655L20.2474 90.2913L20.2888 90.3162L20.3303 90.3412L20.3716 90.3658L20.4129 90.3903L20.4541 90.4141L20.4953 90.4378L20.5362 90.4611L20.5769 90.4841L20.6176 90.5066L20.658 90.5287L20.6981 90.5504L20.738 90.5717L20.7777 90.5925L20.8172 90.613L20.8567 90.6335L20.8958 90.6531L20.9347 90.6724L20.9734 90.6916L21.0117 90.71L21.0501 90.7284L21.0881 90.7464L21.1258 90.764L21.1634 90.7812L21.2007 90.798L21.2378 90.8144L21.2748 90.8308L21.3113 90.8463L21.3477 90.8619L21.3839 90.8766L21.4196 90.8913L21.4554 90.9057L21.4909 90.92L21.526 90.9335L21.5609 90.9466L21.5956 90.9597L21.63 90.9724L21.6642 90.9847L21.6981 90.9965L21.7316 91.008L21.7652 91.0195L21.7982 91.0305L21.8311 91.0412L21.8637 91.0514L21.896 91.0616L21.928 91.071L21.9596 91.0805L21.991 91.0895L22.0225 91.0985L22.0534 91.1067L22.0839 91.1148L22.1145 91.123L22.1444 91.1304L22.1742 91.1378L22.2039 91.1447L22.233 91.1513L22.2619 91.1578L22.2906 91.164L22.319 91.1701L22.3469 91.1754L22.3747 91.1807L22.4021 91.1861L22.4295 91.191L22.4563 91.1955L22.4828 91.1996L22.5091 91.2037L22.5352 91.2074L22.5609 91.211L22.586 91.2143L22.6113 91.2176L22.6363 91.2205L22.6604 91.2229L22.6846 91.2254L22.7086 91.2274L22.732 91.2295L22.7553 91.2315L22.7782 91.2327L22.801 91.2344L22.8233 91.2352L22.8452 91.2364L22.8671 91.2372L22.8886 91.2376L22.9095 91.2381L22.9303 91.2385H22.9511L22.971 91.2381H22.9909L23.0109 91.2372L23.03 91.2368L23.0489 91.236L23.0679 91.2352L23.0864 91.234L23.1045 91.2327L23.1223 91.2315L23.1398 91.2299L23.1572 91.2282L23.1741 91.2266L23.1909 91.2245L23.2073 91.2225L23.2236 91.2205L23.2394 91.2184L23.255 91.216L23.2705 91.2135L23.2858 91.211L23.3005 91.2082L23.3148 91.2057L23.3295 91.2029L23.3436 91.1996L23.3574 91.1967L23.3711 91.1934L23.3844 91.1906L23.3974 91.1873L23.4104 91.184L23.4231 91.1803L23.4356 91.1771L23.4478 91.1734L23.4598 91.1697L23.4718 91.166L23.4836 91.1623L23.4949 91.1586L23.5059 91.1545L23.517 91.1509L23.5279 91.1468L23.5386 91.1427L23.5493 91.1386L23.5599 91.1345L23.5699 91.13L23.5798 91.1259L23.5898 91.1218L23.5996 91.1173L23.6092 91.1128L23.6187 91.1083L23.6282 91.1038L23.6374 91.0989L23.6464 91.0944L23.6557 91.0895L23.6645 91.085L23.6733 91.08L23.682 91.0751L23.6906 91.0702L23.6993 91.0649L23.7077 91.06L23.7162 91.0547L23.7246 91.0494L23.7328 91.044L23.7409 91.0383L23.7493 91.0326L23.7574 91.0272L23.7654 91.0215L23.7734 91.0158L23.7814 91.0096L23.7894 91.0035L23.7974 90.9974L23.8053 90.9912L23.8133 90.9847L23.8211 90.9781L23.8291 90.9716L23.837 90.9646L23.8448 90.9577L23.8528 90.9507L23.8605 90.9433L23.8683 90.936L23.8765 90.9282L23.8844 90.9208L23.8921 90.913L23.9001 90.9049L23.908 90.8967L23.916 90.8881L23.924 90.8795L23.932 90.8709L23.9401 90.8615L23.9482 90.8525L23.9561 90.843L23.9642 90.8332L23.9723 90.8234L23.9805 90.8136L23.9887 90.8029L23.9968 90.7927L24.0049 90.7816L24.0134 90.7706L24.0216 90.7591L24.0297 90.7477L24.038 90.7358L24.0464 90.7235L24.0548 90.7112L24.0632 90.6985L24.0714 90.6855L24.0798 90.6724L24.0882 90.6584L24.0966 90.6449L24.105 90.6306L24.1134 90.6159L24.1218 90.6011L24.1302 90.586L24.1386 90.5708L24.147 90.5549L24.1555 90.5389L24.1638 90.5221L24.1723 90.5053L24.1805 90.4886L24.1888 90.471L24.1972 90.4529L24.2055 90.4349L24.2138 90.4165L24.222 90.3973L24.2301 90.3785L24.2383 90.3588L24.2464 90.3387L24.2545 90.3183L24.2625 90.2974L24.2704 90.2765L24.2783 90.2548L24.2861 90.2331L24.2939 90.2106L24.3016 90.1881L24.3092 90.1652L24.3167 90.1419L24.3242 90.1177L24.3316 90.0936L24.3388 90.069L24.346 90.044L24.3531 90.0186L24.3602 89.9929L24.367 89.9667L24.3738 89.9401L24.3805 89.913L24.387 89.8856L24.3935 89.8578L24.3998 89.8299L24.4059 89.8013L24.412 89.7722L24.4179 89.7428L24.4237 89.7129L24.4293 89.6826L24.4347 89.6523L24.4401 89.6212L24.4452 89.5897L24.4502 89.5577L24.4551 89.5254L24.4597 89.4927L24.4643 89.4599L24.4686 89.4263L24.4727 89.3924L24.4767 89.358L24.4805 89.3232L24.4841 89.288L24.4875 89.2528L24.4907 89.2168L24.4937 89.1803L24.4966 89.1435L24.4991 89.1066L24.5015 89.069L24.5037 89.0309L24.5057 88.9924L24.5074 88.954L24.5089 88.9147L24.5103 88.875L24.5113 88.8353L24.5122 88.7947L24.5127 88.7542L24.5131 88.7129L24.5132 88.6711L24.5131 88.6294L24.5127 88.5872L24.5121 88.545L24.5113 88.5025L24.5102 88.4595L24.5088 88.4165L24.5072 88.3735L24.5053 88.3301L24.5032 88.2863L24.5009 88.2425L24.4983 88.1987L24.4954 88.1545L24.4923 88.1099L24.4889 88.0653L24.4853 88.0207L24.4814 87.9757L24.4772 87.9302L24.4729 87.8848L24.4682 87.8393L24.4633 87.7935L24.4581 87.7477L24.4527 87.7014L24.447 87.6551L24.4415 87.6126L24.4284 87.5156L24.4147 87.4214L24.4 87.3265L24.3842 87.2311L24.3674 87.1353L24.3495 87.0387L24.3307 86.9421L24.3108 86.8443L24.2898 86.746L24.2679 86.6478L24.2448 86.5487L24.2208 86.4492L24.1957 86.3494L24.1697 86.2491L24.1426 86.1484L24.1144 86.0473L24.0853 85.9458L24.0552 85.8438L24.0241 85.7419L23.992 85.6396L23.9588 85.5372L23.9247 85.4341L23.8896 85.3314L23.8536 85.2282L23.8166 85.1246L23.7786 85.0211L23.7396 84.9175L23.6997 84.8135L23.6589 84.7096L23.6171 84.6056L23.5744 84.5016L23.5307 84.3973L23.4862 84.2933L23.4407 84.1889L23.3944 84.0849L23.3472 83.9805L23.2991 83.8766L23.25 83.7726L23.2001 83.6686L23.1494 83.5651L23.0978 83.4611L23.0454 83.3575L22.9921 83.2544L22.9381 83.1512L22.8832 83.0481L22.8275 82.9453L22.771 82.843L22.7137 82.7407L22.6556 82.6387L22.5968 82.5368L22.5372 82.4353L22.4769 82.3342L22.4158 82.2335L22.354 82.1332L22.2915 82.0329L22.2282 81.9335L22.1643 81.8344L22.0997 81.7353L22.0344 81.6371L21.9684 81.5393L21.9018 81.4419L21.8346 81.3448L21.7667 81.2482L21.6982 81.1525L21.6291 81.0571L21.5593 80.9621L21.489 80.868L21.4181 80.7742L21.3467 80.6813L21.2746 80.5888L21.2021 80.4971L21.129 80.4062L21.0554 80.3158L20.9813 80.2261L20.9067 80.1369L20.8317 80.0489L20.7561 79.9613L20.6801 79.8741L20.6037 79.7881L20.5268 79.703L20.4495 79.6183L20.3718 79.5348L20.2937 79.4521L20.2153 79.3698L20.1364 79.2888L20.0572 79.2085L19.9778 79.1291L19.8979 79.0505L19.8178 78.9732L19.7374 78.8962L19.6567 78.8205L19.5758 78.746L19.4945 78.6723L19.4131 78.5994L19.3314 78.5274L19.2495 78.4566L19.1674 78.387L19.0852 78.3182L19.0029 78.2503L18.9203 78.184L18.8377 78.1181L18.7549 78.0538L18.6721 77.9903L18.5892 77.9281L18.5061 77.8667L18.4231 77.807L18.3401 77.748L18.2569 77.6899L18.1738 77.6334L18.0908 77.5777L18.0048 77.5217L17.9663 77.4967L17.9248 77.4705L17.8834 77.4443L17.842 77.4185L17.8005 77.3931L17.7592 77.3677L17.7179 77.3428L17.6764 77.3182L17.6352 77.2941L17.5939 77.2699L17.5527 77.2462L17.5118 77.2232L17.4709 77.1999L17.4304 77.1778L17.3901 77.1557L17.3499 77.134L17.3101 77.1127L17.2703 77.0914L17.2306 77.071L17.1913 77.0509L17.1524 77.0313L17.1134 77.0116L17.0746 76.9928L17.0363 76.974L16.998 76.9555L16.96 76.9375L16.9222 76.9203L16.8847 76.9031L16.8474 76.8864L16.8102 76.8696L16.7732 76.8536L16.7367 76.8377L16.7003 76.8225L16.6641 76.8074L16.6282 76.7926L16.5926 76.7783L16.5572 76.7644L16.522 76.7509L16.4872 76.7374L16.4524 76.7247L16.4178 76.7116L16.3838 76.6997L16.35 76.6874L16.3164 76.676L16.2831 76.6649L16.2496 76.6535L16.217 76.6432L16.1845 76.6326L16.152 76.6228L16.12 76.6129L16.0884 76.6035L16.0568 76.5945L16.0255 76.5859L15.9947 76.5773L15.9642 76.5691L15.9337 76.5614L15.9036 76.5536L15.8738 76.5466L15.8441 76.5393L15.815 76.5327L15.7861 76.5262L15.7574 76.52L15.729 76.5143L15.7011 76.5086L15.6733 76.5032L15.6456 76.4983L15.6185 76.4934L15.5917 76.4889L15.5653 76.4844L15.5389 76.4803L15.5128 76.4766L15.4874 76.4729L15.4618 76.4697L15.4367 76.4668L15.412 76.4639L15.3874 76.4611L15.3633 76.4586L15.3397 76.4566L15.3161 76.4545L15.2925 76.4529L15.2699 76.4512L15.2472 76.45L15.2247 76.4488L15.2028 76.448L15.1809 76.4472L15.1594 76.4463L15.1385 76.4459H15.1177H15.0969H15.0767Z" fill="#414B4E"/>
<path fill-rule="evenodd" clip-rule="evenodd" d="M19.024 77.0041C22.5046 79.0172 25.3304 83.7155 25.3304 87.49C25.3304 91.2641 22.5046 92.6939 19.024 90.6808C15.5434 88.6677 12.7175 83.9689 12.7175 80.1948C12.7175 76.4208 15.5434 74.991 19.024 77.0041Z" fill="#85939A"/>
<path fill-rule="evenodd" clip-rule="evenodd" d="M19.0241 79.6622C21.1517 80.8927 22.879 83.765 22.879 86.072C22.879 88.3786 21.1517 89.2525 19.0241 88.0221C16.8966 86.7916 15.1693 83.9197 15.1693 81.6127C15.1693 79.3057 16.8966 78.4318 19.0241 79.6622Z" fill="#9BB6BD"/>
<path fill-rule="evenodd" clip-rule="evenodd" d="M19.0241 81.4346C20.2495 82.1431 21.2445 83.7977 21.2445 85.1264C21.2445 86.4551 20.2495 86.9585 19.0241 86.25C17.7986 85.541 16.8036 83.8869 16.8036 82.5578C16.8036 81.2291 17.7986 80.7256 19.0241 81.4346Z" fill="#BECED5"/>
<path fill-rule="evenodd" clip-rule="evenodd" d="M7.29948 64.0964C7.29948 64.0964 6.36966 72.2827 10.9769 75.5578C10.7333 73.7707 12.7541 66.9847 21.6007 74.7391C30.4472 82.4936 29.7728 89.4752 29.7728 89.4752L82.0742 121.813C82.0742 121.813 77.7181 107.488 91.0635 114.035C95.4699 116.197 101.313 125.406 100.461 131.637C102.154 132.45 113.913 135.137 125.386 128.362C136.86 121.586 143.003 118.16 144.182 115.673C144.544 114.658 147.227 112.193 147.042 109.533C146.765 106.056 146.634 104.621 146.634 104.621L101.279 118.129C101.279 118.129 98.2922 113.204 91.8808 110.351C85.4693 107.498 79.7681 106.989 78.8054 114.728C71.9821 110.427 33.4502 87.0192 33.4502 87.0192C33.4502 87.0192 30.9437 74.952 22.0093 70.2365C13.0748 65.5205 14.9213 67.5774 13.02 67.7804C11.1186 67.9835 8.55284 67.1206 7.29948 64.0964Z" fill="#CC374A"/>
<path fill-rule="evenodd" clip-rule="evenodd" d="M147.46 101.346C147.46 101.346 148.796 104.543 147.451 108.305C145.844 110.517 123.034 131.974 102.913 124.269C100.904 123.499 100.3 120.598 98.827 118.538C97.3535 116.478 102.095 115.673 102.095 115.673C102.095 115.673 110.678 127.187 133.558 112.734C141.924 107.45 147.46 101.346 147.46 101.346Z" fill="#BF2F41"/>
<path fill-rule="evenodd" clip-rule="evenodd" d="M101.279 122.631V123.859C101.279 123.859 106.301 126.757 111.902 126.315C117.504 125.874 123.915 125.377 129.881 121.813C135.847 118.248 141.566 115.06 144.182 112.398C146.798 109.736 148.444 108.561 147.959 103.094C147.446 103.213 147.451 103.393 147.451 103.393C147.451 103.393 147.166 107.856 140.505 111.989C133.843 116.121 126.799 120.486 124.978 121.403C123.157 122.32 115.026 125.781 106.182 124.269C104.636 123.953 101.279 122.631 101.279 122.631Z" fill="#CC374A"/>
<path fill-rule="evenodd" clip-rule="evenodd" d="M49.2011 84.8546C49.3159 84.9279 49.3858 85.0552 49.3858 85.1919C49.3858 85.6279 49.3858 86.6037 49.3858 87.1101C49.3858 87.1739 49.351 87.2329 49.2955 87.2632C49.2395 87.2939 49.1717 87.2918 49.1177 87.2574C48.2899 86.7298 45.7868 85.1342 45.0791 84.6831C44.9622 84.6082 44.8911 84.4789 44.8911 84.3397C44.8911 83.9021 44.8911 82.93 44.8911 82.4252C44.8911 82.3614 44.9258 82.3029 44.9814 82.2722C45.0374 82.2415 45.1052 82.2439 45.1592 82.2779C45.9882 82.8063 48.4979 84.4064 49.2011 84.8546Z" fill="#4798CC"/>
<path fill-rule="evenodd" clip-rule="evenodd" d="M49.2011 84.8546C49.3159 84.9279 49.3858 85.0552 49.3858 85.1919C49.3858 85.5522 49.3858 86.2292 49.3858 86.2292L45.8902 84.0384L45.8599 85.1809C45.8599 85.1809 45.361 84.8628 45.0791 84.6831C44.9622 84.6082 44.8911 84.4789 44.8911 84.3397C44.8911 83.9021 44.8911 82.93 44.8911 82.4252C44.8911 82.3614 44.9258 82.3029 44.9814 82.2722C45.0374 82.2415 45.1052 82.2439 45.1592 82.2779C45.9882 82.8063 48.4979 84.4064 49.2011 84.8546Z" fill="#2C3E42"/>
<path fill-rule="evenodd" clip-rule="evenodd" d="M126.405 120.189C126.28 120.262 126.204 120.397 126.204 120.542C126.204 121.214 126.204 123.151 126.204 123.904C126.204 123.966 126.237 124.022 126.291 124.052C126.344 124.082 126.41 124.081 126.462 124.048C128.281 122.923 139.132 116.209 140.719 115.227C140.84 115.152 140.913 115.02 140.913 114.878C140.913 114.271 140.913 112.615 140.913 111.936C140.913 111.875 140.881 111.819 140.828 111.789C140.775 111.759 140.71 111.759 140.658 111.79C138.851 112.855 128.02 119.237 126.405 120.189Z" fill="#3F4F53"/>
<path fill-rule="evenodd" clip-rule="evenodd" d="M126.814 120.466C126.689 120.539 126.612 120.674 126.612 120.819C126.612 121.335 126.612 122.57 126.612 123.146C126.612 123.207 126.645 123.264 126.699 123.294C126.753 123.324 126.819 123.322 126.871 123.29C128.627 122.204 138.778 115.922 140.311 114.974C140.431 114.899 140.505 114.768 140.505 114.626C140.505 114.179 140.505 113.191 140.505 112.695C140.505 112.634 140.472 112.578 140.419 112.547C140.367 112.517 140.302 112.518 140.25 112.548C138.506 113.576 128.373 119.547 126.814 120.466Z" fill="#F6F5F3"/>
<path fill-rule="evenodd" clip-rule="evenodd" d="M47.7514 31.0267L44.074 28.4843C44.074 28.4843 40.4868 27.3946 31.8158 31.0267C23.1446 34.6587 16.1184 40.1647 12.7176 43.6297C9.31684 47.0943 6.40859 54.1189 10.6746 56.7284C14.9406 59.3379 102.095 116.082 102.095 116.082C102.095 116.082 115.453 118.085 122.935 114.035C137.828 105.973 144.968 98.5972 144.591 96.4339C144.213 94.2701 143.886 91.9688 140.913 89.4752C137.941 86.9811 121.291 74.3298 121.291 74.3298C121.291 74.3298 105.073 58.4132 99.2357 54.2724C93.3979 50.1316 70.4114 36.0312 60.0096 32.1683C57.7757 31.26 55.3331 30.9735 47.7514 31.0267Z" fill="#FF445D"/>
<path fill-rule="evenodd" clip-rule="evenodd" d="M101.279 102.574L122.053 114.318C122.053 114.318 120.867 115.418 120.075 115.137C119.04 114.769 100.938 103.455 101.279 102.574Z" fill="#FF7487"/>
<path fill-rule="evenodd" clip-rule="evenodd" d="M117.214 115.673C117.214 115.673 137.657 111.276 143.774 94.3143C144.306 94.9222 146.304 96.1928 147.46 101.346C143.745 106.652 128.416 118.787 116.397 120.175C116.048 118.11 116.806 116.944 116.806 116.944L117.214 115.673Z" fill="#CC374A"/>
<path fill-rule="evenodd" clip-rule="evenodd" d="M140.505 103.175C140.505 103.175 139.243 97.2116 128.655 85.5734C128.098 85.5051 128.246 85.5734 128.246 85.5734C128.246 85.5734 135.971 93.6455 139.279 103.175C139.785 103.425 140.505 103.175 140.505 103.175Z" fill="#CC374A"/>
<path fill-rule="evenodd" clip-rule="evenodd" d="M121.709 113.217C126.315 110.766 135.63 104.96 138.053 103.393C139.446 102.492 139.621 107.552 138.462 108.714C136.214 110.965 127.906 116.014 124.978 116.901C123.491 117.351 119.965 114.144 121.709 113.217Z" fill="#510000"/>
<path fill-rule="evenodd" clip-rule="evenodd" d="M105.365 113.626C105.817 113.57 111.125 113.593 113.537 114.035C117.594 114.779 121.917 117.378 121.236 118.538C120.555 119.698 114.21 121.144 109.451 120.994C106.319 120.895 102.063 120.852 102.096 117.31C102.129 113.736 104.863 113.687 105.365 113.626Z" fill="#E7EDE0"/>
<path fill-rule="evenodd" clip-rule="evenodd" d="M145.817 98.0713C145.797 100.526 144.001 104.173 141.322 106.258C140.591 102.863 140.42 92.183 142.956 91.5219C144.094 91.2252 145.836 95.6001 145.817 98.0713Z" fill="#E7EDE0"/>
<path fill-rule="evenodd" clip-rule="evenodd" d="M15.8802 48.9511C15.8802 48.9511 29.5688 47.3715 36.3672 50.1791C43.166 52.9868 59.4411 62.7731 69.816 71.4645C73.976 79.1269 84.5258 96.5805 84.5258 96.5805L97.1926 108.714L96.784 109.123L76.7623 95.9518C76.7623 95.9518 18.821 59.9766 16.2888 54.6478C15.2991 52.8906 13.4128 50.3916 15.8802 48.9511Z" fill="#CC374A"/>
<path fill-rule="evenodd" clip-rule="evenodd" d="M69.8161 72.2831C68.8302 70.7318 77.9519 69.2123 85.7517 64.4747C96.9553 57.6695 97.3921 54.157 98.8271 54.6817C101.48 55.6519 117.011 70.6667 119.666 73.9205C124.473 79.8116 111.33 86.3458 107.408 88.6565C103.274 91.0917 88.5098 101.303 82.8915 93.9779C80.1367 90.3864 71.6651 75.1927 69.8161 72.2831Z" fill="#626B6E"/>
<mask id="mask0" mask-type="alpha" maskUnits="userSpaceOnUse" x="69" y="54" width="52" height="43">
<path fill-rule="evenodd" clip-rule="evenodd" d="M69.8161 72.283C68.8302 70.7316 77.9519 69.2122 85.7517 64.4745C96.9553 57.6693 97.3921 54.1568 98.8271 54.6816C101.48 55.6517 117.011 70.6665 119.666 73.9203C124.473 79.8115 111.33 86.3457 107.408 88.6564C103.274 91.0915 88.5098 101.303 82.8915 93.9778C80.1367 90.3862 71.6651 75.1926 69.8161 72.283Z" fill="white"/>
</mask>
<g mask="url(#mask0)">
<path fill-rule="evenodd" clip-rule="evenodd" d="M80.8486 64.4746C80.8486 64.4746 110.629 69.9134 120.709 87.4285C128.887 83.0645 123.197 81.7068 122.118 77.6044C121.038 73.5017 111.299 59.1872 106.999 56.319C102.699 53.4508 96.3131 51.3759 94.3325 54.6301C92.352 57.8847 80.8486 64.4746 80.8486 64.4746Z" fill="white" fill-opacity="0.0938"/>
</g>
<path fill-rule="evenodd" clip-rule="evenodd" d="M49.7945 61.2311C50.5978 61.3461 59.1241 67.0981 62.0526 69.4178C64.2448 71.1542 66.3058 73.4616 67.7731 75.6143C69.68 78.4113 73.4936 86.2005 73.4936 86.2005C73.4936 86.2005 78.787 96.8411 77.1743 95.8915C73.1981 93.5505 47.3428 76.3764 47.3428 76.3764C47.3428 76.3764 48.5409 61.0514 49.7945 61.2311Z" fill="#626B6E"/>
<path fill-rule="evenodd" clip-rule="evenodd" d="M73.4936 86.2006L72.6764 92.9841C72.6764 92.9841 77.7328 96.9558 77.5796 95.6153C77.2303 92.5563 73.4936 86.2006 73.4936 86.2006Z" fill="#510000"/>
<path fill-rule="evenodd" clip-rule="evenodd" d="M74.7195 91.9312V93.5685C74.7195 93.5685 72.9245 94.9095 71.8592 95.2059C71.0849 95.4212 70.1435 95.029 69.7537 94.3872C69.5089 93.9844 69.7537 92.7499 69.7537 92.7499L73.4936 90.7032L74.7195 91.9312Z" fill="#BF2F41"/>
<path fill-rule="evenodd" clip-rule="evenodd" d="M74.7195 91.9313V93.5686C74.7195 93.5686 72.9245 94.9096 71.8592 95.206C71.0849 95.4213 70.1435 95.0291 69.7537 94.3873C69.5089 93.9845 69.7537 92.7499 69.7537 92.7499C69.7537 92.7499 70.765 94.1085 71.4506 93.9779C72.5465 93.7688 74.7195 91.9313 74.7195 91.9313Z" fill="#AD2738"/>
<path fill-rule="evenodd" clip-rule="evenodd" d="M8.58042 60.8218C8.58042 60.8218 3.84257 66.3949 12.5092 68.5991C11.292 66.0261 10.0638 66.0756 8.58042 60.8218Z" fill="#FF445D"/>
<path fill-rule="evenodd" clip-rule="evenodd" d="M19.7052 57.1153C19.5757 57.2127 19.5012 57.3662 19.5054 57.5283C19.5094 57.69 19.5916 57.8402 19.7258 57.9303C23.4525 60.4448 44.0739 74.3298 44.0739 74.3298C44.0739 74.3298 46.0311 61.0048 45.2997 59.1845C44.4825 57.1501 36.7828 54.5299 35.0846 54.2724C33.4339 54.0219 26.201 52.2827 19.7052 57.1153Z" fill="#626B6E"/>
<path fill-rule="evenodd" clip-rule="evenodd" d="M30.6717 48.5418H16.2887C16.2887 48.5418 14.8212 48.3334 15.4715 47.3138C16.1219 46.2937 21.0948 40.491 29.7727 35.8524C37.6102 31.6629 42.4395 31.3497 42.4395 31.3497C42.4395 31.3497 49.4417 30.6231 54.6976 31.3497C58.0666 31.8151 57.9501 32.5376 56.3321 32.9871C54.714 33.4361 46.9321 37.3293 43.2567 39.5364C37.7532 42.841 32.8082 48.2913 30.6717 48.5418Z" fill="#626B6E"/>
<mask id="mask1" mask-type="alpha" maskUnits="userSpaceOnUse" x="15" y="31" width="43" height="18">
<path fill-rule="evenodd" clip-rule="evenodd" d="M30.6717 48.5416H16.2887C16.2887 48.5416 14.8212 48.3332 15.4715 47.3136C16.1219 46.2935 21.0948 40.4908 29.7727 35.8522C37.6102 31.6627 42.4395 31.3495 42.4395 31.3495C42.4395 31.3495 49.4417 30.623 54.6976 31.3495C58.0666 31.8149 57.9501 32.5374 56.3321 32.9869C54.714 33.4359 46.9321 37.3291 43.2567 39.5362C37.7532 42.8408 32.8082 48.2911 30.6717 48.5416Z" fill="white"/>
</mask>
<g mask="url(#mask1)">
<path fill-rule="evenodd" clip-rule="evenodd" d="M28.5468 35.4117C28.5468 35.4117 59.2061 32.329 60.644 39.7838C68.8214 35.4203 61.0889 37.4985 60.0094 33.3962C58.9895 29.5202 44.2573 28.8235 36.3671 31.0265C32.7022 32.0499 28.5468 35.4117 28.5468 35.4117Z" fill="white" fill-opacity="0.0938"/>
</g>
<path fill-rule="evenodd" clip-rule="evenodd" d="M32.633 87.4285L30.9986 87.8379L80.0312 117.667L79.214 116.082L32.633 87.4285Z" fill="#FF445D"/>
<path fill-rule="evenodd" clip-rule="evenodd" d="M101.279 123.859L102.095 116.082L9.75111 55.9097C9.75111 55.9097 8.25529 54.1561 8.5253 53.0443C8.21754 55.3591 8.54471 61.6403 8.54471 61.6403C8.54471 61.6403 8.60101 63.6244 9.34251 64.915C9.73293 65.6142 12.2027 68.599 12.2027 68.599C12.2027 68.599 15.5581 67.6154 19.149 69.827C22.74 72.0383 31.1936 78.2929 31.8158 87.4284C34.0812 89.2463 79.214 116.491 79.214 116.491C79.214 116.491 79.1261 105.476 90.2463 110.76C98.8569 114.852 101.279 123.859 101.279 123.859Z" fill="#BF2F41"/>
<path fill-rule="evenodd" clip-rule="evenodd" d="M8.52539 54.2724L9.3426 55.9097V62.8684L8.52539 60.8218V54.2724Z" fill="#510000"/>
</svg>