<svg width="1386" height="441" viewBox="0 0 1386 441" fill="none" xmlns="http://www.w3.org/2000/svg">
<path fill-rule="evenodd" clip-rule="evenodd" d="M1176.7 245.028L1134.91 220.899C1133.68 220.186 1132.15 220.185 1130.92 220.897L1097.92 239.901C1095.21 241.463 1095.26 245.391 1098.01 246.883L1139.18 269.214C1141.63 270.54 1144.59 270.501 1146.99 269.109L1176.7 251.956C1179.37 250.417 1179.37 246.567 1176.7 245.028Z" fill="#DAED8E"/>
<path fill-rule="evenodd" clip-rule="evenodd" d="M1257.21 196.73L1214.75 174.548C1213.5 173.894 1211.99 173.949 1210.79 174.694L1182.56 192.187C1179.99 193.78 1180.05 197.539 1182.67 199.051L1220.07 220.647C1222.55 222.076 1225.6 222.076 1228.07 220.647L1257.36 203.739C1260.09 202.162 1260.01 198.19 1257.21 196.73Z" fill="#DAED8E"/>
<path fill-rule="evenodd" clip-rule="evenodd" d="M759.465 336.608L670.434 285.504C669.2 284.795 667.684 284.795 666.45 285.504L604.554 321.071C601.88 322.607 601.877 326.463 604.547 328.004L691.518 378.186C693.993 379.615 697.043 379.614 699.518 378.183L759.475 343.541C762.145 341.999 762.139 338.143 759.465 336.608Z" fill="#DAED8E"/>
<path fill-rule="evenodd" clip-rule="evenodd" d="M1051.84 148.389L1011.54 125.491C1010.3 124.789 1008.79 124.794 1007.56 125.504L918.073 177.17C915.41 178.708 915.405 182.551 918.066 184.094L956.325 206.29C958.812 207.733 961.881 207.731 964.365 206.284L1051.88 155.324C1054.54 153.771 1054.52 149.913 1051.84 148.389Z" fill="#DAED8E"/>
<path fill-rule="evenodd" clip-rule="evenodd" d="M776.546 147.284L710.235 109L672.331 130.885L738.641 169.169L776.546 147.284Z" fill="#F8FDFF"/>
<path fill-rule="evenodd" clip-rule="evenodd" d="M738.641 169.284L672.331 131V174.768L738.641 213.053V169.284Z" fill="#99B2E1"/>
<path fill-rule="evenodd" clip-rule="evenodd" d="M730.623 178.459L681.331 150V178.955L730.623 207.414V178.459Z" fill="#7899CF"/>
<path fill-rule="evenodd" clip-rule="evenodd" d="M776.475 147L738.331 169.021V212.79L776.475 190.769V147Z" fill="#D3E7FD"/>
<path fill-rule="evenodd" clip-rule="evenodd" d="M675.331 156.039L724.623 184.498L730.491 178.459L681.199 150L675.331 156.039Z" fill="#4B658F"/>
<path fill-rule="evenodd" clip-rule="evenodd" d="M0 441H162C296.482 366.935 571.987 227.73 571.987 227.73C581.834 222.045 593.608 222.025 603.185 227.512L799.499 339.985C829.467 357.157 866.308 357.095 896.22 339.824L1127.54 206.271L1225.94 262.41C1234.03 267.028 1234 278.708 1225.88 283.285L1189.93 303.559L1156.55 284.64C1155.31 283.941 1153.8 283.946 1152.57 284.655L1064.31 335.623C1061.65 337.158 1061.64 340.993 1064.29 342.541L1135.86 384.322C1138.34 385.771 1141.41 385.777 1143.89 384.342L1231.25 333.905C1233.93 332.359 1233.92 328.486 1231.22 326.962L1214.3 317.37L1237.67 304.19C1262.03 290.46 1262.11 255.419 1237.83 241.564L1151.61 192.374L1385.81 57.1577L1386 0H1352.81L863.219 282.667C853.66 288.187 841.887 288.206 832.311 282.719L635.995 170.245C606.133 153.136 569.448 153.136 539.594 170.223L0 441Z" fill="url(#paint0_linear)"/>
<path fill-rule="evenodd" clip-rule="evenodd" d="M653.575 219.164L590.354 182.664L520.644 222.911L583.864 259.411L653.575 219.164Z" fill="#F8FDFF"/>
<path fill-rule="evenodd" clip-rule="evenodd" d="M653.599 219.207L583.451 259.707V314.363L653.599 273.863V219.207Z" fill="#D3E7FD"/>
<path fill-rule="evenodd" clip-rule="evenodd" d="M583.864 259.707L520.644 223.207V277.863L583.864 314.363V259.707Z" fill="#99B2E1"/>
<path fill-rule="evenodd" clip-rule="evenodd" d="M548.106 276.013L529.919 265.513V250.607L548.106 261.107V276.013Z" fill="#7899CF"/>
<path fill-rule="evenodd" clip-rule="evenodd" d="M573.451 290.645L555.264 280.145V265.239L573.451 275.739V290.645Z" fill="#7899CF"/>
<path fill-rule="evenodd" clip-rule="evenodd" d="M548.106 261.107L529.919 250.607L526.456 254.569L544.642 265.069L548.106 261.107Z" fill="#4B658F"/>
<path fill-rule="evenodd" clip-rule="evenodd" d="M573.451 275.739L555.264 265.239L551.8 269.202L569.986 279.702L573.451 275.739Z" fill="#4B658F"/>
<path fill-rule="evenodd" clip-rule="evenodd" d="M614.46 261.863L595.59 272.758V288.143L614.46 277.248V261.863Z" fill="#7899CF"/>
<path fill-rule="evenodd" clip-rule="evenodd" d="M643.27 244.038L625.576 254.254V289.532L643.27 279.316V244.038Z" fill="#7899CF"/>
<path fill-rule="evenodd" clip-rule="evenodd" d="M586.026 224.679C577.578 215.521 573.353 208.265 573.353 202.911C573.353 194.879 579.027 185.093 586.026 181.052C590.624 178.398 593.51 178.44 597.483 181.078C599.081 182.139 598.7 185.521 598.7 188.278C598.7 193.481 596.171 207.411 588.192 225.417C586.994 225.082 586.994 225.082 586.026 224.679Z" fill="#9E422B"/>
<path fill-rule="evenodd" clip-rule="evenodd" d="M588.192 225.418C579.744 216.261 575.519 209.005 575.519 203.65C575.519 195.619 581.193 185.832 588.192 181.791C595.192 177.75 600.866 180.985 600.866 189.017C600.866 194.371 596.641 206.505 588.192 225.418Z" fill="#FF6944"/>
<path fill-rule="evenodd" clip-rule="evenodd" d="M840.134 190L795 216.059V244.891L840.134 218.832V190Z" fill="#D3E7FD"/>
<path fill-rule="evenodd" clip-rule="evenodd" d="M840.134 184L795 210.059V216.397L840.134 190.339V184Z" fill="#5E7EB2"/>
<path fill-rule="evenodd" clip-rule="evenodd" d="M840 156L795 182.059V210.891L840.134 184.832L840 156Z" fill="#D3E7FD"/>
<path fill-rule="evenodd" clip-rule="evenodd" d="M816.028 180L803 187.522V199.269L816.028 191.747V180Z" fill="#7899CF"/>
<path fill-rule="evenodd" clip-rule="evenodd" d="M834.028 169L821 176.521V188.269L834.028 180.746V169Z" fill="#7899CF"/>
<path fill-rule="evenodd" clip-rule="evenodd" d="M795.127 215.506L770 201V229.832L795.127 244.339V215.506Z" fill="#99B2E1"/>
<path fill-rule="evenodd" clip-rule="evenodd" d="M795.127 182.506L770 168V196.832L795.127 211.339V182.506Z" fill="#99B2E1"/>
<path fill-rule="evenodd" clip-rule="evenodd" d="M795.127 210.507L770 196V201.806L795.127 216.313V210.507Z" fill="#5E7EB2"/>
<path fill-rule="evenodd" clip-rule="evenodd" d="M788.28 188.936L778 183V192.27L788.28 198.206V188.936Z" fill="#7899CF"/>
<path fill-rule="evenodd" clip-rule="evenodd" d="M770 167.896L795 183L839.979 156.507L814.854 142L770 167.896Z" fill="#BBCEF3"/>
<path fill-rule="evenodd" clip-rule="evenodd" d="M779 168.289L794.82 177.423L829.963 157.134L814.143 148L779 168.289Z" fill="#F8FDFF"/>
<path fill-rule="evenodd" clip-rule="evenodd" d="M786.056 219.229L777 214V233.744L786.056 238.972V219.229Z" fill="#7899CF"/>
<path fill-rule="evenodd" clip-rule="evenodd" d="M844.997 219.008L820.897 205.094V256.945L844.997 270.858V219.008Z" fill="#99B2E1"/>
<path fill-rule="evenodd" clip-rule="evenodd" d="M869.02 205.094L844.921 219.008V270.858L869.02 256.945V205.094Z" fill="#D3E7FD"/>
<path fill-rule="evenodd" clip-rule="evenodd" d="M868.945 205.138L844.846 191.224L820.897 205.051L844.997 218.964L868.945 205.138Z" fill="#F8FDFF"/>
<path fill-rule="evenodd" clip-rule="evenodd" d="M864.823 214.882L849.334 223.824V227.698L864.823 218.756V214.882Z" fill="#7899CF"/>
<path fill-rule="evenodd" clip-rule="evenodd" d="M864.823 222.859L849.334 231.802V235.676L864.823 226.733V222.859Z" fill="#7899CF"/>
<path fill-rule="evenodd" clip-rule="evenodd" d="M864.823 231.568L849.334 240.51V244.385L864.823 235.442V231.568Z" fill="#7899CF"/>
<path fill-rule="evenodd" clip-rule="evenodd" d="M686.682 288.355H680.166V332.337C680.166 334.136 681.624 335.595 683.424 335.595C685.223 335.595 686.682 334.136 686.682 332.337V288.355Z" fill="#CF9878"/>
<path fill-rule="evenodd" clip-rule="evenodd" d="M681.244 313.853C680.08 313.853 678.944 313.713 677.844 313.453C679.518 314.837 681.476 315.649 683.578 315.649C687.614 315.649 691.137 312.698 693.078 308.301C689.963 311.748 685.808 313.853 681.244 313.853Z" fill="#679453"/>
<path fill-rule="evenodd" clip-rule="evenodd" d="M694.518 269.148C694.518 277.506 689.551 284.283 683.424 284.283C677.297 284.283 672.331 277.506 672.331 269.148C672.331 260.789 677.297 254.013 683.424 254.013C689.551 254.013 694.518 260.789 694.518 269.148Z" fill="#96D778"/>
<path fill-rule="evenodd" clip-rule="evenodd" d="M700.918 293.397C700.918 305.027 693.086 314.456 683.425 314.456C673.763 314.456 665.931 305.027 665.931 293.397C665.931 281.767 673.763 272.339 683.425 272.339C693.086 272.339 700.918 281.767 700.918 293.397Z" fill="#96D778"/>
<path fill-rule="evenodd" clip-rule="evenodd" d="M682.466 280.471C681.302 280.471 680.166 280.331 679.066 280.071C680.74 281.455 682.698 282.267 684.8 282.267C688.836 282.267 692.359 279.316 694.3 274.918C691.185 278.366 687.03 280.471 682.466 280.471Z" fill="#679453"/>
<path fill-rule="evenodd" clip-rule="evenodd" d="M967.265 139.984H960.749V183.966C960.749 185.766 962.207 187.224 964.007 187.224C965.806 187.224 967.265 185.766 967.265 183.966V139.984Z" fill="#CF9878"/>
<path fill-rule="evenodd" clip-rule="evenodd" d="M961.827 165.483C960.663 165.483 959.527 165.342 958.427 165.082C960.101 166.466 962.059 167.278 964.161 167.278C968.197 167.278 971.72 164.328 973.661 159.93C970.546 163.377 966.391 165.483 961.827 165.483Z" fill="#679453"/>
<path fill-rule="evenodd" clip-rule="evenodd" d="M975.101 120.777C975.101 129.136 970.134 135.912 964.007 135.912C957.88 135.912 952.914 129.136 952.914 120.777C952.914 112.419 957.88 105.642 964.007 105.642C970.134 105.642 975.101 112.419 975.101 120.777Z" fill="#96D778"/>
<path fill-rule="evenodd" clip-rule="evenodd" d="M981.501 145.027C981.501 156.657 973.669 166.085 964.008 166.085C954.346 166.085 946.514 156.657 946.514 145.027C946.514 133.396 954.346 123.968 964.008 123.968C973.669 123.968 981.501 133.396 981.501 145.027Z" fill="#96D778"/>
<path fill-rule="evenodd" clip-rule="evenodd" d="M963.049 132.101C961.885 132.101 960.749 131.96 959.649 131.7C961.323 133.084 963.281 133.896 965.383 133.896C969.419 133.896 972.942 130.946 974.883 126.548C971.768 129.995 967.613 132.101 963.049 132.101Z" fill="#679453"/>
<path fill-rule="evenodd" clip-rule="evenodd" d="M1009.83 116.597H1003.31V160.578C1003.31 162.378 1004.77 163.836 1006.57 163.836C1008.37 163.836 1009.83 162.378 1009.83 160.578V116.597Z" fill="#CF9878"/>
<path fill-rule="evenodd" clip-rule="evenodd" d="M1004.39 142.095C1003.23 142.095 1002.09 141.955 1000.99 141.695C1002.67 143.079 1004.62 143.891 1006.73 143.891C1010.76 143.891 1014.29 140.94 1016.23 136.542C1013.11 139.989 1008.96 142.095 1004.39 142.095Z" fill="#679453"/>
<path fill-rule="evenodd" clip-rule="evenodd" d="M1017.67 97.3894C1017.67 105.748 1012.7 112.524 1006.57 112.524C1000.44 112.524 995.479 105.748 995.479 97.3894C995.479 89.0314 1000.44 82.2554 1006.57 82.2554C1012.7 82.2554 1017.67 89.0314 1017.67 97.3894Z" fill="#96D778"/>
<path fill-rule="evenodd" clip-rule="evenodd" d="M1024.07 121.639C1024.07 133.269 1016.23 142.697 1006.57 142.697C996.911 142.697 989.079 133.269 989.079 121.639C989.079 110.009 996.911 100.58 1006.57 100.58C1016.23 100.58 1024.07 110.009 1024.07 121.639Z" fill="#96D778"/>
<path fill-rule="evenodd" clip-rule="evenodd" d="M1005.61 108.714C1004.45 108.714 1003.31 108.574 1002.21 108.313C1003.89 109.697 1005.85 110.51 1007.95 110.51C1011.98 110.51 1015.51 107.559 1017.45 103.161C1014.33 106.608 1010.18 108.714 1005.61 108.714Z" fill="#679453"/>
<path fill-rule="evenodd" clip-rule="evenodd" d="M1125.84 310.683C1125.24 309.439 1123.86 309.121 1122.26 310.046C1120.11 311.287 1118.37 314.292 1118.37 316.759C1118.37 318.565 1120.44 319.839 1120.44 319.839C1120.44 319.839 1122.62 321.067 1124.22 320.142C1126.37 318.901 1128.11 315.895 1128.11 313.428C1128.11 311.622 1127.18 310.612 1125.84 310.683Z" fill="#333333"/>
<path fill-rule="evenodd" clip-rule="evenodd" d="M1146.62 318.581C1146.02 317.336 1144.65 317.018 1143.04 317.943C1140.89 319.185 1139.15 322.19 1139.15 324.657C1139.15 326.463 1141.22 327.736 1141.22 327.736C1141.22 327.736 1143.4 328.965 1145 328.039C1147.15 326.798 1148.9 323.792 1148.9 321.326C1148.9 319.52 1147.96 318.509 1146.62 318.581Z" fill="#333333"/>
<path fill-rule="evenodd" clip-rule="evenodd" d="M1174.44 302.589C1173.84 301.345 1172.47 301.027 1170.87 301.952C1168.71 303.193 1166.97 306.198 1166.97 308.665C1166.97 310.471 1169.04 311.745 1169.04 311.745C1169.04 311.745 1171.22 312.973 1172.83 312.048C1174.98 310.807 1176.72 307.801 1176.72 305.334C1176.72 303.528 1175.78 302.518 1174.44 302.589Z" fill="#333333"/>
<path fill-rule="evenodd" clip-rule="evenodd" d="M1182.72 289.966L1162.95 278.552L1136.43 293.862L1156.2 305.277L1182.72 289.966Z" fill="#4B658F"/>
<path fill-rule="evenodd" clip-rule="evenodd" d="M1142.86 302.454L1126.18 293.477L1116.17 305.429L1136.19 316.987L1142.86 302.454Z" fill="#4B658F"/>
<path fill-rule="evenodd" clip-rule="evenodd" d="M1136.19 316.837L1116.17 305.277V316.017L1136.19 327.576V316.837Z" fill="#5E7EB2"/>
<path fill-rule="evenodd" clip-rule="evenodd" d="M1156.06 295.051L1139.84 285.683L1126.33 293.481L1142.56 302.85L1156.06 295.051Z" fill="#5E7EB2"/>
<path fill-rule="evenodd" clip-rule="evenodd" d="M1136.43 325.773L1116.25 314.121V316.011L1136.43 327.663V325.773Z" fill="#A1B0C2"/>
<path fill-rule="evenodd" clip-rule="evenodd" d="M1182.89 290.08L1156.07 305.191V294.827L1142.86 302.454L1136.18 317.046V327.784L1182.89 300.818V290.08Z" fill="#5E7EB2"/>
<path fill-rule="evenodd" clip-rule="evenodd" d="M1149.56 320.447C1149.56 317.758 1147.66 316.675 1145.32 318.027C1142.98 319.381 1141.08 322.657 1141.08 325.346C1141.08 328.036 1142.98 329.119 1145.32 327.765C1147.66 326.413 1149.56 323.135 1149.56 320.447Z" fill="#333333"/>
<path fill-rule="evenodd" clip-rule="evenodd" d="M1148 321.345C1148 319.643 1146.8 318.957 1145.32 319.814C1143.83 320.67 1142.63 322.744 1142.63 324.447C1142.63 326.149 1143.83 326.834 1145.32 325.978C1146.8 325.121 1148 323.047 1148 321.345Z" fill="#D3E7FD"/>
<path fill-rule="evenodd" clip-rule="evenodd" d="M1177.26 304.455C1177.26 301.767 1175.36 300.684 1173.02 302.036C1170.67 303.389 1168.77 306.666 1168.77 309.355C1168.77 312.044 1170.67 313.127 1173.02 311.774C1175.36 310.421 1177.26 307.144 1177.26 304.455Z" fill="#333333"/>
<path fill-rule="evenodd" clip-rule="evenodd" d="M1175.7 305.354C1175.7 303.652 1174.5 302.966 1173.02 303.823C1171.53 304.679 1170.33 306.753 1170.33 308.456C1170.33 310.158 1171.53 310.843 1173.02 309.987C1174.5 309.13 1175.7 307.056 1175.7 305.354Z" fill="#D3E7FD"/>
<path fill-rule="evenodd" clip-rule="evenodd" d="M1121.42 314.934L1116.27 311.962V309.213L1121.42 312.186V314.934Z" fill="#FFFC4D"/>
<path fill-rule="evenodd" clip-rule="evenodd" d="M1136.18 323.46L1131.04 320.488V317.739L1136.18 320.712V323.46Z" fill="#FFFC4D"/>
<path fill-rule="evenodd" clip-rule="evenodd" d="M1139.15 315.333L1152.65 307.54V298.494L1144.41 303.25L1139.15 315.333Z" fill="#4B658F"/>
<path fill-rule="evenodd" clip-rule="evenodd" d="M1149.83 226.376H1142.91V247.829C1142.91 249.74 1144.46 251.29 1146.37 251.29C1148.28 251.29 1149.83 249.74 1149.83 247.829V226.376Z" fill="#CF9878"/>
<path fill-rule="evenodd" clip-rule="evenodd" d="M1128.61 214.039C1128.61 223.655 1136.41 231.451 1146.02 231.451C1155.64 231.451 1163.44 223.655 1163.44 214.039C1163.44 204.422 1155.64 196.626 1146.02 196.626C1136.41 196.626 1128.61 204.422 1128.61 214.039Z" fill="#96D778"/>
<path fill-rule="evenodd" clip-rule="evenodd" d="M1146.02 228.522C1137.6 228.522 1130.55 222.713 1128.63 214.886C1128.92 224.242 1136.6 231.735 1146.02 231.735C1155.45 231.735 1163.12 224.241 1163.42 214.886C1161.5 222.713 1154.44 228.522 1146.02 228.522Z" fill="#679453"/>
<path fill-rule="evenodd" clip-rule="evenodd" d="M1146.02 199.79C1154.44 199.79 1161.5 205.599 1163.42 213.426C1163.12 204.071 1155.45 196.578 1146.02 196.578C1136.6 196.578 1128.92 204.071 1128.63 213.426C1130.55 205.599 1137.61 199.79 1146.02 199.79Z" fill="#F8FDFF" fill-opacity="0.4"/>
<path fill-rule="evenodd" clip-rule="evenodd" d="M1227.19 180.561H1220.27V202.015C1220.27 203.926 1221.82 205.475 1223.73 205.475C1225.64 205.475 1227.19 203.926 1227.19 202.015V180.561Z" fill="#CF9878"/>
<path fill-rule="evenodd" clip-rule="evenodd" d="M1205.97 168.224C1205.97 177.84 1213.77 185.636 1223.38 185.636C1233 185.636 1240.79 177.84 1240.79 168.224C1240.79 158.607 1233 150.812 1223.38 150.812C1213.77 150.812 1205.97 158.607 1205.97 168.224Z" fill="#96D778"/>
<path fill-rule="evenodd" clip-rule="evenodd" d="M1223.38 182.708C1214.96 182.708 1207.9 176.9 1205.98 169.072C1206.28 178.428 1213.95 185.921 1223.38 185.921C1232.81 185.921 1240.48 178.428 1240.78 169.072C1238.86 176.899 1231.8 182.708 1223.38 182.708Z" fill="#679453"/>
<path fill-rule="evenodd" clip-rule="evenodd" d="M1223.38 153.976C1231.8 153.976 1238.86 159.784 1240.78 167.611C1240.48 158.256 1232.81 150.763 1223.38 150.763C1213.95 150.763 1206.28 158.256 1205.98 167.612C1207.9 159.784 1214.96 153.976 1223.38 153.976Z" fill="#F8FDFF" fill-opacity="0.4"/>
<path fill-rule="evenodd" clip-rule="evenodd" d="M1201.47 232.215L1194.48 242.074C1193.81 243.013 1194.1 244.32 1195.1 244.896L1209.08 252.969C1210.68 253.892 1212.55 252.287 1211.88 250.568L1204.88 232.636C1204.32 231.187 1202.37 230.946 1201.47 232.215Z" fill="#4B658F"/>
<path fill-rule="evenodd" clip-rule="evenodd" d="M1202.49 240.784C1201.84 240.784 1201.32 241.308 1201.32 241.954V278.502C1201.32 279.148 1201.84 279.673 1202.49 279.673C1203.13 279.673 1203.66 279.148 1203.66 278.502V241.954C1203.66 241.308 1203.13 240.784 1202.49 240.784Z" fill="#5E7EB2"/>
<path fill-rule="evenodd" clip-rule="evenodd" d="M1121.92 169.19L1092.82 152.39L1054.87 174.303L1083.96 191.103L1121.92 169.19Z" fill="#F8FDFF"/>
<path fill-rule="evenodd" clip-rule="evenodd" d="M1084.88 191.92L1055.78 175.12V289.203L1084.88 306.003V191.92Z" fill="#99B2E1"/>
<path fill-rule="evenodd" clip-rule="evenodd" d="M1122.37 168.944L1084.18 190.994V305.077L1122.37 283.027V168.944Z" fill="#D3E7FD"/>
<path fill-rule="evenodd" clip-rule="evenodd" d="M1086.58 171.852L1072.52 163.735V171.506L1086.58 179.623V171.852Z" fill="#99B2E1"/>
<path fill-rule="evenodd" clip-rule="evenodd" d="M1104.48 161.209L1090.42 153.091L1072.08 163.679L1086.14 171.797L1104.48 161.209Z" stroke="#00ADEE" stroke-width="0.125"/>
<path fill-rule="evenodd" clip-rule="evenodd" d="M1104.7 160.751L1086.25 171.405V179.177L1104.7 168.522V160.751Z" fill="#D3E7FD"/>
<path fill-rule="evenodd" clip-rule="evenodd" d="M1114.75 195.45L1091.72 208.751V215.012L1114.75 201.711V195.45Z" fill="#7899CF"/>
<path fill-rule="evenodd" clip-rule="evenodd" d="M1114.75 209.439L1091.72 222.739V229L1114.75 215.7V209.439Z" fill="#7899CF"/>
<path fill-rule="evenodd" clip-rule="evenodd" d="M1114.75 223.911L1091.72 237.211V243.472L1114.75 230.172V223.911Z" fill="#7899CF"/>
<path fill-rule="evenodd" clip-rule="evenodd" d="M1114.75 237.986L1091.72 251.286V257.547L1114.75 244.247V237.986Z" fill="#7899CF"/>
<path fill-rule="evenodd" clip-rule="evenodd" d="M1072.4 243.593L1054.84 233.455L1031.93 246.678L1049.49 256.816L1072.4 243.593Z" fill="#F8FDFF"/>
<path fill-rule="evenodd" clip-rule="evenodd" d="M1050.04 257.308L1032.48 247.169V316.012L1050.04 326.15V257.308Z" fill="#99B2E1"/>
<path fill-rule="evenodd" clip-rule="evenodd" d="M1072.67 243.443L1049.62 256.749V325.591L1072.67 312.286V243.443Z" fill="#D3E7FD"/>
<path fill-rule="evenodd" clip-rule="evenodd" d="M1051.07 245.199L1042.59 240.301V244.99L1051.07 249.888V245.199Z" fill="#99B2E1"/>
<path fill-rule="evenodd" clip-rule="evenodd" d="M1061.87 238.776L1053.39 233.877L1042.32 240.266L1050.81 245.165L1061.87 238.776Z" stroke="#00ADEE" stroke-width="0.125"/>
<path fill-rule="evenodd" clip-rule="evenodd" d="M1062.01 238.5L1050.87 244.929V249.619L1062.01 243.189V238.5Z" fill="#D3E7FD"/>
<path fill-rule="evenodd" clip-rule="evenodd" d="M1036.18 268.392L1014.62 280.842V346.177L1036.18 333.728V268.392Z" fill="#D3E7FD"/>
<path fill-rule="evenodd" clip-rule="evenodd" d="M1036.12 268.431L1014.55 255.982L993.123 268.354L1014.69 280.803L1036.12 268.431Z" fill="#F8FDFF"/>
<path fill-rule="evenodd" clip-rule="evenodd" d="M1014.62 280.843L993.056 268.393V333.729L1014.62 346.178V280.843Z" fill="#99B2E1"/>
<path fill-rule="evenodd" clip-rule="evenodd" d="M1009.57 292.504L1004.84 295.234V346.241L1009.57 343.511V292.504Z" fill="#D3E7FD"/>
<path fill-rule="evenodd" clip-rule="evenodd" d="M1004.84 295.015L988.009 285.295V336.303L1004.84 346.022V295.015Z" fill="#99B2E1"/>
<path fill-rule="evenodd" clip-rule="evenodd" d="M1009.54 292.52L992.708 282.8L988.009 285.513L1004.84 295.233L1009.54 292.52Z" fill="#F8FDFF"/>
<path fill-rule="evenodd" clip-rule="evenodd" d="M1022.85 262.095L1014.54 266.894V274.869L1022.85 270.072V262.095Z" fill="#D3E7FD"/>
<path fill-rule="evenodd" clip-rule="evenodd" d="M1014.6 266.894L1006.29 262.095V270.072L1014.6 274.87V266.894Z" fill="#99B2E1"/>
<path fill-rule="evenodd" clip-rule="evenodd" d="M1025.03 259.16L1014.61 253.139L1004.24 259.122L1014.67 265.141L1025.03 259.16Z" fill="#F8FDFF"/>
<path fill-rule="evenodd" clip-rule="evenodd" d="M1014.6 265.161L1004.17 259.14V260.875L1014.6 266.894V265.161Z" fill="#5E7EB2"/>
<path fill-rule="evenodd" clip-rule="evenodd" d="M1025.06 259.14L1014.64 265.161V266.894L1025.06 260.874V259.14Z" fill="#8BB2F0"/>
<path fill-rule="evenodd" clip-rule="evenodd" d="M854.153 198.237L845.842 203.035V211.011L854.153 206.214V198.237Z" fill="#D3E7FD"/>
<path fill-rule="evenodd" clip-rule="evenodd" d="M845.902 203.035L837.591 198.237V206.214L845.902 211.012V203.035Z" fill="#99B2E1"/>
<path fill-rule="evenodd" clip-rule="evenodd" d="M856.334 195.301L845.907 189.28L835.546 195.263L845.973 201.282L856.334 195.301Z" fill="#F8FDFF"/>
<path fill-rule="evenodd" clip-rule="evenodd" d="M845.902 201.301L835.476 195.281V197.016L845.902 203.035V201.301Z" fill="#5E7EB2"/>
<path fill-rule="evenodd" clip-rule="evenodd" d="M856.366 195.282L845.94 201.302V203.036L856.366 197.016V195.282Z" fill="#8BB2F0"/>
<path fill-rule="evenodd" clip-rule="evenodd" d="M1032.06 277.146L1018.74 284.84V288.455L1032.06 280.76V277.146Z" fill="#7899CF"/>
<path fill-rule="evenodd" clip-rule="evenodd" d="M1032.06 284.379L1018.74 292.072V295.687L1032.06 287.993V284.379Z" fill="#7899CF"/>
<path fill-rule="evenodd" clip-rule="evenodd" d="M1032.06 292.632L1018.74 300.325V303.94L1032.06 296.246V292.632Z" fill="#7899CF"/>
<path fill-rule="evenodd" clip-rule="evenodd" d="M1032.06 300.459L1018.74 308.152V311.767L1032.06 304.073V300.459Z" fill="#7899CF"/>
<path fill-rule="evenodd" clip-rule="evenodd" d="M1013.48 258.935C1005.47 250.262 1001.47 243.389 1001.47 238.318C1001.47 230.711 1006.85 221.442 1013.48 217.615C1017.83 215.101 1020.56 215.141 1024.33 217.64C1025.84 218.645 1025.48 221.848 1025.48 224.458C1025.48 229.386 1023.08 242.581 1015.53 259.635C1014.39 259.318 1014.39 259.318 1013.48 258.935Z" fill="#9E422B"/>
<path fill-rule="evenodd" clip-rule="evenodd" d="M1015.53 259.635C1007.53 250.961 1003.53 244.089 1003.53 239.018C1003.53 231.411 1008.9 222.142 1015.53 218.315C1022.16 214.488 1027.53 217.551 1027.53 225.157C1027.53 230.229 1023.53 241.721 1015.53 259.635Z" fill="#FF6944"/>
<path fill-rule="evenodd" clip-rule="evenodd" d="M591.757 201.237L585.123 205.067V203.399L587.449 199.176C587.742 198.645 588.008 198.158 588.247 197.715C588.486 197.272 588.692 196.856 588.862 196.467C589.034 196.079 589.167 195.707 589.262 195.352C589.357 194.998 589.403 194.647 589.403 194.3C589.403 193.918 589.303 193.678 589.103 193.582C588.903 193.485 588.633 193.535 588.295 193.73C587.939 193.935 587.596 194.234 587.267 194.626C586.938 195.017 586.593 195.504 586.232 196.085L585.096 195.196C585.299 194.867 585.511 194.542 585.732 194.22C585.952 193.899 586.195 193.587 586.462 193.283C586.728 192.979 587.021 192.69 587.341 192.414C587.661 192.139 588.02 191.886 588.416 191.658C588.89 191.384 589.315 191.214 589.692 191.146C590.068 191.08 590.389 191.107 590.654 191.23C590.921 191.353 591.125 191.571 591.267 191.883C591.408 192.193 591.48 192.594 591.48 193.086C591.48 193.531 591.412 193.996 591.277 194.479C591.142 194.964 590.956 195.469 590.723 195.995C590.488 196.521 590.216 197.066 589.907 197.63C589.599 198.193 589.269 198.776 588.917 199.377L587.727 201.437V201.547L591.757 199.219V201.237Z" fill="white"/>
<path fill-rule="evenodd" clip-rule="evenodd" d="M1095.12 374.411L1079.9 364.452L1062.37 374.345L1078.87 383.872L1095.12 374.411Z" fill="#C8D7E8"/>
<path fill-rule="evenodd" clip-rule="evenodd" d="M1089.23 364.452L1078.66 370.557V380.708L1089.23 374.601V364.452Z" fill="#7899CF"/>
<path fill-rule="evenodd" clip-rule="evenodd" d="M1078.73 370.557L1068.16 364.452V374.601L1078.73 380.707V370.557Z" fill="#5E7EB2"/>
<path fill-rule="evenodd" clip-rule="evenodd" d="M1092.01 361.408L1078.74 353.748L1065.55 361.36L1078.82 369.02L1092.01 361.408Z" fill="#EAF7F8"/>
<path fill-rule="evenodd" clip-rule="evenodd" d="M1078.73 369.045L1065.46 361.384V363.591L1078.73 371.251V369.045Z" fill="#5E7EB2"/>
<path fill-rule="evenodd" clip-rule="evenodd" d="M1092.05 361.384L1078.78 369.045V371.251L1092.05 363.591V361.384Z" fill="#8BB2F0"/>
<path fill-rule="evenodd" clip-rule="evenodd" d="M1089.23 350.981L1078.66 357.087V367.237L1089.23 361.131V350.981Z" fill="#7899CF"/>
<path fill-rule="evenodd" clip-rule="evenodd" d="M1078.73 357.088L1068.16 350.982V361.132L1078.73 367.237V357.088Z" fill="#5E7EB2"/>
<path fill-rule="evenodd" clip-rule="evenodd" d="M1092.01 347.245L1078.74 339.585L1065.55 347.197L1078.82 354.858L1092.01 347.245Z" fill="#F8FDFF"/>
<path fill-rule="evenodd" clip-rule="evenodd" d="M1078.73 354.881L1065.46 347.221V349.427L1078.73 357.088V354.881Z" fill="#5E7EB2"/>
<path fill-rule="evenodd" clip-rule="evenodd" d="M1092.05 347.221L1078.78 354.881V357.088L1092.05 349.427V347.221Z" fill="#8BB2F0"/>
<path fill-rule="evenodd" clip-rule="evenodd" d="M976.626 303.003C966.813 294.185 950.159 291.565 950.159 291.565L949.791 366.094L989.428 356.879C989.428 356.879 997.104 321.408 976.626 303.003Z" fill="#99B2E1"/>
<path fill-rule="evenodd" clip-rule="evenodd" d="M979.917 305.487C972.416 298.746 963.413 299.059 963.413 299.059V373.958L990.417 358.367C990.417 358.367 995.57 319.556 979.917 305.487Z" fill="#D3E7FD"/>
<path fill-rule="evenodd" clip-rule="evenodd" d="M949.791 291.195L963.413 299.059V373.958L949.791 366.093V291.195Z" fill="#99B2E1"/>
<path fill-rule="evenodd" clip-rule="evenodd" d="M975.332 318.88L963.413 325.762V320.551L975.332 313.67V318.88Z" fill="#7899CF"/>
<path fill-rule="evenodd" clip-rule="evenodd" d="M975.332 329.627L963.413 336.509V331.299L975.332 324.417V329.627Z" fill="#7899CF"/>
<path fill-rule="evenodd" clip-rule="evenodd" d="M975.332 340.374L963.413 347.255V342.045L975.332 335.163V340.374Z" fill="#7899CF"/>
<path fill-rule="evenodd" clip-rule="evenodd" d="M963.413 325.611L956.602 321.678V316.468L963.413 320.401V325.611Z" fill="#7899CF"/>
<path fill-rule="evenodd" clip-rule="evenodd" d="M963.413 336.683L956.602 332.75V327.54L963.413 331.472V336.683Z" fill="#7899CF"/>
<path fill-rule="evenodd" clip-rule="evenodd" d="M963.413 347.103L956.602 343.171V337.96L963.413 341.893V347.103Z" fill="#7899CF"/>
<path fill-rule="evenodd" clip-rule="evenodd" d="M1316.56 325.677C1318.49 325.677 1318.49 322.677 1316.56 322.677C1314.62 322.677 1314.62 325.677 1316.56 325.677Z" fill="#C8D7E8"/>
<path fill-rule="evenodd" clip-rule="evenodd" d="M1017.36 240.077L1015.15 241.351V234.42C1015.15 234.278 1015.15 234.106 1015.16 233.905C1015.16 233.705 1015.16 233.495 1015.17 233.274C1015.18 233.055 1015.18 232.834 1015.19 232.611C1015.2 232.389 1015.21 232.185 1015.21 232.003C1015.19 232.049 1015.15 232.122 1015.09 232.22C1015.03 232.318 1014.97 232.429 1014.9 232.549C1014.82 232.669 1014.75 232.792 1014.67 232.918C1014.6 233.044 1014.52 233.16 1014.45 233.266L1013.25 235.065L1012.18 234.16L1015.55 229.146L1017.36 228.098V240.077Z" fill="white"/>
<path fill-rule="evenodd" clip-rule="evenodd" d="M937.691 266.328C942.088 263.789 945.658 265.973 945.658 271.202C945.658 276.431 942.088 282.737 937.691 285.276C933.294 287.814 929.724 285.63 929.724 280.401C929.724 275.173 933.294 268.866 937.691 266.328Z" fill="#85939A"/>
<path fill-rule="evenodd" clip-rule="evenodd" d="M937.547 269.659C940.375 268.026 942.671 269.386 942.671 272.693C942.671 276.001 940.375 280.013 937.547 281.645C934.719 283.278 932.423 281.918 932.423 278.611C932.423 275.303 934.719 271.291 937.547 269.659Z" fill="#9BB6BD"/>
<path fill-rule="evenodd" clip-rule="evenodd" d="M937.416 271.995C939.23 270.948 940.703 271.788 940.703 273.871C940.703 275.954 939.23 278.495 937.416 279.543C935.602 280.59 934.129 279.749 934.129 277.666C934.129 275.584 935.602 273.042 937.416 271.995Z" fill="#BECED5"/>
<path fill-rule="evenodd" clip-rule="evenodd" d="M932.592 278.572L929.739 277.39C929.739 277.39 924.602 277.052 923.149 283.951C922.152 288.684 927.087 289.694 927.087 289.694C927.087 289.694 925.008 285.697 927.471 282.282C929.826 279.018 931.772 278.689 932.592 278.572Z" fill="#5E7EB2"/>
<path fill-rule="evenodd" clip-rule="evenodd" d="M930.351 275.975L930.622 277.764C930.622 277.764 911.567 300.496 903.251 299.531C899.272 299.69 894.02 295.329 899.379 275.506C900.842 273.695 905.07 272.27 905.07 272.27L930.351 275.975Z" fill="#98ABB7"/>
<path fill-rule="evenodd" clip-rule="evenodd" d="M903.087 280.621C903.087 280.621 903.301 281.316 902.957 281.651C902.613 281.987 898.603 284.602 897.992 284.851C897.859 284.01 898.135 283.455 898.135 283.455C898.135 283.455 902.817 280.635 903.087 280.621Z" fill="white"/>
<path fill-rule="evenodd" clip-rule="evenodd" d="M902.839 280.653C902.839 280.653 899.023 283.265 897.774 283.735C897.037 282.521 897.594 280.975 897.946 280.305C898.298 279.636 898.951 279.588 899.91 279.598C900.869 279.608 902.626 280.283 902.839 280.653Z" fill="#CFDFEC"/>
<path fill-rule="evenodd" clip-rule="evenodd" d="M938.105 248.759C938.105 248.759 943.132 250.048 946.218 257.048C943.071 261.721 931.68 272.587 919.378 273.674C913.913 274.114 910.961 274.211 908.232 268.994C905.503 263.776 912.728 263.727 913.59 263.228C914.452 262.728 929.125 245.811 938.105 248.759Z" fill="#7899CF"/>
<path fill-rule="evenodd" clip-rule="evenodd" d="M903.001 278.995C903.001 278.995 903.172 280.242 902.963 280.638C902.549 281.142 900.514 282.214 900.514 282.214C900.514 282.214 900.396 280.392 901.058 279.78C901.72 279.169 903.001 278.995 903.001 278.995Z" fill="#748EA1"/>
<path fill-rule="evenodd" clip-rule="evenodd" d="M947.925 259.281C947.925 259.281 944.899 251.361 932.352 257.968C919.805 264.575 918.693 280.886 918.693 280.886C918.693 280.886 920.111 281.348 921.499 281.135C921.752 279.056 923.761 265.968 933.925 260.715C944.088 255.463 947.925 259.281 947.925 259.281Z" fill="#99B2E1"/>
<path fill-rule="evenodd" clip-rule="evenodd" d="M918.763 281.136C918.763 281.136 919.034 283.493 918.897 283.929C918.76 284.365 918.904 284.559 917.763 284.689C916.622 284.819 914.629 285.18 912.293 284.153C909.957 283.126 904.126 281.365 903.924 276.059C905.059 274.377 905.55 274.308 905.55 274.308C905.55 274.308 910.26 281.68 915.375 281.335C917.981 281.139 918.763 281.136 918.763 281.136Z" fill="#7899CF"/>
<path fill-rule="evenodd" clip-rule="evenodd" d="M918.695 280.994C918.695 280.994 912.558 282.151 909.649 280.071C906.74 277.991 908.061 272.294 909.032 271.153C910.002 270.011 910.199 275.909 920.467 273.053C919.29 276.385 919.103 277.41 918.695 280.994Z" fill="#5E7EB2"/>
<path fill-rule="evenodd" clip-rule="evenodd" d="M939.244 248.743C939.244 248.743 939.482 250.903 935.915 252.533C932.347 254.162 933.403 253.124 933.403 253.124L933.89 251.611C933.89 251.611 936.025 251.668 937.407 249.801C938.788 247.933 939.244 248.743 939.244 248.743Z" fill="#BED6EA"/>
<path fill-rule="evenodd" clip-rule="evenodd" d="M951.271 255.033C951.271 255.033 952.724 254.32 954.044 256.443C954.346 258.098 953.863 258.474 953.591 258.713C953.31 258.96 953.939 257.298 952.998 256.422C952.057 255.546 951.271 255.033 951.271 255.033Z" fill="#ECC7A8"/>
<path fill-rule="evenodd" clip-rule="evenodd" d="M940.118 248.553C940.118 248.553 944.412 250.049 947.021 255.278C946.719 256.349 946.127 257.341 946.127 257.341C946.127 257.341 944.704 253.394 939.28 249.418C939.506 248.939 940.118 248.553 940.118 248.553Z" fill="#A1BEC5"/>
<path fill-rule="evenodd" clip-rule="evenodd" d="M949.388 256.705L948.268 257.803L946.401 256.491L947.007 255.409L949.388 256.705Z" fill="#ACC2CF"/>
<path fill-rule="evenodd" clip-rule="evenodd" d="M951.216 254.987C951.216 254.987 948.216 256.032 948.201 258.648C948.228 259.834 949.653 260.066 950.755 259.89C951.856 259.714 953.329 259.044 953.639 258.648C953.707 257.835 953.976 256.337 951.216 254.987Z" fill="#99B2E1"/>
<path fill-rule="evenodd" clip-rule="evenodd" d="M874.507 318.389C874.507 318.389 869.946 318.296 867.011 314.167C865.404 310.944 865.501 305.039 868.854 300.505C872.629 295.4 877.106 294.859 877.106 294.859L883.184 296.003C883.184 296.003 874.168 299.646 872.62 305.6C871.071 311.555 871.047 315.395 874.507 318.389Z" fill="#6B7279"/>
<path fill-rule="evenodd" clip-rule="evenodd" d="M941.785 247.308C941.785 247.308 947.522 248.381 947.43 253.738C947.36 254.539 946.916 255.494 946.916 255.494C946.916 255.494 944.774 250.78 940.308 248.705C941.352 247.495 941.785 247.308 941.785 247.308Z" fill="#F54070"/>
<path fill-rule="evenodd" clip-rule="evenodd" d="M943.778 246.404L942.531 251.539L941.785 250.829L942.987 246.92L943.778 246.404Z" fill="#BDD9EB"/>
<path fill-rule="evenodd" clip-rule="evenodd" d="M877.16 302.175C877.16 302.175 882.459 297.009 884.942 301.911C886.192 304.389 884.572 309.827 882.136 312.28C879.7 314.733 875.358 316.999 873.827 313.026C871.796 307.756 877.16 302.175 877.16 302.175Z" fill="#A0BAC0"/>
<path fill-rule="evenodd" clip-rule="evenodd" d="M879.087 297.337C883.87 294.576 887.753 296.793 887.753 302.284C887.753 307.776 883.87 314.476 879.087 317.238C874.305 319.999 870.422 317.782 870.422 312.291C870.422 306.799 874.305 300.099 879.087 297.337Z" fill="#85939A"/>
<path fill-rule="evenodd" clip-rule="evenodd" d="M879.51 302.391C881.753 301.096 883.574 302.136 883.574 304.711C883.574 307.286 881.753 310.428 879.51 311.723C877.267 313.017 875.447 311.978 875.447 309.403C875.447 306.828 877.267 303.686 879.51 302.391Z" fill="#BFCFD5"/>
<path fill-rule="evenodd" clip-rule="evenodd" d="M883.063 295.399C883.063 295.399 881.948 298.408 880.802 301.41C879.605 304.547 878.441 307.625 879.336 307.792C880.427 308.665 883.676 299.862 883.676 299.862L885.55 295.803L883.063 295.399Z" fill="#A3B4C1"/>
<path fill-rule="evenodd" clip-rule="evenodd" d="M908.434 251.357L898.021 258.015C898.021 258.015 896.824 258.858 895.918 260.463C895.013 262.069 896.722 278.858 896.722 278.858C896.722 278.858 898.082 280.729 900.056 280.55C902.03 280.372 903.298 278.673 903.298 278.673L904.552 269.205L912.955 256.888L908.434 251.357Z" fill="#626B6E"/>
<path fill-rule="evenodd" clip-rule="evenodd" d="M885.773 295.96L880.844 306.607C880.844 306.607 880.137 308.129 879.451 307.814C878.807 307.519 879.507 305.95 879.507 305.95L883.607 295.633L885.773 295.96Z" fill="#A8BAC8"/>
<path fill-rule="evenodd" clip-rule="evenodd" d="M897.325 257.389L901.295 259.727L899.892 260.556L896.862 258.622L897.325 257.389Z" fill="#99B2E1"/>
<path fill-rule="evenodd" clip-rule="evenodd" d="M899.203 251.679C899.203 251.679 896.863 260.713 896.524 261.855C893.143 261.1 889.956 259.023 889.956 259.023C889.956 259.023 891.854 251.161 892.314 250.432C892.773 249.702 894.62 250.079 895.88 250.261C897.14 250.443 899.203 251.679 899.203 251.679Z" fill="#8BB2F0"/>
<path fill-rule="evenodd" clip-rule="evenodd" d="M928.068 280.573C928.904 279.582 933.067 276.22 933.93 280.769C934.953 286.163 930.794 290.041 928.97 290.199C927.147 290.357 924.869 289.034 925.991 284.39C926.264 283.259 927.175 281.631 928.068 280.573Z" fill="#99B2E1"/>
<path fill-rule="evenodd" clip-rule="evenodd" d="M887.239 256.501C887.239 256.501 897.501 258.219 899.682 266.074C901.533 272.742 899.692 276.12 899.054 278.838C898.416 281.557 895.556 297.052 902.273 299.378C897.27 300.177 895.376 294.279 896.547 286.988C897.718 279.697 900.465 270.539 898.31 267.289C896.156 264.039 891.251 257.73 887.929 257.394C887.092 257.148 886.528 256.999 887.239 256.501Z" fill="#7198AA"/>
<path fill-rule="evenodd" clip-rule="evenodd" d="M892.676 259.341C892.676 259.341 887.295 254.567 883.46 258.615C879.625 262.663 876.215 271.628 877.123 280.217C878.031 288.806 887.304 303.526 901.795 303.143C912.242 302.868 922.212 289.662 927.526 281.626C929.988 277.903 932.702 278.556 932.702 278.556L930.592 277.648C930.592 277.648 929.39 277.385 927.311 279.84C922.761 285.214 912.747 295.337 908.344 297.645C902.304 300.809 896.026 300.779 896.606 289.687C897.185 278.596 900.166 274.09 898.921 268.452C897.675 262.814 892.676 259.341 892.676 259.341Z" fill="#7899CF"/>
<path fill-rule="evenodd" clip-rule="evenodd" d="M881.266 282.381L885.782 284.003C885.782 284.003 886.935 284.351 887.382 286.333C887.828 288.314 891.155 297.308 891.304 298.547C891.013 299.083 890.698 298.656 890.698 298.656C890.698 298.656 887.514 295.81 883.24 296.436C878.966 297.062 874.047 298.61 870.45 297.184C866.852 295.757 867.656 292.585 871.399 289.301C875.143 286.018 876.975 285.541 878.357 284.861C879.441 284.302 879.744 283.791 880.543 282.567C880.926 282.097 881.266 282.381 881.266 282.381Z" fill="#99B2E1"/>
<path fill-rule="evenodd" clip-rule="evenodd" d="M884.96 286.314C884.96 286.314 886.802 287.168 886.507 288.457C886.19 289.838 885.409 290.315 883.277 291.28C881.144 292.245 879.871 292.684 878.546 293.939C877.377 295.046 876.937 296.062 876.232 295.654C875.528 295.247 875.905 292.181 877.615 290.746C879.324 289.31 879.463 289.936 881.613 288.352C883.45 286.999 883.036 286.854 883.846 286.292C884.209 286.039 884.96 286.314 884.96 286.314Z" fill="#D3E7FD"/>
<path fill-rule="evenodd" clip-rule="evenodd" d="M887.419 256.433C887.419 256.433 895.362 257.423 895.647 260.764C893.943 263.747 889.2 272.97 887.265 281.602C887.01 282.583 886.417 283.444 885.708 283.341C884.999 283.238 881.379 281.805 881.379 281.805C881.379 281.805 880.219 281.882 880.256 277.993C880.293 274.103 880.343 265.799 885.808 257.638C886.489 256.618 887.419 256.433 887.419 256.433Z" fill="#99B2E1"/>
<path fill-rule="evenodd" clip-rule="evenodd" d="M883.052 262.287C883.052 262.287 884.691 261.314 887.056 261.774C889.422 262.234 889.67 265.816 889.022 267.461C888.659 268.384 886.668 270.301 883.921 269.117C881.175 267.932 883.052 262.287 883.052 262.287Z" fill="#AEC7CC"/>
<path fill-rule="evenodd" clip-rule="evenodd" d="M884.533 262.153C884.774 262.168 888.078 262.388 887.768 266.248C887.611 268.209 885.733 268.979 884.776 269.024C883.305 269.093 881.176 267.78 881.408 265.276C881.609 263.095 883.658 262.098 884.533 262.153Z" fill="#E7EDE0"/>
<path fill-rule="evenodd" clip-rule="evenodd" d="M899.787 260.321C899.787 260.321 902.676 258.423 904.154 260.287C904.463 261.865 903.468 263.18 901.829 263.886C901.254 264.001 899.787 260.321 899.787 260.321Z" fill="#99B2E1"/>
<path fill-rule="evenodd" clip-rule="evenodd" d="M887.721 250.955C887.721 250.955 885.668 249.322 883.259 251.301C881.856 252.483 882.264 254.88 883.798 254.915C885.329 254.95 886.39 254.56 887.041 253.728C887.693 252.895 887.897 252.153 887.721 250.955Z" fill="#99B2E1"/>
<path fill-rule="evenodd" clip-rule="evenodd" d="M883.795 250.978C883.795 250.978 886.095 251.933 885.748 254.79C884.624 255.147 882.893 255.294 882.404 254.008C881.915 252.722 882.661 251.14 883.795 250.978Z" fill="#F5DC5F"/>
<path fill-rule="evenodd" clip-rule="evenodd" d="M899.799 260.323C899.799 260.323 902.298 260.243 901.724 263.922C900.719 264.092 898.902 264.111 898.742 262.633C898.552 260.883 899.799 260.323 899.799 260.323Z" fill="#F5DC5F"/>
<path fill-rule="evenodd" clip-rule="evenodd" d="M891.257 254.468L887.476 252.041C887.476 252.041 886.218 251.593 886.41 253.071C887.01 253.615 890.827 255.784 890.827 255.784L891.257 254.468Z" fill="#99B2E1"/>
<path fill-rule="evenodd" clip-rule="evenodd" d="M883.495 247.389C883.495 247.389 882.324 247.592 882.991 248.302C883.158 248.456 883.518 248.459 883.642 248.039C883.819 247.875 884.3 247.716 885.193 248.22C886.085 248.725 886.49 248.441 886.594 248.355C886.698 248.269 886.44 248.038 886.44 248.038C886.44 248.038 885.909 248.172 884.787 247.573C884.255 247.343 883.495 247.389 883.495 247.389Z" fill="#D3E2E6"/>
<path fill-rule="evenodd" clip-rule="evenodd" d="M887.714 246.488L885.459 245.193C885.459 245.193 884.502 245.347 884.641 246.705C885.596 247.253 886.979 248.105 886.979 248.105L887.714 246.488Z" fill="#CADCDE"/>
<path fill-rule="evenodd" clip-rule="evenodd" d="M906.738 234.779C906.738 234.779 906.919 238.456 906.486 239.218C906.052 239.98 904.417 242.522 899.665 244.324C894.912 246.126 894.1 246.363 894.1 246.363C894.1 246.363 893.8 248.284 893.355 248.644C892.909 249.003 889.796 251.093 889.191 250.965C888.586 250.837 888.735 250.369 889.132 249.9C889.529 249.431 891.278 249.526 891.002 248.075C890.953 247.817 889.998 247.878 889.716 248.149C889.434 248.421 888.225 250.364 887.379 250.345C886.008 250.313 885.61 246.921 886.423 245.809C887.236 244.697 892.256 243.671 892.256 243.671C892.256 243.671 901.382 237.712 901.981 236.958C902.579 236.203 903.039 234.914 903.126 234.182C904.353 234.194 906.738 234.779 906.738 234.779Z" fill="#E9C5AD"/>
<path fill-rule="evenodd" clip-rule="evenodd" d="M896.164 250.092C897.184 250.359 899.567 251.356 899.064 251.99C898.257 253.005 891.38 251.385 892.435 250.192C893.039 249.51 895.134 249.823 896.164 250.092Z" fill="#7899CF"/>
<path fill-rule="evenodd" clip-rule="evenodd" d="M884.947 241.269L890.076 247.949L889.724 248.226L884.677 241.474L884.947 241.269Z" fill="#A7C9E4"/>
<path fill-rule="evenodd" clip-rule="evenodd" d="M890.344 247.808C890.344 247.808 891.385 247.601 891.091 248.934C890.84 249.633 889.767 250.586 889.138 249.826C888.509 249.066 889.666 247.922 890.344 247.808Z" fill="#7EACBF"/>
<path fill-rule="evenodd" clip-rule="evenodd" d="M890.549 248.398C890.549 248.398 892.521 249.732 891.824 252.416C891.116 255.142 892.35 255.604 892.745 255.777C893.394 256.061 894.653 256.327 896.364 254.075C898.031 251.882 900.601 252.984 901.129 253.363C900.739 253.935 900.552 254.493 900.605 254.925C899.864 254.566 898.785 253.256 897.33 254.981C895.876 256.707 894.561 258.023 891.878 256.877C889.195 255.73 890.767 252.54 890.679 251.207C890.59 249.874 890.138 249.826 889.817 249.439C889.744 249.119 889.693 248.6 890.549 248.398Z" fill="#A6BAC8"/>
<path fill-rule="evenodd" clip-rule="evenodd" d="M916.895 239.239L935.968 251.21L936.084 228.646L916.956 217.792L916.895 239.239Z" fill="#BF2F41"/>
<path fill-rule="evenodd" clip-rule="evenodd" d="M917 217.5L943.079 202.676L961.986 213.583L935.904 228.603L917 217.5Z" fill="#FF445D"/>
<path fill-rule="evenodd" clip-rule="evenodd" d="M935.913 251.274L961.532 236.396L961.708 213.786L935.985 228.588L935.913 251.274Z" fill="#FF445D"/>
<path fill-rule="evenodd" clip-rule="evenodd" d="M961.918 213.5V218.5L935.907 233.88L935.925 228.503L961.918 213.5Z" fill="#CC374A"/>
<path fill-rule="evenodd" clip-rule="evenodd" d="M917 217.5V222.5L935.952 233.599L935.909 228.509L917 217.5Z" fill="#AD2738"/>
<path fill-rule="evenodd" clip-rule="evenodd" d="M913.937 265.01C913.937 265.01 919.877 266.356 925.99 261.775C932.103 257.193 934.47 252.987 934.569 250.278C933.049 249.27 931.232 248.232 931.232 248.232C931.232 248.232 927.493 260.516 919.266 261.65C917.738 261.993 916.127 263.254 916.127 263.254L913.937 265.01Z" fill="#849299"/>
<path fill-rule="evenodd" clip-rule="evenodd" d="M928.03 244.963C928.03 244.963 933.398 247.432 930.936 252.442C928.474 257.452 923.308 262.236 917.819 262.13C912.329 262.025 921.167 250.572 921.167 250.572C921.167 250.572 924.024 243.843 928.03 244.963Z" fill="#94A2AA"/>
<path fill-rule="evenodd" clip-rule="evenodd" d="M932.313 275.636C932.313 275.636 936.133 277.801 940.743 275.011C945.353 272.22 949.843 268.492 949.843 268.492C949.843 268.492 948.555 264.6 946.433 265.259C944.311 265.917 932.106 275.599 932.313 275.636Z" fill="#7899CF"/>
<path fill-rule="evenodd" clip-rule="evenodd" d="M914.707 288.031C914.707 288.031 915.066 289.272 913.989 289.929C912.912 290.586 908.738 292.707 907.175 293.448C905.975 294.016 902.168 295.519 900.257 293.278C900.114 292.78 900.001 292.354 900.329 292.152C900.903 292.653 902.58 293.504 904.382 293.188C906.184 292.873 914.672 288.049 914.707 288.031Z" fill="white"/>
<path fill-rule="evenodd" clip-rule="evenodd" d="M914.032 286.303L914.259 288.338C914.259 288.338 908.818 292.052 904.927 293.279C901.14 294.473 899.461 291.482 901.666 290.012C903.871 288.542 905.72 287.502 906.449 285.989C907.179 284.476 914.032 286.303 914.032 286.303Z" fill="#CFDFEC"/>
<path fill-rule="evenodd" clip-rule="evenodd" d="M900.924 290.427C900.924 290.427 903.502 290.806 905.096 293.13C903.611 293.645 902.193 293.831 900.463 292.91C899.738 292.524 900.086 291.089 900.924 290.427Z" fill="#748EA1"/>
<path fill-rule="evenodd" clip-rule="evenodd" d="M913.918 285.965C913.918 285.965 911.266 286.415 911.343 290.127C912.519 289.615 914.048 288.815 914.536 288.156C914.347 285.924 913.811 285.949 913.918 285.965Z" fill="#748EA1"/>
<path fill-rule="evenodd" clip-rule="evenodd" d="M926.435 253.082C926.435 253.082 927.26 255.412 922.802 258.871C918.345 262.331 913.894 265.168 912.636 267.648C911.379 270.127 913.26 278.015 913.612 281.527C913.963 285.038 914.94 286.576 913.246 287.135C911.552 287.694 907.793 288.035 906.232 286.522C906.34 285.338 906.607 285.094 906.416 283.275C906.225 281.457 904.675 271.695 904.24 269.422C903.804 267.149 902.263 265.999 910.433 257.593C918.603 249.187 926.435 253.082 926.435 253.082Z" fill="#6A7780"/>
<path fill-rule="evenodd" clip-rule="evenodd" d="M908.839 220.722C908.839 220.722 905.209 219.772 904.356 224.396C903.503 229.021 902.884 234.061 902.884 234.061C902.884 234.061 904.051 235.329 906.427 235.226C906.666 232.352 908.839 220.722 908.839 220.722Z" fill="#9E422B"/>
<path fill-rule="evenodd" clip-rule="evenodd" d="M914.518 220.483C914.518 220.483 911.347 219.071 909.169 219.857C906.991 220.644 904.987 221.839 905.378 227.741C905.769 233.642 907.473 252.911 907.928 253.829C908.53 254.761 914.276 259.111 919.273 258.121C924.27 257.13 927.315 254.71 927.35 252.563C927.386 250.417 926.017 240.846 925.609 234.635C925.201 228.425 926.727 225.52 918.669 221.927C915.475 220.747 914.518 220.483 914.518 220.483Z" fill="#FF6944"/>
<path fill-rule="evenodd" clip-rule="evenodd" d="M902.824 253.821L908.053 256.687C908.053 256.687 907.133 256.835 907.14 258.257C906.21 257.837 901.841 255.652 901.841 255.652C901.841 255.652 901.704 253.791 902.824 253.821Z" fill="#CADCDE"/>
<path fill-rule="evenodd" clip-rule="evenodd" d="M918.734 238.702C918.734 238.702 922.144 239.762 924.547 238.234C924.65 239.726 924.468 243.836 923.95 245.084C923.432 246.331 921.298 248.476 919.691 249.404C918.083 250.333 909.024 255.017 909.024 255.017C909.024 255.017 906.443 257.728 904.958 257.797C903.473 257.865 901.916 257.191 901.999 256.212C902.083 255.234 902.144 254.189 904.629 253.051C907.115 251.912 913.825 246.843 915.232 245.797C916.639 244.751 918.375 243.624 918.461 242.589C918.547 241.554 918.734 238.702 918.734 238.702Z" fill="#E9C5AD"/>
<path fill-rule="evenodd" clip-rule="evenodd" d="M921.463 225.821C921.463 225.821 923.177 224.606 924.632 226.595C926.087 228.584 926.701 237.648 926.701 237.648C926.701 237.648 923.16 240.22 920.415 239.634C917.671 239.047 918.311 238.231 918.387 234.851C918.463 231.47 918.521 227.75 921.463 225.821Z" fill="#9E422B"/>
<path fill-rule="evenodd" clip-rule="evenodd" d="M916.404 215.121C916.404 215.121 915.536 219.652 917.475 221.011C919.414 222.369 919.717 222.339 919.717 222.339C919.717 222.339 918.032 223.164 915.3 226.46C913.209 228.983 910.211 227.085 910.008 225.683C909.684 223.436 910.049 222.341 910.058 221.338C910.067 220.335 916.404 215.121 916.404 215.121Z" fill="#E9C5AD"/>
<path fill-rule="evenodd" clip-rule="evenodd" d="M903.961 213.706C903.961 213.706 905.451 220.139 907.469 222.022C909.075 223.519 910.312 223.074 911.262 222.951C913.183 222.702 914.847 220.225 915.534 218.992C916.203 217.79 915.586 215.069 915.586 215.069L912.813 209.964L903.961 213.706Z" fill="#FECFB7"/>
<path fill-rule="evenodd" clip-rule="evenodd" d="M909.856 212.539C909.856 212.539 911.404 212.757 911.693 214.473C911.981 216.19 913.12 216.215 913.416 216.213C913.33 215.613 913.051 214.468 913.117 213.556C913.183 212.644 912.195 211.042 911.622 211.315C911.049 211.589 910.362 212.036 909.856 212.539Z" fill="#510000"/>
<path fill-rule="evenodd" clip-rule="evenodd" d="M912.578 211.604C912.578 211.604 907.346 214.585 902.434 214.236C900.251 214.117 901.449 212.249 902.241 211.825C903.44 211.844 912.578 211.604 912.578 211.604Z" fill="#CC374A"/>
<path fill-rule="evenodd" clip-rule="evenodd" d="M911.361 211.9C911.361 211.9 902.821 212.367 902.233 211.962C902.039 211.094 901.775 206.975 905.292 203.879C908.809 200.783 913.214 202.318 914.4 202.874C915.586 203.431 919.194 206.243 918.877 210.133C918.56 214.024 916.625 216.799 915.059 217.222C914.249 217.465 912.991 213.869 912.799 213.012C912.547 211.888 911.851 211.911 911.361 211.9Z" fill="#FF445D"/>
<path fill-rule="evenodd" clip-rule="evenodd" d="M900.844 250.355L898.367 251.887C898.367 251.887 897.937 252.075 897.997 253.334C898.234 253.388 898.362 253.147 898.362 253.147C898.362 253.147 898.256 252.44 898.651 252.085C899.137 251.648 900.96 250.837 900.96 250.837L900.844 250.355Z" fill="#A7C9E4"/>
<path fill-rule="evenodd" clip-rule="evenodd" d="M902.603 246.905C902.603 246.905 905.481 248.022 905.233 251.381C905.107 253.088 903.565 253.028 903.211 252.994C902.32 252.907 900.354 251.575 900.446 248.896C900.53 246.452 902.603 246.905 902.603 246.905Z" fill="#8BB2F0"/>
<path fill-rule="evenodd" clip-rule="evenodd" d="M947.874 259.168C947.874 259.168 950.179 262.073 949.282 263.161C948.384 264.248 942.571 267.259 936.701 272.084C930.831 276.909 928.193 277.726 927.279 278.627C926.364 279.527 924.95 281.469 921.317 281.119C921.71 278.945 922.668 266.87 934.037 260.658C943.649 255.406 947.874 259.168 947.874 259.168Z" fill="#D3E7FD"/>
<path fill-rule="evenodd" clip-rule="evenodd" d="M928.727 281.457C929.472 280.581 932.438 278.047 933.072 281.685C933.664 285.08 930.583 288.655 929.197 288.775C927.81 288.895 926.083 288.047 927.062 284.384C927.266 283.624 927.909 282.418 928.727 281.457Z" fill="#D3E7FD"/>
<path fill-rule="evenodd" clip-rule="evenodd" d="M903.182 253.669L901.967 252.958C901.967 252.958 900.388 253.208 900.594 255.18C901.419 255.758 901.886 255.883 901.886 255.883C901.886 255.883 901.666 254.348 903.182 253.669Z" fill="#8DBDE2"/>
<path fill-rule="evenodd" clip-rule="evenodd" d="M911.297 234.066L908.539 232.712L909.121 241.338L911.879 242.692C914.461 243.959 915.814 242.89 915.643 240.364C915.475 237.864 913.859 235.323 911.297 234.066V234.066ZM910.291 235.032L911.399 235.576C912.931 236.327 913.873 237.77 913.994 239.555C914.116 241.366 913.327 241.943 911.777 241.183L910.669 240.639L910.291 235.032Z" fill="white"/>
<path fill-rule="evenodd" clip-rule="evenodd" d="M938.665 238.438L937.561 239.076V242.404L938.665 241.766C939.699 241.17 940.289 240.137 940.289 239.163C940.289 238.198 939.691 237.846 938.665 238.438V238.438ZM938.222 239.277L938.665 239.021C939.279 238.666 939.629 238.856 939.629 239.544C939.629 240.243 939.286 240.826 938.665 241.184L938.222 241.44V239.277Z" fill="white"/>
<path fill-rule="evenodd" clip-rule="evenodd" d="M941.941 237.441C941.123 237.914 940.687 238.732 940.687 239.411C940.687 240.09 941.123 240.404 941.941 239.931C942.767 239.455 943.196 238.653 943.196 237.962C943.196 237.261 942.746 236.977 941.941 237.441ZM941.941 237.983C942.311 237.77 942.555 237.875 942.555 238.332C942.555 238.786 942.32 239.171 941.941 239.39C941.571 239.604 941.328 239.484 941.328 239.041C941.328 238.597 941.571 238.197 941.941 237.983Z" fill="white"/>
<path fill-rule="evenodd" clip-rule="evenodd" d="M944.574 235.926C944.05 236.23 943.551 236.752 943.551 237.251C943.551 237.788 943.921 237.654 944.484 237.428C944.691 237.348 944.875 237.261 944.875 237.459C944.875 237.643 944.705 237.811 944.471 237.945C944.146 238.13 943.811 238.188 943.664 238.152L943.485 238.688C943.709 238.764 944.104 238.654 944.471 238.441C944.98 238.156 945.503 237.629 945.503 237.12C945.503 236.492 945.042 236.711 944.476 236.935C944.315 236.997 944.184 237.037 944.184 236.882C944.184 236.722 944.36 236.548 944.574 236.426C944.793 236.302 945.076 236.211 945.248 236.2L945.423 235.664C945.196 235.644 944.881 235.747 944.574 235.926Z" fill="white"/>
<path fill-rule="evenodd" clip-rule="evenodd" d="M946.703 234.119L946.062 234.489V235.119L945.715 235.319V235.826L946.062 235.626V236.521C946.062 236.905 946.192 237.089 946.408 237.124C946.618 237.16 946.911 237.049 947.244 236.846V236.336C947.076 236.426 946.938 236.469 946.843 236.44C946.754 236.413 946.703 236.323 946.703 236.151V235.256L947.205 234.967V234.459L946.703 234.748V234.119Z" fill="white"/>
<path fill-rule="evenodd" clip-rule="evenodd" d="M948.681 233.55C948.342 233.746 947.982 234.056 947.694 234.389L947.845 234.71C948.016 234.512 948.295 234.259 948.544 234.109C948.828 233.94 949.093 233.913 949.101 234.206L949.102 234.315C948.922 234.329 948.695 234.413 948.474 234.547C948.007 234.832 947.554 235.339 947.554 235.886C947.554 236.435 948.016 236.46 948.467 236.168C948.73 236.001 948.973 235.743 949.15 235.42L949.178 235.697L949.743 235.371V233.851C949.743 233.218 949.235 233.23 948.681 233.55ZM948.626 234.877C948.799 234.777 948.977 234.72 949.103 234.729V235.06C948.973 235.297 948.804 235.46 948.627 235.57C948.38 235.727 948.153 235.74 948.153 235.499C948.153 235.256 948.375 235.023 948.626 234.877Z" fill="white"/>
<path fill-rule="evenodd" clip-rule="evenodd" d="M952.421 231.448L951.768 231.824L951.189 233.831L950.61 232.493L949.957 232.87L950.861 234.725L951.517 234.347L952.421 231.448Z" fill="white"/>
<path fill-rule="evenodd" clip-rule="evenodd" d="M953.113 230.071C952.922 230.181 952.768 230.42 952.768 230.606C952.768 230.791 952.922 230.852 953.113 230.741C953.304 230.631 953.459 230.392 953.459 230.207C953.459 230.021 953.304 229.961 953.113 230.071ZM953.434 230.863L952.792 231.233V233.61L953.434 233.24V230.863Z" fill="white"/>
<path fill-rule="evenodd" clip-rule="evenodd" d="M954.913 229.957C954.39 230.261 953.89 230.783 953.89 231.282C953.89 231.818 954.26 231.684 954.824 231.458C955.031 231.379 955.215 231.291 955.215 231.49C955.215 231.673 955.044 231.842 954.81 231.975C954.485 232.161 954.15 232.219 954.003 232.182L953.824 232.718C954.049 232.795 954.443 232.684 954.811 232.472C955.319 232.187 955.842 231.659 955.842 231.15C955.842 230.522 955.382 230.742 954.815 230.966C954.655 231.027 954.523 231.067 954.523 230.913C954.523 230.752 954.7 230.579 954.913 230.457C955.132 230.333 955.415 230.241 955.588 230.231L955.763 229.694C955.536 229.674 955.22 229.778 954.913 229.957Z" fill="white"/>
<path fill-rule="evenodd" clip-rule="evenodd" d="M957.043 228.15L956.401 228.52V229.149L956.055 229.35V229.857L956.401 229.657V230.552C956.401 230.936 956.531 231.12 956.747 231.154C956.958 231.191 957.25 231.08 957.583 230.877V230.367C957.415 230.457 957.277 230.499 957.183 230.471C957.093 230.444 957.043 230.354 957.043 230.182V229.287L957.544 228.997V228.49L957.043 228.779V228.15Z" fill="white"/>
<path fill-rule="evenodd" clip-rule="evenodd" d="M959.021 227.581C958.682 227.777 958.322 228.087 958.034 228.419L958.184 228.741C958.356 228.543 958.634 228.289 958.883 228.14C959.168 227.97 959.433 227.944 959.441 228.237L959.441 228.345C959.261 228.36 959.035 228.444 958.813 228.578C958.346 228.862 957.894 229.369 957.894 229.917C957.894 230.465 958.355 230.491 958.807 230.198C959.069 230.031 959.312 229.774 959.49 229.45L959.517 229.728L960.083 229.401V227.881C960.083 227.248 959.575 227.261 959.021 227.581ZM958.965 228.908C959.138 228.807 959.316 228.751 959.443 228.76V229.09C959.312 229.327 959.143 229.49 958.966 229.601C958.72 229.757 958.492 229.771 958.492 229.53C958.492 229.286 958.715 229.054 958.965 228.908Z" fill="white"/>
<path fill-rule="evenodd" clip-rule="evenodd" d="M883.569 237.689C883.569 237.689 886.144 238.453 886.108 242.14C886.101 242.895 885.25 243.996 883.725 243.492C882.841 243.2 881.022 241.613 881.104 239.662C881.213 237.084 883.569 237.689 883.569 237.689Z" fill="#8BB2F0"/>
<defs>
<linearGradient id="paint0_linear" x1="1287.43" y1="908.163" x2="1435.94" y2="29.1028" gradientUnits="userSpaceOnUse">
<stop stop-color="#F5FBFF" stop-opacity="0.01"/>
<stop offset="0.193074" stop-color="#EBF3FA"/>
<stop offset="0.768219" stop-color="#C8D7E8"/>
<stop offset="1" stop-color="#C8D7E8" stop-opacity="0.01"/>
</linearGradient>
</defs>
</svg>