<svg width="160" height="160" viewBox="0 0 160 160" fill="none" xmlns="http://www.w3.org/2000/svg">
<path d="M39.5828 84.055L23.5943 91.7339C23.5943 91.7339 21.0725 93.1869 23.5943 95.398C26.1161 97.6092 47.268 111.178 47.268 111.178C47.268 111.178 53.0442 110.114 59.1754 114.655C65.3067 119.196 72.8925 128.354 84.7441 128.354C96.5958 128.354 113.401 149.221 120.14 145.536C126.88 141.85 110.787 129.479 110.787 129.479L99.8571 117.646C99.8571 117.646 93.9837 113.881 88.5981 111.178C83.2126 108.474 51.8984 86.6068 48.494 84.4946C45.0895 82.3824 39.5828 84.055 39.5828 84.055Z" fill="#E4D4D4"/>
<path fill-rule="evenodd" clip-rule="evenodd" d="M48.6889 86.8382C44.1068 84.2004 40.3867 86.4698 40.3867 91.9027C40.3867 97.3357 44.1068 103.888 48.6889 106.526C53.271 109.164 56.991 106.894 56.991 101.461C56.991 96.0283 53.271 89.476 48.6889 86.8382Z" fill="#85939A"/>
<path fill-rule="evenodd" clip-rule="evenodd" d="M48.8385 90.2992C45.8913 88.6027 43.4986 90.0156 43.4986 93.4526C43.4986 96.8896 45.8913 101.057 48.8385 102.754C51.7857 104.451 54.1785 103.038 54.1785 99.6006C54.1785 96.1636 51.7857 91.9959 48.8385 90.2992Z" fill="#9BB6BD"/>
<path fill-rule="evenodd" clip-rule="evenodd" d="M48.9753 92.7268C47.0851 91.6387 45.5505 92.5122 45.5505 94.6763C45.5505 96.8403 47.0851 99.4807 48.9753 100.569C50.8655 101.657 52.4002 100.784 52.4002 98.6195C52.4002 96.4554 50.8655 93.815 48.9753 92.7268Z" fill="#BECED5"/>
<path fill-rule="evenodd" clip-rule="evenodd" d="M54.0024 99.5605L56.9754 98.3324C56.9754 98.3324 62.3288 97.9811 63.8429 105.15C64.8815 110.067 59.7391 111.117 59.7391 111.117C59.7391 111.117 61.9058 106.964 59.339 103.416C56.8847 100.024 54.8564 99.682 54.0024 99.5605Z" fill="#5E7EB2"/>
<path fill-rule="evenodd" clip-rule="evenodd" d="M56.3379 96.8617L56.0553 98.7211C56.0553 98.7211 75.9114 122.341 84.5777 121.338C88.7244 121.503 94.1973 116.971 88.6122 96.3747C87.0886 94.493 82.6821 93.0121 82.6821 93.0121L56.3379 96.8617Z" fill="#98ABB7"/>
<path fill-rule="evenodd" clip-rule="evenodd" d="M84.7482 101.689C84.7482 101.689 84.5253 102.411 84.8841 102.76C85.243 103.109 89.4213 105.826 90.058 106.085C90.1963 105.211 89.9094 104.634 89.9094 104.634C89.9094 104.634 85.03 101.704 84.7482 101.689Z" fill="white"/>
<path fill-rule="evenodd" clip-rule="evenodd" d="M85.0067 101.723C85.0067 101.723 88.9834 104.436 90.2854 104.925C91.0533 103.664 90.473 102.057 90.1062 101.362C89.7394 100.666 89.0586 100.616 88.0591 100.627C87.0595 100.637 85.2286 101.338 85.0067 101.723Z" fill="#CFDFEC"/>
<path fill-rule="evenodd" clip-rule="evenodd" d="M48.2577 68.584C48.2577 68.584 43.019 69.9233 39.8025 77.1964C43.0825 82.052 54.9527 93.342 67.7724 94.4711C73.4668 94.9284 76.5431 95.0297 79.3869 89.6084C82.2306 84.1871 74.7017 84.1363 73.8034 83.6172C72.9052 83.0981 57.615 65.5203 48.2577 68.584Z" fill="#7899CF"/>
<path fill-rule="evenodd" clip-rule="evenodd" d="M84.8378 99.9999C84.8378 99.9999 84.6595 101.296 84.8777 101.707C85.3096 102.231 87.4294 103.345 87.4294 103.345C87.4294 103.345 87.5529 101.451 86.8632 100.816C86.1734 100.18 84.8378 99.9999 84.8378 99.9999Z" fill="#748EA1"/>
<path fill-rule="evenodd" clip-rule="evenodd" d="M38.0238 79.5168C38.0238 79.5168 41.177 71.288 54.2519 78.1525C67.3269 85.017 68.486 101.965 68.486 101.965C68.486 101.965 67.0087 102.445 65.5622 102.224C65.2983 100.063 63.2045 86.4641 52.6132 81.0067C42.0221 75.5494 38.0238 79.5168 38.0238 79.5168Z" fill="#99B2E1"/>
<path fill-rule="evenodd" clip-rule="evenodd" d="M68.413 102.224C68.413 102.224 68.1303 104.674 68.273 105.127C68.4158 105.58 68.2661 105.781 69.4554 105.916C70.6447 106.051 72.7213 106.426 75.1554 105.359C77.5894 104.293 83.666 102.463 83.8761 96.949C82.6939 95.2016 82.1817 95.1299 82.1817 95.1299C82.1817 95.1299 77.274 102.79 71.9436 102.431C69.2278 102.228 68.413 102.224 68.413 102.224Z" fill="#7899CF"/>
<path fill-rule="evenodd" clip-rule="evenodd" d="M68.4841 102.077C68.4841 102.077 74.879 103.279 77.9103 101.117C80.9416 98.9562 79.5652 93.037 78.5537 91.8514C77.5424 90.6656 77.3372 96.7932 66.6377 93.8264C67.8635 97.2883 68.0589 98.3532 68.4841 102.077Z" fill="#5E7EB2"/>
<path fill-rule="evenodd" clip-rule="evenodd" d="M47.0705 68.5677C47.0705 68.5677 46.8223 70.8118 50.5398 72.5049C54.2572 74.198 53.1572 73.1194 53.1572 73.1194L52.6493 71.5469C52.6493 71.5469 50.4243 71.6067 48.985 69.6665C47.5457 67.7262 47.0705 68.5677 47.0705 68.5677Z" fill="#BED6EA"/>
<path fill-rule="evenodd" clip-rule="evenodd" d="M34.537 75.1026C34.537 75.1026 33.0236 74.3616 31.6472 76.5675C31.3326 78.2874 31.8363 78.6778 32.1195 78.9259C32.413 79.1828 31.7575 77.4562 32.7377 76.5458C33.718 75.6353 34.537 75.1026 34.537 75.1026Z" fill="#ECC7A8"/>
<path fill-rule="evenodd" clip-rule="evenodd" d="M46.1591 68.3703C46.1591 68.3703 41.6852 69.9242 38.9663 75.3575C39.2804 76.4706 39.8973 77.5011 39.8973 77.5011C39.8973 77.5011 41.3811 73.3993 47.0327 69.2683C46.7977 68.7712 46.1591 68.3703 46.1591 68.3703Z" fill="#A1BEC5"/>
<path fill-rule="evenodd" clip-rule="evenodd" d="M36.4999 76.8405L37.6663 77.9809L39.6128 76.6178L38.9809 75.4933L36.4999 76.8405Z" fill="#ACC2CF"/>
<path fill-rule="evenodd" clip-rule="evenodd" d="M34.5943 75.0549C34.5943 75.0549 37.7204 76.1406 37.7363 78.8589C37.7086 80.0916 36.2231 80.3322 35.0755 80.1494C33.9278 79.9665 32.393 79.27 32.0697 78.8587C31.9993 78.0146 31.7188 76.4575 34.5943 75.0549Z" fill="#99B2E1"/>
<path fill-rule="evenodd" clip-rule="evenodd" d="M114.531 140.932C114.531 140.932 119.284 140.835 122.342 136.545C124.017 133.196 123.916 127.061 120.422 122.35C116.488 117.045 111.823 116.484 111.823 116.484L105.489 117.672C105.489 117.672 114.884 121.457 116.498 127.644C118.111 133.831 118.137 137.821 114.531 140.932Z" fill="#6B7279"/>
<path fill-rule="evenodd" clip-rule="evenodd" d="M44.4224 67.0766C44.4224 67.0766 38.4438 68.1908 38.5403 73.7577C38.6129 74.5896 39.0759 75.5817 39.0759 75.5817C39.0759 75.5817 41.3076 70.6837 45.9617 68.5278C44.8732 67.2705 44.4224 67.0766 44.4224 67.0766Z" fill="#F54070"/>
<path fill-rule="evenodd" clip-rule="evenodd" d="M42.3456 66.1369L43.6453 71.4726L44.423 70.7346L43.1697 66.6736L42.3456 66.1369Z" fill="#BDD9EB"/>
<path fill-rule="evenodd" clip-rule="evenodd" d="M111.766 124.085C111.766 124.085 106.244 118.718 103.657 123.81C102.355 126.385 104.043 132.036 106.581 134.585C109.119 137.133 113.644 139.488 115.24 135.36C117.357 129.884 111.766 124.085 111.766 124.085Z" fill="#A0BAC0"/>
<path fill-rule="evenodd" clip-rule="evenodd" d="M109.758 119.058C104.774 116.189 100.728 118.492 100.728 124.198C100.728 129.904 104.774 136.866 109.758 139.735C114.742 142.604 118.788 140.301 118.788 134.595C118.788 128.889 114.742 121.927 109.758 119.058Z" fill="#85939A"/>
<path fill-rule="evenodd" clip-rule="evenodd" d="M109.318 124.309C106.98 122.964 105.083 124.044 105.083 126.719C105.083 129.395 106.98 132.66 109.318 134.005C111.654 135.35 113.552 134.27 113.552 131.595C113.552 128.919 111.654 125.655 109.318 124.309Z" fill="#BFCFD5"/>
<path fill-rule="evenodd" clip-rule="evenodd" d="M105.615 117.044C105.615 117.044 106.777 120.171 107.971 123.29C109.219 126.549 110.432 129.747 109.499 129.921C108.363 130.828 104.976 121.681 104.976 121.681L103.024 117.464L105.615 117.044Z" fill="#A3B4C1"/>
<path fill-rule="evenodd" clip-rule="evenodd" d="M79.1767 71.283L90.0283 78.2009C90.0283 78.2009 91.2753 79.0769 92.2189 80.7451C93.1625 82.4132 91.381 99.8576 91.381 99.8576C91.381 99.8576 89.9646 101.802 87.9072 101.616C85.8499 101.43 84.5291 99.6651 84.5291 99.6651L83.2217 89.8274L74.4652 77.0303L79.1767 71.283Z" fill="#626B6E"/>
<path fill-rule="evenodd" clip-rule="evenodd" d="M102.792 117.627L107.927 128.689C107.927 128.689 108.664 130.271 109.379 129.944C110.05 129.638 109.321 128.007 109.321 128.007L105.049 117.287L102.792 117.627Z" fill="#A8BAC8"/>
<path fill-rule="evenodd" clip-rule="evenodd" d="M90.753 77.5504L86.6165 79.9804L88.0778 80.8414L91.2352 78.8322L90.753 77.5504Z" fill="#99B2E1"/>
<path fill-rule="evenodd" clip-rule="evenodd" d="M88.7957 71.6179C88.7957 71.6179 91.2343 81.005 91.5876 82.1909C95.1108 81.4067 98.4321 79.249 98.4321 79.249C98.4321 79.249 96.4542 71.0802 95.9753 70.322C95.4964 69.5639 93.572 69.956 92.2589 70.1448C90.9456 70.3337 88.7957 71.6179 88.7957 71.6179Z" fill="#8BB2F0"/>
<path fill-rule="evenodd" clip-rule="evenodd" d="M58.7164 101.639C57.8452 100.61 53.5067 97.1168 52.6077 101.843C51.5414 107.448 55.8757 111.477 57.7762 111.641C59.6765 111.805 62.0497 110.431 60.881 105.605C60.5965 104.431 59.6468 102.739 58.7164 101.639Z" fill="#99B2E1"/>
<path fill-rule="evenodd" clip-rule="evenodd" d="M101.263 76.6283C101.263 76.6283 90.5694 78.4132 88.2968 86.5749C86.3676 93.5031 88.2863 97.0124 88.9511 99.837C89.6159 102.662 92.5968 118.762 85.5966 121.179C90.8106 122.009 92.7845 115.881 91.5642 108.305C90.3439 100.729 87.4815 91.2143 89.7263 87.8373C91.9712 84.4605 97.0832 77.9052 100.544 77.5557C101.417 77.3002 102.004 77.1458 101.263 76.6283Z" fill="#7198AA"/>
<path fill-rule="evenodd" clip-rule="evenodd" d="M95.5979 79.5787C95.5979 79.5787 101.205 74.6192 105.201 78.825C109.197 83.0307 112.751 92.3454 111.805 101.27C110.859 110.194 101.196 125.488 86.0951 125.091C75.2084 124.804 64.8186 111.083 59.2809 102.733C56.7159 98.866 53.8875 99.5437 53.8875 99.5437L56.0865 98.6006C56.0865 98.6006 57.3388 98.3272 59.5053 100.878C64.2471 106.461 74.6816 116.98 79.2707 119.378C85.5641 122.666 92.1064 122.634 91.5023 111.11C90.8983 99.5855 87.7922 94.9041 89.0902 89.046C90.3881 83.1878 95.5979 79.5787 95.5979 79.5787Z" fill="#7899CF"/>
<path fill-rule="evenodd" clip-rule="evenodd" d="M107.487 103.518L102.782 105.204C102.782 105.204 101.58 105.565 101.115 107.624C100.65 109.683 97.1829 119.028 97.0271 120.315C97.331 120.872 97.659 120.428 97.659 120.428C97.659 120.428 100.977 117.471 105.431 118.122C109.885 118.772 115.01 120.381 118.759 118.898C122.508 117.416 121.67 114.12 117.769 110.708C113.868 107.297 111.959 106.801 110.519 106.094C109.389 105.514 109.074 104.983 108.241 103.711C107.842 103.223 107.487 103.518 107.487 103.518Z" fill="#99B2E1"/>
<path fill-rule="evenodd" clip-rule="evenodd" d="M103.638 107.605C103.638 107.605 101.719 108.492 102.027 109.831C102.357 111.267 103.17 111.762 105.393 112.765C107.615 113.768 108.941 114.223 110.322 115.527C111.54 116.677 111.999 117.733 112.733 117.31C113.468 116.886 113.075 113.701 111.293 112.21C109.511 110.718 109.366 111.368 107.126 109.723C105.212 108.317 105.643 108.166 104.799 107.581C104.421 107.319 103.638 107.605 103.638 107.605Z" fill="#D3E7FD"/>
<path fill-rule="evenodd" clip-rule="evenodd" d="M101.076 76.5571C101.076 76.5571 92.7983 77.5856 92.5013 81.0574C94.2771 84.1573 99.2196 93.7402 101.237 102.709C101.502 103.728 102.12 104.622 102.858 104.515C103.597 104.409 107.37 102.919 107.37 102.919C107.37 102.919 108.579 103 108.54 98.9586C108.502 94.917 108.449 86.2888 102.755 77.8098C102.045 76.7501 101.076 76.5571 101.076 76.5571Z" fill="#99B2E1"/>
<path fill-rule="evenodd" clip-rule="evenodd" d="M105.627 82.6399C105.627 82.6399 103.919 81.6284 101.454 82.1065C98.9888 82.5845 98.7301 86.3068 99.4049 88.0153C99.7836 88.9744 101.858 90.9671 104.72 89.7362C107.583 88.5053 105.627 82.6399 105.627 82.6399Z" fill="#AEC7CC"/>
<path fill-rule="evenodd" clip-rule="evenodd" d="M104.084 82.5009C103.832 82.5167 100.389 82.7444 100.712 86.7552C100.876 88.7935 102.833 89.5933 103.83 89.6399C105.363 89.7116 107.582 88.3472 107.34 85.7455C107.13 83.479 104.995 82.4436 104.084 82.5009Z" fill="#E7EDE0"/>
<path fill-rule="evenodd" clip-rule="evenodd" d="M88.1876 80.5974C88.1876 80.5974 85.1769 78.625 83.6365 80.5619C83.315 82.2016 84.351 83.5678 86.059 84.3013C86.659 84.4205 88.1876 80.5974 88.1876 80.5974Z" fill="#99B2E1"/>
<path fill-rule="evenodd" clip-rule="evenodd" d="M100.761 70.8656C100.761 70.8656 102.9 69.1686 105.411 71.2249C106.872 72.4533 106.448 74.944 104.849 74.9804C103.253 75.0169 102.148 74.6119 101.469 73.7466C100.79 72.8813 100.578 72.1107 100.761 70.8656Z" fill="#99B2E1"/>
<path fill-rule="evenodd" clip-rule="evenodd" d="M104.852 70.8898C104.852 70.8898 102.456 71.8821 102.818 74.8505C103.988 75.2211 105.793 75.3743 106.302 74.038C106.812 72.7016 106.034 71.0584 104.852 70.8898Z" fill="#F5DC5F"/>
<path fill-rule="evenodd" clip-rule="evenodd" d="M88.1755 80.5994C88.1755 80.5994 85.5705 80.5162 86.1696 84.3388C87.2169 84.5156 89.1103 84.5352 89.2769 82.9993C89.4742 81.1809 88.1755 80.5994 88.1755 80.5994Z" fill="#F5DC5F"/>
<path fill-rule="evenodd" clip-rule="evenodd" d="M97.0767 74.5163L101.016 71.9937C101.016 71.9937 102.327 71.5281 102.128 73.0647C101.502 73.6298 97.5245 75.8832 97.5245 75.8832L97.0767 74.5163Z" fill="#99B2E1"/>
<path fill-rule="evenodd" clip-rule="evenodd" d="M105.165 67.1604C105.165 67.1604 106.385 67.3717 105.69 68.1088C105.516 68.2689 105.141 68.2728 105.012 67.8356C104.828 67.6657 104.326 67.5007 103.396 68.0245C102.466 68.5483 102.044 68.2534 101.936 68.1644C101.827 68.0753 102.097 67.8353 102.097 67.8353C102.097 67.8353 102.649 67.9743 103.818 67.3514C104.373 67.1125 105.165 67.1604 105.165 67.1604Z" fill="#D3E2E6"/>
<path fill-rule="evenodd" clip-rule="evenodd" d="M100.769 66.2243L103.118 64.8791C103.118 64.8791 104.115 65.0389 103.971 66.4502C102.976 67.0196 101.534 67.9045 101.534 67.9045L100.769 66.2243Z" fill="#CADCDE"/>
<path fill-rule="evenodd" clip-rule="evenodd" d="M80.9437 54.0585C80.9437 54.0585 80.7553 57.8785 81.2068 58.6706C81.6584 59.4628 83.3627 62.1036 88.3149 63.9761C93.2671 65.8485 94.114 66.0949 94.114 66.0949C94.114 66.0949 94.4258 68.0903 94.8904 68.4641C95.3548 68.8378 98.5986 71.0086 99.2293 70.876C99.8599 70.7435 99.7047 70.257 99.2907 69.7697C98.8768 69.2823 97.0548 69.3814 97.3423 67.873C97.3933 67.6052 98.3887 67.6684 98.6824 67.9504C98.976 68.2324 100.236 70.2515 101.117 70.2314C102.546 70.1987 102.961 66.6745 102.114 65.5188C101.267 64.3631 96.035 63.297 96.035 63.297C96.035 63.297 86.5252 57.1062 85.9015 56.322C85.2777 55.538 84.7989 54.1983 84.708 53.4379C83.4291 53.4508 80.9437 54.0585 80.9437 54.0585Z" fill="#E9C5AD"/>
<path fill-rule="evenodd" clip-rule="evenodd" d="M91.9633 69.969C90.8995 70.2463 88.4167 71.2826 88.9412 71.9409C89.7817 72.9958 96.9484 71.3124 95.8488 70.0728C95.2198 69.3638 93.0366 69.6892 91.9633 69.969Z" fill="#7899CF"/>
<path fill-rule="evenodd" clip-rule="evenodd" d="M103.652 60.8011L98.3068 67.7427L98.6744 68.0304L103.933 61.0148L103.652 60.8011Z" fill="#A7C9E4"/>
<path fill-rule="evenodd" clip-rule="evenodd" d="M98.0279 67.5959C98.0279 67.5959 96.9427 67.381 97.2495 68.766C97.5113 69.4924 98.629 70.4826 99.2845 69.693C99.94 68.9034 98.7346 67.7142 98.0279 67.5959Z" fill="#7EACBF"/>
<path fill-rule="evenodd" clip-rule="evenodd" d="M97.8145 68.2091C97.8145 68.2091 95.7589 69.5945 96.4857 72.3838C97.2239 75.2163 95.938 75.696 95.5254 75.8763C94.8496 76.1715 93.5373 76.4479 91.7543 74.108C90.0178 71.829 87.3394 72.9739 86.7894 73.3673C87.196 73.9622 87.3909 74.5421 87.3349 74.9903C88.1079 74.6176 89.2318 73.2561 90.7476 75.0489C92.2634 76.8418 93.6335 78.2098 96.4293 77.0186C99.2253 75.8276 97.5867 72.5123 97.6791 71.1276C97.7715 69.7428 98.2423 69.693 98.577 69.2907C98.6528 68.9579 98.706 68.419 97.8145 68.2091Z" fill="#A6BAC8"/>
<path fill-rule="evenodd" clip-rule="evenodd" d="M70.3595 58.6925L50.4841 71.1309L50.3632 47.6865L70.2962 36.4083L70.3595 58.6925Z" fill="#BF2F41"/>
<path fill-rule="evenodd" clip-rule="evenodd" d="M70.2503 36.105L43.0744 20.7024L23.357 32.4684L50.5513 47.6409L70.2503 36.105Z" fill="#FF445D"/>
<path fill-rule="evenodd" clip-rule="evenodd" d="M50.5413 71.1974L23.3569 55.327V32.4683L50.4665 47.6259L50.5413 71.1974Z" fill="#FF445D"/>
<path fill-rule="evenodd" clip-rule="evenodd" d="M35.5525 48.4469L32.3519 46.5927V56.5687L35.5523 58.4229C38.5486 60.1584 40.2584 59.0765 40.2584 56.1552C40.2584 53.2632 38.525 50.1686 35.5525 48.4469ZM34.2662 49.4475L35.5523 50.1924C37.3303 51.2224 38.3438 52.9822 38.3438 55.0463C38.3438 57.1412 37.351 57.7192 35.5523 56.6773L34.2662 55.9319V49.4475Z" fill="white"/>
<path fill-rule="evenodd" clip-rule="evenodd" d="M23.3569 32.4683V37.6635L50.5472 53.1239L50.5287 47.5373L23.3569 32.4683Z" fill="#CC374A"/>
<path fill-rule="evenodd" clip-rule="evenodd" d="M70.2503 36.105V41.3001L50.5014 52.8319L50.5459 47.5439L70.2503 36.105Z" fill="#AD2738"/>
<path fill-rule="evenodd" clip-rule="evenodd" d="M73.4422 85.4693C73.4422 85.4693 67.2522 86.868 60.8821 82.1077C54.512 77.3474 52.0449 72.9766 51.9423 70.1625C53.5264 69.1154 55.4191 68.0369 55.4191 68.0369C55.4191 68.0369 59.3155 80.7996 67.8887 81.9779C69.4815 82.3344 71.1603 83.6443 71.1603 83.6443L73.4422 85.4693Z" fill="#849299"/>
<path fill-rule="evenodd" clip-rule="evenodd" d="M58.7561 64.6395C58.7561 64.6395 53.1618 67.205 55.7277 72.4108C58.2935 77.6167 63.6769 82.5867 69.3972 82.4773C75.1177 82.368 65.908 70.4682 65.908 70.4682C65.908 70.4682 62.9309 63.4757 58.7561 64.6395Z" fill="#94A2AA"/>
<path fill-rule="evenodd" clip-rule="evenodd" d="M54.2932 96.5099C54.2932 96.5099 50.3117 98.7594 45.508 95.8601C40.7041 92.9608 36.0254 89.0869 36.0254 89.0869C36.0254 89.0869 37.3673 85.0436 39.5789 85.7274C41.7905 86.4113 54.509 96.4711 54.2932 96.5099Z" fill="#7899CF"/>
<path fill-rule="evenodd" clip-rule="evenodd" d="M72.6402 109.389C72.6402 109.389 72.2659 110.679 73.3879 111.361C74.5099 112.043 78.8594 114.247 80.4887 115.017C81.7392 115.607 85.7065 117.169 87.6973 114.841C87.847 114.324 87.9645 113.88 87.623 113.671C87.0247 114.191 85.2766 115.075 83.3992 114.747C81.5218 114.419 72.6767 109.407 72.6402 109.389Z" fill="white"/>
<path fill-rule="evenodd" clip-rule="evenodd" d="M73.3432 107.593L73.1065 109.708C73.1065 109.708 78.7769 113.567 82.8309 114.842C86.7775 116.083 88.5266 112.974 86.2292 111.447C83.9317 109.919 82.0045 108.839 81.2446 107.267C80.4849 105.695 73.3432 107.593 73.3432 107.593Z" fill="#CFDFEC"/>
<path fill-rule="evenodd" clip-rule="evenodd" d="M87.0025 111.878C87.0025 111.878 84.3161 112.272 82.6553 114.687C84.2024 115.221 85.6804 115.415 87.4833 114.458C88.239 114.057 87.8758 112.566 87.0025 111.878Z" fill="#748EA1"/>
<path fill-rule="evenodd" clip-rule="evenodd" d="M73.4619 107.242C73.4619 107.242 76.2254 107.71 76.1456 111.566C74.9198 111.034 73.3259 110.204 72.8175 109.519C73.0149 107.199 73.5734 107.225 73.4619 107.242Z" fill="#748EA1"/>
<path fill-rule="evenodd" clip-rule="evenodd" d="M60.4188 73.0761C60.4188 73.0761 59.5587 75.4961 64.2037 79.0907C68.8488 82.6853 73.4873 85.6333 74.7977 88.2098C76.108 90.7861 74.1473 98.9821 73.7813 102.631C73.4153 106.279 72.397 107.877 74.1623 108.458C75.9275 109.039 79.845 109.393 81.4713 107.821C81.3589 106.59 81.0802 106.337 81.2791 104.447C81.4782 102.558 83.094 92.4155 83.5475 90.0536C84.001 87.6916 85.6075 86.4967 77.0937 77.7626C68.5801 69.0286 60.4188 73.0761 60.4188 73.0761Z" fill="#6A7780"/>
<path fill-rule="evenodd" clip-rule="evenodd" d="M78.7545 39.4527C78.7545 39.4527 82.5372 38.4656 83.4259 43.2702C84.3146 48.0753 84.9599 53.3121 84.9599 53.3121C84.9599 53.3121 83.7445 54.6299 81.2681 54.5224C81.0193 51.5367 78.7545 39.4527 78.7545 39.4527Z" fill="#9E422B"/>
<path fill-rule="evenodd" clip-rule="evenodd" d="M72.8365 39.2043C72.8365 39.2043 76.1407 37.7372 78.4104 38.5539C80.6803 39.3716 82.7689 40.6132 82.3611 46.7455C81.9534 52.8772 80.178 72.8977 79.7037 73.8516C79.0768 74.8203 73.0891 79.3399 67.8817 78.3111C62.6744 77.2821 59.5013 74.7674 59.4645 72.5369C59.4277 70.3065 60.8538 60.3622 61.2789 53.9091C61.7041 47.456 60.1144 44.4383 68.5114 40.7047C71.8389 39.4786 72.8365 39.2043 72.8365 39.2043Z" fill="#FF6944"/>
<path fill-rule="evenodd" clip-rule="evenodd" d="M85.0231 73.8436L79.5734 76.8217C79.5734 76.8217 80.5324 76.9749 80.5253 78.4525C81.4949 78.0165 86.0474 75.7464 86.0474 75.7464C86.0474 75.7464 86.1896 73.8128 85.0231 73.8436Z" fill="#CADCDE"/>
<path fill-rule="evenodd" clip-rule="evenodd" d="M68.443 58.1343C68.443 58.1343 64.8903 59.2355 62.386 57.648C62.2788 59.1983 62.4678 63.4691 63.0077 64.7653C63.5475 66.0615 65.7711 68.29 67.4463 69.2545C69.1215 70.219 78.5614 75.0862 78.5614 75.0862C78.5614 75.0862 81.2515 77.9034 82.7992 77.9744C84.3469 78.0454 85.9693 77.3454 85.882 76.3283C85.7947 75.3112 85.7318 74.2262 83.1415 73.0431C80.551 71.86 73.5592 66.593 72.0929 65.5062C70.6265 64.4193 68.8174 63.2485 68.7277 62.1729C68.638 61.0974 68.443 58.1343 68.443 58.1343Z" fill="#E9C5AD"/>
<path fill-rule="evenodd" clip-rule="evenodd" d="M65.5997 44.7505C65.5997 44.7505 63.8131 43.4882 62.2968 45.5551C60.7805 47.622 60.1406 57.04 60.1406 57.04C60.1406 57.04 63.8315 59.7124 66.6914 59.1025C69.5512 58.4927 68.8836 57.6457 68.8046 54.1331C68.7257 50.6204 68.665 46.7557 65.5997 44.7505Z" fill="#9E422B"/>
<path fill-rule="evenodd" clip-rule="evenodd" d="M70.8714 33.6331C70.8714 33.6331 71.7758 38.3409 69.7553 39.7529C67.7348 41.1638 67.4184 41.1325 67.4184 41.1325C67.4184 41.1325 69.1747 41.9899 72.0217 45.4149C74.2005 48.0362 77.3248 46.0644 77.5359 44.6068C77.874 42.2727 77.494 41.1348 77.4847 40.0927C77.4754 39.0506 70.8714 33.6331 70.8714 33.6331Z" fill="#E9C5AD"/>
<path fill-rule="evenodd" clip-rule="evenodd" d="M83.8382 32.1628C83.8382 32.1628 82.2858 38.8469 80.1822 40.8034C78.5093 42.3587 77.2202 41.8962 76.2298 41.7682C74.2278 41.5093 72.4945 38.9363 71.7785 37.6551C71.0805 36.4062 71.7235 33.579 71.7235 33.579L74.6138 28.2748L83.8382 32.1628Z" fill="#FECFB7"/>
<path fill-rule="evenodd" clip-rule="evenodd" d="M77.6943 30.9503C77.6943 30.9503 76.0813 31.1769 75.781 32.9598C75.4805 34.7438 74.2937 34.7698 73.9855 34.7677C74.0741 34.1443 74.365 32.9546 74.2963 32.007C74.2275 31.0594 75.257 29.3949 75.854 29.6786C76.4511 29.9633 77.1674 30.4277 77.6943 30.9503Z" fill="#510000"/>
<path fill-rule="evenodd" clip-rule="evenodd" d="M74.8583 29.9788C74.8583 29.9788 80.3101 33.0762 85.4288 32.7135C87.7037 32.5899 86.4558 30.649 85.6302 30.2084C84.381 30.2282 74.8583 29.9788 74.8583 29.9788Z" fill="#CC374A"/>
<path fill-rule="evenodd" clip-rule="evenodd" d="M76.1263 30.2864C76.1263 30.2864 85.0258 30.7716 85.6386 30.3508C85.8408 29.4489 86.1159 25.1691 82.4508 21.9523C78.7857 18.7355 74.1959 20.3304 72.9599 20.9081C71.7239 21.4868 67.9639 24.4086 68.2945 28.4504C68.6252 32.4932 70.6416 35.3766 72.2728 35.8161C73.1173 36.0685 74.428 32.3322 74.6282 31.4418C74.8905 30.2739 75.6156 30.2978 76.1263 30.2864Z" fill="#FF445D"/>
<path fill-rule="evenodd" clip-rule="evenodd" d="M87.0858 70.2419L89.6669 71.8343C89.6669 71.8343 90.115 72.0297 90.0532 73.3379C89.8058 73.3931 89.6721 73.1434 89.6721 73.1434C89.6721 73.1434 89.7825 72.4081 89.3714 72.0397C88.865 71.5859 86.9653 70.7432 86.9653 70.7432L87.0858 70.2419Z" fill="#A7C9E4"/>
<path fill-rule="evenodd" clip-rule="evenodd" d="M85.2527 66.6579C85.2527 66.6579 82.2537 67.8179 82.5126 71.3081C82.6441 73.0818 84.2508 73.02 84.6194 72.9842C85.5479 72.8942 87.5965 71.51 87.5005 68.7261C87.4128 66.1869 85.2527 66.6579 85.2527 66.6579Z" fill="#8BB2F0"/>
<path fill-rule="evenodd" clip-rule="evenodd" d="M38.0771 79.3997C38.0771 79.3997 35.6749 82.418 36.6105 83.5478C37.5462 84.6777 43.6037 87.8059 49.7204 92.8194C55.8373 97.833 58.586 98.682 59.539 99.6175C60.492 100.553 61.9656 102.57 65.7515 102.207C65.3422 99.9485 64.3436 87.4017 52.4966 80.9477C42.4797 75.4906 38.0771 79.3997 38.0771 79.3997Z" fill="#D3E7FD"/>
<path fill-rule="evenodd" clip-rule="evenodd" d="M58.0303 102.558C57.2533 101.648 54.1629 99.0145 53.5022 102.794C52.8856 106.322 56.0959 110.037 57.5407 110.162C58.9855 110.287 60.7853 109.405 59.7646 105.6C59.5527 104.809 58.8823 103.556 58.0303 102.558Z" fill="#D3E7FD"/>
<path fill-rule="evenodd" clip-rule="evenodd" d="M84.6498 73.6853L85.9158 72.9469C85.9158 72.9469 87.5611 73.2071 87.3462 75.2559C86.4867 75.8563 85.9999 75.9865 85.9999 75.9865C85.9999 75.9865 86.2297 74.3907 84.6498 73.6853Z" fill="#8DBDE2"/>
<path fill-rule="evenodd" clip-rule="evenodd" d="M105.087 57.0815C105.087 57.0815 102.405 57.8753 102.442 61.7065C102.449 62.4909 103.336 63.6352 104.926 63.1112C105.846 62.8077 107.742 61.159 107.656 59.1315C107.543 56.4529 105.087 57.0815 105.087 57.0815Z" fill="#8BB2F0"/>
</svg>