<svg width="160" height="160" viewBox="0 0 160 160" fill="none" xmlns="http://www.w3.org/2000/svg">
<path fill-rule="evenodd" clip-rule="evenodd" d="M65.7521 124.195C65.7521 124.195 69.48 129.253 69.0362 131.581C68.5896 133.91 68.0335 134.021 66.9753 134.132C65.9185 134.242 63.8049 134.132 61.3571 131.356C58.9079 128.581 56.628 125.471 56.628 125.471C56.628 125.471 56.069 124.472 57.5439 122.919C59.0203 121.364 59.6319 120.752 59.6319 120.752L65.7521 124.195Z" fill="#5E7EB2"/>
<path fill-rule="evenodd" clip-rule="evenodd" d="M88.6757 130.079V134.411L96.076 137.74C96.076 137.74 98.8566 139.017 100.637 138.573C102.418 138.129 103.253 136.851 102.976 135.52C102.695 134.188 98.1341 130.636 96.5767 129.468C95.0178 128.303 90.9002 126.749 88.6757 130.079Z" fill="#5E7EB2"/>
<path fill-rule="evenodd" clip-rule="evenodd" d="M82.3142 34.2074C82.3142 34.2074 87.1373 32.134 89.2864 37.0938C91.4383 42.0522 91.491 78.2978 91.491 78.2978L89.2309 80.5613L82.3142 34.2074Z" fill="#FFD194"/>
<path fill-rule="evenodd" clip-rule="evenodd" d="M82.1337 26.4869C82.1337 26.4869 81.6928 25.1912 79.1824 25.6326C54.0246 30.0673 53.3333 42.1596 53.3333 42.1596L62.5399 37.7745L82.1337 26.4869Z" fill="#7899CF"/>
<path fill-rule="evenodd" clip-rule="evenodd" d="M59.5365 74.9223C65.4732 76.3414 67.3948 74.9223 67.3948 74.9223L62.539 37.2831C58.447 34.926 53.3338 37.872 53.3338 42.5849V65.8257C53.3338 69.8802 55.5839 73.9771 59.5365 74.9223Z" fill="#99B2E1"/>
<path fill-rule="evenodd" clip-rule="evenodd" d="M77.2777 29.6312L62.2709 37.4747V71.4781C62.2709 74.3205 65.3559 76.0973 67.8236 74.6753L81.7765 67.2307L77.2777 29.6312Z" fill="#5E7EB2"/>
<path fill-rule="evenodd" clip-rule="evenodd" d="M92.6816 85.1692L96.6869 100.435C96.6869 100.435 98.7464 126.138 98.5231 127.97C97.5218 129.857 95.6301 131.523 93.6275 131.579C91.6249 131.634 87.0621 131.079 86.5614 128.136C86.3381 125.194 85.0595 104.376 85.004 101.712C84.5588 99.2128 80.8309 85.1692 80.8309 85.1692L78.605 103.155C78.605 103.155 69.5364 122.584 68.3118 123.807C67.0886 125.028 62.7477 124.862 60.9115 123.751C59.0753 122.64 57.2946 120.807 57.5733 119.587C58.3528 118.144 64.2511 103.822 67.255 99.3249C67.7556 94.3282 69.5918 80.6167 69.4809 78.84C69.3685 77.0633 66.2082 55.3551 66.2082 55.3551C66.2082 55.3551 74.9326 61.9497 75.5172 49.382C78.9393 52.8588 89.0832 64.4062 89.0832 64.4062L92.6816 85.1692Z" fill="#FF445D"/>
<path fill-rule="evenodd" clip-rule="evenodd" d="M64.9147 68.8273L66.4892 70.1443C66.4892 70.1443 73.0489 66.3226 77.4936 59.9281C77.7524 59.5563 76.7085 58.1684 76.3828 58.4877C68.772 65.8997 66.0255 64.3926 66.0255 64.3926" fill="#5E7EB2"/>
<path fill-rule="evenodd" clip-rule="evenodd" d="M77.6029 33.3121C77.6029 33.3121 88.5646 33.4299 88.7311 43.4772C88.8975 53.526 89.0824 64.4063 89.0824 64.4063L74.3714 66.0781C74.3714 66.0781 78.6526 49.1949 72.8709 43.7554C67.0878 38.3145 65.4749 42.6414 65.4749 42.6414C65.4749 42.6414 65.8631 38.6352 77.6029 33.3121Z" fill="#5E7EB2"/>
<path fill-rule="evenodd" clip-rule="evenodd" d="M88.866 48.8947C88.7977 47.5182 88.4976 46.3829 88.2487 44.4813C88.1463 43.6993 87.4238 42.073 87.1607 41.2216C86.249 38.2726 82.4599 36.0404 82.4599 36.0404C79.9268 34.7802 77.1632 34.7745 74.9117 35.0243C72.6602 35.2698 68.7716 39.0361 68.7716 39.0361C68.7716 39.0361 70.7159 38.2712 73.4766 39.7514C77.4818 41.8474 77.6966 46.2481 78.0436 49.6937C78.5599 54.8578 77.5345 61.8654 77.5345 61.8654L78.7946 66.3228L89.0822 64.6526C89.0822 64.6526 89.0538 51.1596 88.866 48.8947Z" fill="#FF445D"/>
<path fill-rule="evenodd" clip-rule="evenodd" d="M82.6393 34.9475V37.5374C82.6393 37.5374 81.712 39.1282 78.1135 38.9068C74.5151 38.6854 73.774 37.4636 73.774 37.4636V32.061C73.774 32.061 80.8941 27.9527 82.6393 34.9475Z" fill="#FFE9D4"/>
<path fill-rule="evenodd" clip-rule="evenodd" d="M82.6394 34.9474L82.537 35.4284C82.537 35.4284 78.7949 37.8438 75.205 32.7562C72.2296 28.5386 76.1011 31.875 76.1011 31.875L82.6394 34.9474Z" fill="#F5DDC7"/>
<path fill-rule="evenodd" clip-rule="evenodd" d="M85.7075 24.8972C85.4301 24.9908 86.7088 33.8177 82.5371 35.4284C78.3641 37.0391 74.3588 32.708 72.9664 23.2141C71.5754 13.7217 85.7075 24.8972 85.7075 24.8972Z" fill="#FFE9D4"/>
<path fill-rule="evenodd" clip-rule="evenodd" d="M73.9678 23.3256C73.9678 23.3256 73.1884 27.8781 74.7458 29.4888C76.3047 31.0995 75.9704 32.5967 74.7458 32.9855C73.5226 33.3744 70.4917 31.8247 71.0336 21.7178C71.5741 11.6122 73.9678 23.3256 73.9678 23.3256Z" fill="#F8C787"/>
<path fill-rule="evenodd" clip-rule="evenodd" d="M86.8395 22.2155C86.8395 22.2155 86.6532 18.7401 86.2265 17.6091C85.5068 15.6947 83.2781 13.3333 79.718 13.3333C76.1566 13.3333 73.8766 14.6105 72.0959 16.3872C70.3151 18.164 70.8144 22.2155 70.8144 22.2155L76.1566 25.769C76.1566 25.769 79.718 20.4388 86.8395 22.2155Z" fill="#FF445D"/>
<path fill-rule="evenodd" clip-rule="evenodd" d="M86.8395 21.8428L90.6513 26.1299C90.6513 26.1299 88.0086 25.9014 86.6731 26.1299C85.3589 26.3541 83.1671 27.4894 82.1658 28.3225C81.1645 29.1541 75.7924 25.5268 75.7924 25.5268C75.7924 25.5268 79.2173 19.5665 86.8395 21.8428Z" fill="#CC374A"/>
<path fill-rule="evenodd" clip-rule="evenodd" d="M103.208 75.255L99.5886 82.2427L85.7922 83.7598L86.5873 84.9248L99.6612 83.8534C100.344 83.7967 100.943 83.3752 101.224 82.7508L103.738 77.3283C103.895 76.9892 103.89 76.5961 103.719 76.264L103.208 75.255Z" fill="#5E7EB2"/>
<path fill-rule="evenodd" clip-rule="evenodd" d="M102.742 75.0334L88.3483 76.1076C88.1606 76.1218 87.9956 76.2339 87.9145 76.4028L84.7598 82.935C84.5835 83.2983 84.8694 83.7155 85.2719 83.6857L99.1493 82.6498C99.6543 82.6129 100.104 82.3078 100.324 81.8508L103.253 75.7827C103.428 75.4194 103.145 75.0036 102.742 75.0334Z" fill="#7899CF"/>
<path fill-rule="evenodd" clip-rule="evenodd" d="M101.616 76.3415L90.2684 77.1887L87.8163 82.2706L99.1621 81.4233L101.616 76.3415Z" fill="#D3E7FD"/>
<path fill-rule="evenodd" clip-rule="evenodd" d="M86.6201 74.386C86.6201 74.386 87.5389 75.6277 88.398 75.9527C89.4647 76.3586 90.6224 79.1727 91.4019 79.5062C92.1799 79.8396 92.5155 80.728 92.0135 81.0047C91.5128 81.2829 89.7321 80.728 89.2314 80.562C89.5102 81.2261 93.0148 84.8349 93.7942 85.001C92.7929 85.6679 88.5089 86.7777 85.3371 84.3922C82.1654 82.0038 81.7771 78.3396 81.7771 78.3396C81.7771 78.3396 83.7314 74.1632 86.6201 74.386Z" fill="#FFE9D4"/>
<path fill-rule="evenodd" clip-rule="evenodd" d="M81.324 56.2549L82.5216 55.5652C84.1956 54.6002 85.1187 52.9512 85.1187 50.9204C85.1187 48.9195 84.1757 48.3277 82.5216 49.2799L81.324 49.9696V56.2549ZM86.9007 49.8945C86.9007 52.7256 85.3091 55.6504 82.5214 57.2554L79.5431 58.9711V49.3041L82.5214 47.5884C85.2878 45.9947 86.9007 47.0917 86.9007 49.8945Z" fill="white"/>
<path fill-rule="evenodd" clip-rule="evenodd" d="M68.0578 41.0174C69.0932 41.1068 74.0713 40.982 75.5164 49.3831C76.9643 57.7829 76.7495 58.0766 76.7495 58.0766L86.9333 72.7346C86.9333 72.7346 87.3216 75.7673 84.9108 77.3595C82.4985 78.9504 81.3507 79.0994 80.7932 78.729C80.2001 78.1741 68.2569 61.0014 68.2569 61.0014C68.2569 61.0014 62.7426 47.8235 64.8107 43.4016C66.1092 40.6258 66.9939 40.9266 68.0578 41.0174Z" fill="#FFD194"/>
</svg>